# Blender v2.79 (sub 0) OBJ File: 'ventoraptorskull.blend'
# www.blender.org
mtllib ventoraptorskull.mtl
o Base
v 0.108864 -0.067907 -0.004040
v 0.126000 -0.099852 0.087985
v -0.126000 -0.099852 0.087985
v -0.108864 -0.067907 -0.004040
v 0.097978 0.165919 -0.110422
v 0.126000 0.193328 0.146266
v -0.126000 0.193328 0.146266
v -0.097978 0.165919 -0.110422
v -0.088200 -0.060958 0.258634
v -0.088200 0.155876 0.258774
v 0.088200 -0.060958 0.258634
v 0.088200 0.155876 0.258774
v -0.088200 0.039632 0.432184
v 0.088200 0.039632 0.432184
v -0.052920 0.021435 0.713652
v -0.052920 0.111524 0.696953
v 0.052920 0.021435 0.713652
v 0.052920 0.111524 0.696953
v -0.000000 -0.099852 0.087985
v 0.000000 -0.067907 -0.004040
v -0.000000 0.193328 0.146266
v 0.000000 0.165919 -0.110422
v -0.000000 0.155876 0.258774
v -0.000000 -0.060958 0.258634
v -0.000000 0.039632 0.432184
v -0.000000 0.021435 0.713652
v -0.000000 0.111524 0.696953
v -0.000000 0.335069 0.418058
v -0.000000 0.523267 0.110184
v 0.000000 0.472466 -0.279966
v -0.088200 -0.045455 0.413430
v 0.088200 -0.045455 0.413430
v -0.088200 -0.063652 0.694898
v 0.088200 -0.063652 0.694898
v 0.065318 -0.028395 -0.081877
v 0.065318 0.120853 -0.120374
v -0.065318 -0.028395 -0.081877
v -0.065318 0.120853 -0.120374
v 0.000000 -0.028395 -0.081877
v 0.000000 0.120853 -0.120374
v 0.135828 -0.104122 0.047645
v -0.135828 -0.104122 0.047644
v 0.129175 0.200020 0.014688
v -0.129175 0.200020 0.014688
v 0.000000 -0.104122 0.047645
v -0.000000 0.200020 0.014688
vt 0.242103 0.644655
vt 0.188146 0.806918
vt 0.226634 0.818670
vt 0.113608 0.487650
vt 0.004241 0.455936
vt 0.004241 0.497949
vt 0.146988 0.646434
vt 0.188146 0.806567
vt 0.146093 0.780814
vt 0.242102 0.644304
vt 0.226635 0.818319
vt 0.108677 0.701373
vt 0.146093 0.781165
vt 0.146988 0.646784
vt 0.108677 0.701723
vt 0.022160 0.759882
vt 0.022160 0.759532
vt 0.017112 0.652546
vt 0.033455 0.583206
vt 0.033455 0.646768
vt 0.210955 0.919658
vt 0.242085 0.995159
vt 0.210954 0.988868
vt 0.046180 0.875614
vt 0.145748 0.919657
vt 0.046180 0.919657
vt 0.210955 0.850447
vt 0.242085 0.844155
vt 0.364130 0.995075
vt 0.237583 0.957483
vt 0.321336 0.956157
vt 0.208028 0.918927
vt 0.212304 0.987460
vt 0.475097 0.162507
vt 0.489477 0.247559
vt 0.464099 0.327140
vt 0.179825 0.919657
vt 0.145748 0.875615
vt 0.179825 0.856739
vt 0.049799 0.583206
vt 0.100652 0.542758
vt 0.100652 0.583206
vt 0.145748 0.963700
vt 0.143600 0.583125
vt 0.217141 0.542109
vt 0.217141 0.583126
vt 0.100652 0.623654
vt 0.049799 0.640989
vt 0.046180 0.963700
vt 0.217140 0.624144
vt 0.143271 0.583206
vt 0.014345 0.919657
vt 0.014345 0.875614
vt 0.219083 0.648607
vt 0.143271 0.623654
vt 0.322296 0.886976
vt 0.237045 0.919777
vt 0.239594 0.881266
vt 0.387121 0.166984
vt 0.277129 0.205549
vt 0.319664 0.164317
vt 0.004241 0.455936
vt 0.113608 0.487650
vt 0.004241 0.497949
vt 0.009828 0.712322
vt 0.009828 0.711973
vt 0.375997 0.922357
vt 0.366539 0.850086
vt 0.322351 0.921382
vt 0.017112 0.513866
vt 0.033455 0.519645
vt 0.215730 0.850086
vt 0.014345 0.963700
vt 0.049799 0.525423
vt 0.265122 0.640351
vt 0.265123 0.830071
vt 0.265122 0.640702
vt 0.265122 0.830422
vt 0.113608 0.445637
vt 0.219083 0.648256
vt 0.017112 0.583206
vt 0.179824 0.982576
vt 0.242085 0.919658
vt 0.431109 0.164745
vt 0.143601 0.542108
vt 0.143600 0.624142
vt 0.143271 0.542758
vt 0.113608 0.445637
vn -0.9994 0.0246 0.0254
vn -0.9253 0.3530 0.1388
vn 0.9479 -0.0002 0.3184
vn 0.9994 0.0246 0.0254
vn 1.0000 0.0000 0.0000
vn -1.0000 -0.0000 -0.0000
vn -0.9858 0.1395 0.0935
vn 0.9858 0.1395 0.0935
vn 0.0000 -0.8190 -0.5738
vn 0.0000 0.9648 -0.2630
vn 0.0000 0.9949 0.1007
vn -0.8328 -0.1383 -0.5361
vn 0.0000 0.2156 -0.9765
vn -0.0000 0.9488 0.3158
vn -0.0000 -0.9750 0.2222
vn 0.0000 -0.9979 -0.0645
vn 0.0000 -0.8652 0.5015
vn 0.0000 0.1823 0.9833
vn -0.9731 -0.0449 0.2258
vn 0.0000 -0.2498 -0.9683
vn 0.9253 0.3530 0.1388
vn -0.9918 0.0233 0.1258
vn 0.9918 0.0233 0.1258
vn 0.0000 -0.8917 -0.4526
vn 0.6292 -0.2974 -0.7181
vn -0.0000 -0.9944 0.1053
vn 0.9723 -0.0579 -0.2267
vn -0.9723 -0.0579 -0.2267
vn -0.9693 -0.0480 0.2412
vn 0.9731 -0.0449 0.2258
vn 0.9693 -0.0480 0.2412
vn -0.0000 0.9987 0.0508
vn -0.6292 -0.2974 -0.7181
vn -0.9480 -0.0002 0.3184
vn 0.8328 -0.1383 -0.5361
vn 0.8765 -0.0329 -0.4803
vn -0.8765 -0.0329 -0.4803
usemtl None
s off
f 42/1/1 7/2/1 44/3/1
f 13/4/2 33/5/2 15/6/2
f 11/7/3 6/8/3 12/9/3
f 6/8/4 41/10/4 43/11/4
f 11/7/5 12/9/5 14/12/5
f 10/13/6 9/14/6 13/15/6
f 10/13/7 13/15/7 16/16/7
f 14/12/8 12/9/8 18/17/8
f 4/18/9 45/19/9 42/20/9
f 46/21/10 8/22/10 44/23/10
f 18/24/11 23/25/11 27/26/11
f 46/21/10 43/27/10 5/28/10
f 4/29/12 38/30/12 37/31/12
f 22/32/13 38/30/13 8/33/13
f 22/34/5 30/35/5 29/36/5
f 21/37/14 12/38/14 6/39/14
f 19/40/15 11/41/15 24/42/15
f 21/37/14 10/43/14 23/25/14
f 25/44/16 17/45/16 26/46/16
f 19/40/15 9/47/15 3/48/15
f 23/25/11 16/49/11 27/26/11
f 15/50/16 25/44/16 26/46/16
f 11/41/17 25/51/17 24/42/17
f 18/24/18 26/52/18 17/53/18
f 9/14/19 7/2/19 3/54/19
f 9/47/17 25/51/17 13/55/17
f 35/56/20 40/57/20 36/58/20
f 21/59/5 28/60/5 23/61/5
f 34/62/21 14/63/21 17/64/21
f 13/15/22 15/65/22 16/16/22
f 17/66/23 14/12/23 18/17/23
f 20/67/24 35/56/24 1/68/24
f 22/32/13 36/58/13 40/57/13
f 39/69/20 38/30/20 40/57/20
f 45/19/9 1/70/9 41/71/9
f 1/68/25 36/58/25 5/72/25
f 20/67/24 37/31/24 39/69/24
f 27/26/18 15/73/18 26/52/18
f 19/40/26 41/71/26 2/74/26
f 42/20/26 19/40/26 3/48/26
f 43/11/27 1/75/27 5/76/27
f 4/77/28 44/3/28 8/78/28
f 42/1/29 3/54/29 7/2/29
f 13/4/6 31/79/6 33/5/6
f 11/7/30 2/80/30 6/8/30
f 6/8/31 2/80/31 41/10/31
f 4/18/9 20/81/9 45/19/9
f 7/82/32 21/37/32 44/23/32
f 46/21/10 22/83/10 8/22/10
f 44/23/32 21/37/32 46/21/32
f 18/24/11 12/38/11 23/25/11
f 5/28/10 22/83/10 46/21/10
f 46/21/32 21/37/32 43/27/32
f 6/39/32 43/27/32 21/37/32
f 4/29/33 8/33/33 38/30/33
f 22/32/13 40/57/13 38/30/13
f 29/36/5 21/59/5 46/84/5
f 46/84/5 22/34/5 29/36/5
f 21/37/14 23/25/14 12/38/14
f 19/40/15 2/74/15 11/41/15
f 21/37/14 7/82/14 10/43/14
f 25/44/16 14/85/16 17/45/16
f 19/40/15 24/42/15 9/47/15
f 23/25/11 10/43/11 16/49/11
f 15/50/16 13/86/16 25/44/16
f 11/41/17 14/87/17 25/51/17
f 18/24/18 27/26/18 26/52/18
f 9/14/34 10/13/34 7/2/34
f 9/47/17 24/42/17 25/51/17
f 35/56/20 39/69/20 40/57/20
f 21/59/5 29/36/5 28/60/5
f 34/62/5 32/88/5 14/63/5
f 20/67/24 39/69/24 35/56/24
f 22/32/13 5/72/13 36/58/13
f 39/69/20 37/31/20 38/30/20
f 45/19/9 20/81/9 1/70/9
f 1/68/35 35/56/35 36/58/35
f 20/67/24 4/29/24 37/31/24
f 27/26/18 16/49/18 15/73/18
f 19/40/26 45/19/26 41/71/26
f 42/20/26 45/19/26 19/40/26
f 43/11/36 41/10/36 1/75/36
f 4/77/37 42/1/37 44/3/37
