# Blender v2.79 (sub 0) OBJ File: 'sutiramustinger.blend'
# www.blender.org
mtllib sutiramustinger.mtl
o Tail
v 0.058968 0.042223 0.077204
v 0.058968 -0.059913 0.018236
v 0.079607 0.088822 -0.056121
v 0.079607 -0.069785 -0.069998
v -0.058968 0.042223 0.077204
v -0.058968 -0.059913 0.018236
v -0.079607 0.088822 -0.056121
v -0.079607 -0.069785 -0.069998
v 0.000000 0.088822 -0.056121
v -0.000000 -0.069785 -0.069998
v 0.000000 0.042223 0.077204
v -0.000000 -0.059913 0.018236
v 0.064865 -0.056200 -0.178299
v 0.064865 0.050068 -0.252709
v 0.000000 0.050068 -0.252709
v -0.000000 -0.056200 -0.178299
v -0.064865 -0.056200 -0.178299
v -0.064865 0.050068 -0.252709
v 0.071351 -0.133070 -0.209562
v 0.071351 -0.096136 -0.347402
v -0.000000 -0.096136 -0.347402
v -0.000000 -0.133070 -0.209562
v -0.071351 -0.133070 -0.209562
v -0.071351 -0.096136 -0.347402
v 0.042811 -0.239601 -0.267654
v 0.042811 -0.217440 -0.350358
v -0.000000 -0.217440 -0.350358
v -0.000000 -0.239601 -0.267654
v -0.042811 -0.239601 -0.267654
v -0.042811 -0.217440 -0.350358
v 0.059935 -0.342438 -0.279595
v 0.059935 -0.342438 -0.399465
v -0.000000 -0.342438 -0.399465
v -0.000000 -0.342438 -0.279595
v -0.059935 -0.342438 -0.279595
v -0.059935 -0.342438 -0.399465
v 0.041954 -0.442643 -0.301506
v 0.041954 -0.478105 -0.377554
v -0.000000 -0.478105 -0.377554
v -0.000000 -0.442643 -0.301506
v -0.041955 -0.442643 -0.301506
v -0.041955 -0.478105 -0.377554
v 0.058736 -0.533571 -0.241574
v 0.058736 -0.600950 -0.337802
v -0.000000 -0.600950 -0.337802
v -0.000000 -0.533571 -0.241574
v -0.058737 -0.533571 -0.241574
v -0.058737 -0.600950 -0.337802
v 0.041115 -0.667507 -0.169758
v 0.041115 -0.681424 -0.239506
v -0.000000 -0.689747 -0.217854
v -0.000000 -0.675831 -0.148106
v -0.041116 -0.667507 -0.169758
v -0.041116 -0.681424 -0.239506
v -0.000000 -0.583745 -0.210885
v 0.047752 -0.583745 -0.210885
v -0.047753 -0.651112 -0.276531
v -0.047753 -0.583745 -0.210885
v 0.047752 -0.651112 -0.276531
v -0.000000 -0.651112 -0.276531
v -0.000000 -0.591540 -0.156670
v -0.000000 -0.625158 -0.103272
v -0.046958 -0.616835 -0.124924
v 0.046958 -0.616835 -0.124924
v 0.054538 -0.591540 -0.156670
v -0.054539 -0.591540 -0.156670
v -0.000000 -0.537149 -0.038724
vt 0.661367 0.058129
vt 0.695429 0.105210
vt 0.679406 0.157872
vt 0.604587 0.103599
vt 0.560613 0.050946
vt 0.523978 0.213202
vt 0.476139 0.195480
vt 0.144419 0.083773
vt 0.085854 0.155561
vt 0.054766 0.110420
vt 0.078715 0.056639
vt 0.671033 0.019168
vt 0.740061 0.085581
vt 0.173856 0.019168
vt 0.049676 0.019168
vt 0.747293 0.172181
vt 0.028370 0.185391
vt 0.013005 0.107956
vt 0.249811 0.169165
vt 0.150485 0.235524
vt 0.291486 0.140406
vt 0.351877 0.271232
vt 0.293754 0.286484
vt 0.511190 0.338986
vt 0.448607 0.340438
vt 0.703881 0.274749
vt 0.637965 0.253233
vt 0.092201 0.271832
vt 0.623955 0.337345
vt 0.684418 0.351484
vt 0.654492 0.463326
vt 0.608917 0.459757
vt 0.513166 0.459758
vt 0.185879 0.312349
vt 0.129145 0.342669
vt 0.190452 0.451457
vt 0.233212 0.434344
vt 0.266521 0.532872
vt 0.215866 0.547620
vt 0.322717 0.395559
vt 0.365783 0.385012
vt 0.413377 0.509854
vt 0.361942 0.522762
vt 0.468229 0.463079
vt 0.386708 0.643309
vt 0.291913 0.642170
vt 0.612411 0.564646
vt 0.663919 0.560417
vt 0.673222 0.663332
vt 0.627891 0.675167
vt 0.519922 0.589915
vt 0.467087 0.596269
vt 0.245062 0.647751
vt 0.290675 0.758193
vt 0.239922 0.755926
vt 0.427310 0.638408
vt 0.445498 0.765873
vt 0.391885 0.761616
vt 0.540427 0.710651
vt 0.500949 0.720876
vt 0.287197 0.819092
vt 0.382792 0.828984
vt 0.376039 0.865936
vt 0.335165 0.907349
vt 0.335501 0.953078
vt 0.271546 0.963306
vt 0.273167 0.915576
vt 0.671153 0.782182
vt 0.578637 0.822185
vt 0.717321 0.761623
vt 0.530491 0.845650
vt 0.395378 0.900195
vt 0.351189 0.946906
vt 0.631292 0.913067
vt 0.684237 0.936546
vt 0.683799 0.979025
vt 0.625853 0.951847
vt 0.578113 0.909459
vt 0.611581 0.881293
vt 0.424430 0.843018
vt 0.266401 0.876991
vt 0.696535 0.837329
vt 0.235943 0.808803
vt 0.740257 0.809140
vt 0.763541 0.965209
vt 0.744660 0.921590
vt 0.859661 0.930597
vt 0.168940 0.966275
vt 0.736877 0.883386
vt 0.773079 0.847840
vt 0.700578 0.979026
vt 0.219479 0.857060
vn 0.9833 -0.0489 0.1751
vn 0.0000 0.9811 -0.1934
vn -0.9833 -0.0489 0.1751
vn -0.0000 -0.5000 0.8660
vn 0.0000 0.9440 0.3299
vn -0.0000 -0.9938 0.1112
vn -0.9953 -0.0216 -0.0945
vn -0.0000 0.5436 -0.8393
vn -0.0000 -0.9922 -0.1245
vn 0.9953 -0.0216 -0.0945
vn -0.0000 -0.4788 0.8779
vn 0.9719 -0.2272 -0.0609
vn 0.0000 -0.3767 0.9263
vn 0.9987 0.0421 0.0284
vn -0.9987 0.0421 0.0284
vn -0.0000 -0.1153 0.9933
vn 0.0000 0.3657 -0.9307
vn -0.9719 -0.2272 -0.0609
vn 0.0000 0.0244 -0.9997
vn -0.9882 -0.1507 0.0273
vn -0.0000 -0.2136 0.9769
vn 0.9894 0.1445 0.0158
vn -0.9894 0.1445 0.0158
vn 0.0000 0.5503 0.8349
vn 0.0000 -0.3079 -0.9514
vn 0.0000 -0.1594 -0.9872
vn 0.9882 -0.1507 0.0273
vn -0.9954 -0.0821 0.0493
vn -0.4396 -0.6092 0.6600
vn 0.9899 0.1216 -0.0726
vn -0.9899 0.1216 -0.0726
vn -0.2887 -0.9389 0.1873
vn 0.2887 -0.9389 0.1873
vn -0.0672 -0.8073 -0.5863
vn 0.0672 -0.8073 -0.5863
vn -0.9849 -0.1647 -0.0543
vn 0.9954 -0.0821 0.0493
vn 0.9872 -0.1226 0.1021
vn 0.0000 0.5218 0.8531
vn 0.0000 -0.7738 -0.6335
vn -0.9872 -0.1226 0.1021
vn 0.4303 -0.5339 0.7279
vn -0.9220 0.1639 0.3508
vn 0.9849 -0.1647 -0.0543
vn 0.0000 0.9898 0.1423
vn 0.4396 -0.6092 0.6600
vn 0.0000 0.9081 -0.4188
vn 0.9220 0.1639 0.3508
vn -0.4303 -0.5339 0.7279
usemtl sutiramu
s off
f 1/1/1 2/2/1 4/3/1 3/4/1
f 9/5/2 3/4/2 14/6/2 15/7/2
f 7/8/3 8/9/3 6/10/3 5/11/3
f 11/12/4 12/13/4 2/2/4 1/1/4
f 9/14/5 7/8/5 5/11/5 11/15/5
f 10/16/6 4/3/6 2/2/6 12/13/6
f 8/9/6 10/17/6 12/18/6 6/10/6
f 3/4/5 9/5/5 11/12/5 1/1/5
f 5/11/4 6/10/4 12/18/4 11/15/4
f 8/9/7 7/8/7 18/19/7 17/20/7
f 18/19/8 15/21/8 21/22/8 24/23/8
f 15/7/8 14/6/8 20/24/8 21/25/8
f 4/3/9 10/16/9 16/26/9 13/27/9
f 10/17/9 8/9/9 17/20/9 16/28/9
f 3/4/10 4/3/10 13/27/10 14/6/10
f 7/8/2 9/14/2 15/21/2 18/19/2
f 19/29/11 22/30/11 28/31/11 25/32/11
f 20/24/12 19/29/12 25/32/12 26/33/12
f 16/28/13 17/20/13 23/34/13 22/35/13
f 14/6/14 13/27/14 19/29/14 20/24/14
f 13/27/13 16/26/13 22/30/13 19/29/13
f 17/20/15 18/19/15 24/23/15 23/34/15
f 28/36/16 29/37/16 35/38/16 34/39/16
f 30/40/17 27/41/17 33/42/17 36/43/17
f 23/34/18 24/23/18 30/40/18 29/37/18
f 21/25/19 20/24/19 26/33/19 27/44/19
f 24/23/19 21/22/19 27/41/19 30/40/19
f 22/35/11 23/34/11 29/37/11 28/36/11
f 35/38/20 36/43/20 42/45/20 41/46/20
f 31/47/21 34/48/21 40/49/21 37/50/21
f 26/33/22 25/32/22 31/47/22 32/51/22
f 25/32/16 28/31/16 34/48/16 31/47/16
f 29/37/23 30/40/23 36/43/23 35/38/23
f 27/44/17 26/33/17 32/51/17 33/52/17
f 40/53/24 41/46/24 47/54/24 46/55/24
f 42/45/25 39/56/25 45/57/25 48/58/25
f 33/52/26 32/51/26 38/59/26 39/60/26
f 36/43/26 33/42/26 39/56/26 42/45/26
f 34/39/21 35/38/21 41/46/21 40/53/21
f 32/51/27 31/47/27 37/50/27 38/59/27
f 58/61/28 57/62/28 54/63/28 53/64/28
f 53/64/29 52/65/29 62/66/29 63/67/29
f 38/59/30 37/50/30 43/68/30 44/69/30
f 37/50/24 40/49/24 46/70/24 43/68/24
f 41/46/31 42/45/31 48/58/31 47/54/31
f 39/60/25 38/59/25 44/69/25 45/71/25
f 51/72/32 52/73/32 53/64/32 54/63/32
f 50/74/33 49/75/33 52/76/33 51/77/33
f 60/78/34 59/79/34 50/74/34 51/77/34
f 57/62/35 60/80/35 51/72/35 54/63/35
f 58/61/36 53/64/36 63/67/36 66/81/36
f 59/79/37 56/82/37 49/75/37 50/74/37
f 44/69/38 43/68/38 56/82/38 59/79/38
f 46/55/39 47/54/39 58/61/39 55/83/39
f 48/58/40 45/57/40 60/80/40 57/62/40
f 45/71/40 44/69/40 59/79/40 60/78/40
f 43/68/39 46/70/39 55/84/39 56/82/39
f 47/54/41 48/58/41 57/62/41 58/61/41
f 62/85/42 64/86/42 67/87/42
f 66/81/43 63/67/43 67/88/43
f 49/75/44 56/82/44 65/89/44 64/86/44
f 56/82/45 55/84/45 61/90/45 65/89/45
f 52/91/46 49/75/46 64/86/46 62/85/46
f 55/83/45 58/61/45 66/81/45 61/92/45
f 61/92/47 66/81/47 67/88/47
f 64/86/48 65/89/48 67/87/48
f 63/67/49 62/66/49 67/88/49
f 65/89/47 61/90/47 67/87/47
