# Blender v2.79 (sub 0) OBJ File: 'clinkscythe.blend'
# www.blender.org
mtllib clinkscythe.mtl
o Base
v 0.095936 0.067852 -0.030884
v 0.092122 -0.071272 -0.029453
v -0.093684 0.070026 -0.031135
v -0.097498 -0.069098 -0.029704
v 0.121051 0.096950 0.168270
v 0.112124 -0.062800 0.168655
v -0.057999 0.107107 0.231022
v -0.066926 -0.052644 0.231407
v 0.187028 0.093718 0.357046
v 0.178102 -0.066033 0.357431
v 0.007978 0.103874 0.419799
v -0.000949 -0.055876 0.420183
v -0.278920 0.092749 0.188863
v -0.273082 -0.066934 0.197070
v -0.331255 0.100748 0.381728
v -0.325416 -0.058935 0.389936
v 0.396842 0.088350 0.107876
v 0.387916 -0.071400 0.108261
v 0.469739 0.077681 0.257964
v 0.460813 -0.082069 0.258349
v 0.728428 -0.035114 -0.083655
v -0.713960 -0.050303 -0.048287
vt 0.317444 0.986101
vt 0.314729 0.921763
vt 0.459375 0.914202
vt 0.462090 0.978540
vt 0.620411 0.781119
vt 0.518590 0.748549
vt 0.484314 0.855742
vt 0.586135 0.888312
vt 0.521494 0.842523
vt 0.521041 0.889535
vt 0.439587 0.897611
vt 0.440815 0.843611
vt 0.742972 0.755975
vt 0.774557 0.863989
vt 0.584396 0.889269
vt 0.619352 0.782296
vt 0.325243 0.896153
vt 0.326471 0.842152
vt 0.517740 0.749080
vt 0.528730 0.635894
vt 0.635318 0.633335
vt 0.788849 0.841059
vt 0.795495 0.894862
vt 0.704902 0.903176
vt 0.704694 0.849161
vt 0.550984 0.909413
vt 0.553699 0.973751
vt 0.633065 0.633558
vt 0.526494 0.636729
vt 0.482784 0.856053
vt 0.715598 0.909414
vt 0.710843 0.973869
vt 0.322326 0.803666
vt 0.361875 0.718310
vt 0.767954 0.866446
vt 0.735697 0.758632
vt 0.597770 0.890898
vt 0.598223 0.843886
vt 0.362533 0.718769
vt 0.323526 0.804374
vt 0.168751 0.855949
vt 0.168783 0.614641
vt 0.163246 0.613733
vt 0.107897 0.970940
vt 0.989645 0.613733
vt 0.980480 0.614641
vt 0.993262 0.841060
vt 0.993425 0.964125
vn 0.3299 -0.0162 0.9439
vn -0.0558 -0.9984 0.0024
vn 0.9931 -0.0430 -0.1087
vn -0.0296 0.9995 -0.0114
vn -0.2136 0.0096 -0.9769
vn 0.0088 0.9897 -0.1431
vn 0.1781 -0.0282 -0.9836
vn -0.0238 -0.9981 0.0568
vn 0.0558 0.9984 -0.0024
vn -0.1026 0.0277 0.9943
vn 0.0499 0.9985 0.0205
vn 0.0313 -0.9994 0.0114
vn -0.9917 0.0430 0.1212
vn -0.0499 -0.9985 -0.0205
vn -0.4929 0.0254 -0.8697
vn 0.0519 -0.9940 -0.0959
vn 0.3062 0.9485 -0.0813
vn 0.7897 -0.0427 0.6121
vn -0.2562 0.9604 -0.1094
vn -0.0527 -0.9982 0.0271
vn 0.4853 -0.0272 -0.8739
vn -0.7482 0.0067 0.6635
vn 0.0012 -0.0103 -0.9999
usemtl Material
s off
f 20/1/1 19/2/1 9/3/1 10/4/1
f 8/5/2 6/6/2 10/7/2 12/8/2
f 2/9/3 1/10/3 5/11/3 6/12/3
f 13/13/4 15/14/4 11/15/4 7/16/4
f 17/17/5 18/18/5 6/12/5 5/11/5
f 7/16/6 5/19/6 1/20/6 3/21/6
f 14/22/7 13/23/7 7/24/7 8/25/7
f 11/26/1 12/27/1 10/4/1 9/3/1
f 4/28/8 2/29/8 6/6/8 8/5/8
f 11/15/9 9/30/9 5/19/9 7/16/9
f 15/31/10 16/32/10 12/27/10 11/26/10
f 19/33/11 17/34/11 5/19/11 9/30/11
f 8/5/12 12/8/12 16/35/12 14/36/12
f 8/25/13 7/24/13 3/37/13 4/38/13
f 10/7/14 6/6/14 18/39/14 20/40/14
f 17/17/15 21/41/15 18/18/15
f 18/39/16 21/42/16 20/40/16
f 19/33/17 21/43/17 17/34/17
f 20/1/18 21/44/18 19/2/18
f 13/13/19 22/45/19 15/14/19
f 16/35/20 22/46/20 14/36/20
f 14/22/21 22/47/21 13/23/21
f 15/31/22 22/48/22 16/32/22
f 3/37/23 1/10/23 2/9/23 4/38/23
