# Blender v2.79 (sub 0) OBJ File: 'bansheeeye.blend'
# www.blender.org
mtllib bansheeeye.mtl
o Base
v -0.150208 -0.061850 -0.061850
v 0.061850 -0.150208 -0.061850
v 0.150208 0.061850 -0.061850
v -0.061850 0.150208 -0.061850
v 0.061850 0.061850 0.150208
v -0.061850 0.061850 -0.150208
v 0.061850 0.061850 -0.150208
v -0.061850 0.061850 0.150208
v 0.061850 0.150208 -0.061850
v -0.061850 -0.150208 -0.061850
v -0.061850 -0.061850 0.150208
v 0.061850 -0.061850 -0.150208
v -0.061850 -0.061850 -0.150208
v 0.061850 -0.061850 0.150208
v 0.150208 -0.061850 -0.061850
v -0.150208 0.061850 -0.061850
v -0.150208 0.061850 0.061850
v 0.150208 -0.061850 0.061850
v -0.061850 -0.150208 0.061850
v 0.061850 0.150208 0.061850
v -0.061850 0.150208 0.061850
v 0.150208 0.061850 0.061850
v 0.061850 -0.150208 0.061850
v -0.150208 -0.061850 0.061850
v -0.114865 0.056393 0.114865
v -0.114865 0.114865 -0.056393
v -0.114865 -0.056393 -0.114865
v -0.114865 -0.114865 0.056393
v -0.056393 -0.114865 0.114865
v 0.056393 -0.114865 -0.114865
v 0.114865 -0.114865 0.056393
v 0.114865 -0.056393 0.114865
v 0.114865 0.056393 -0.114865
v 0.114865 0.114865 0.056393
v 0.056393 0.114865 0.114865
v -0.056393 0.114865 -0.114865
v 0.056393 -0.114865 0.114865
v -0.056393 -0.114865 -0.114865
v -0.056393 0.114865 0.114865
v 0.056393 0.114865 -0.114865
v 0.000000 0.067308 -0.163461
v -0.000000 0.067308 0.163461
v -0.000000 0.163461 0.067308
v -0.000000 -0.163461 0.067308
v -0.114865 -0.056393 0.114865
v -0.114865 0.056393 -0.114865
v 0.114865 0.056393 0.114865
v 0.114865 -0.056393 -0.114865
v 0.000000 -0.067308 -0.163461
v -0.000000 -0.067308 0.163461
v -0.067308 0.000000 0.163461
v 0.067308 -0.000000 -0.163461
v -0.067308 -0.000000 -0.163461
v 0.067308 0.000000 0.163461
v 0.163461 -0.000000 0.067308
v -0.163461 0.000000 0.067308
v -0.114865 0.114865 0.056393
v -0.114865 -0.114865 -0.056393
v 0.114865 -0.114865 -0.056393
v 0.114865 0.114865 -0.056393
v 0.000000 0.163461 -0.067308
v -0.000000 -0.163461 -0.067308
v 0.163461 -0.000000 -0.067308
v -0.163461 0.000000 -0.067308
v -0.163461 0.067308 -0.000000
v 0.163461 -0.067308 0.000000
v -0.067308 -0.163461 0.000000
v 0.067308 0.163461 -0.000000
v -0.067308 0.163461 -0.000000
v 0.163461 0.067308 -0.000000
v 0.067308 -0.163461 0.000000
v -0.163461 -0.067308 0.000000
v -0.096731 0.096731 0.096731
v -0.096731 0.096731 -0.096731
v -0.096731 -0.096731 0.096731
v -0.096731 -0.096731 -0.096731
v 0.096731 0.096731 0.096731
v 0.096731 0.096731 -0.096731
v 0.096731 -0.096731 0.096731
v 0.096731 -0.096731 -0.096731
v -0.000000 -0.125000 0.125000
v -0.000000 -0.125000 -0.125000
v 0.000000 0.125000 0.125000
v 0.000000 0.125000 -0.125000
v -0.125000 0.000000 0.125000
v -0.125000 -0.000000 -0.125000
v 0.125000 0.000000 0.125000
v 0.125000 -0.000000 -0.125000
v -0.000000 -0.000000 -0.177884
v 0.000000 0.000000 0.177884
v -0.125000 0.125000 -0.000000
v -0.125000 -0.125000 0.000000
v 0.125000 -0.125000 0.000000
v 0.125000 0.125000 -0.000000
v 0.000000 0.177884 -0.000000
v -0.000000 -0.177884 0.000000
v 0.177884 -0.000000 -0.000000
v -0.177884 0.000000 0.000000
vt 0.857464 0.375822
vt 0.864670 0.305502
vt 0.959684 0.304590
vt 0.935863 0.409102
vt 0.876986 0.494114
vt 0.822750 0.440909
vt 0.785556 0.404422
vt 0.793917 0.358584
vt 0.796089 0.306160
vt 0.636024 0.358628
vt 0.633354 0.307722
vt 0.686462 0.307213
vt 0.686972 0.360321
vt 0.687514 0.416839
vt 0.635091 0.414667
vt 0.589253 0.406307
vt 0.580013 0.360637
vt 0.576836 0.308265
vt 0.221457 0.867861
vt 0.291679 0.875963
vt 0.291380 0.970981
vt 0.187180 0.945830
vt 0.102925 0.885875
vt 0.156817 0.832321
vt 0.193775 0.795595
vt 0.239503 0.804539
vt 0.291894 0.807379
vt 0.241470 0.646659
vt 0.292406 0.644637
vt 0.292239 0.697748
vt 0.239129 0.697581
vt 0.182608 0.697403
vt 0.185447 0.645011
vt 0.194392 0.599283
vt 0.240175 0.590627
vt 0.292584 0.588117
vt 0.462353 0.768530
vt 0.470455 0.698308
vt 0.565473 0.698606
vt 0.540322 0.802807
vt 0.480366 0.887061
vt 0.426812 0.833169
vt 0.390086 0.796212
vt 0.399031 0.750484
vt 0.401870 0.698092
vt 0.122125 0.626965
vt 0.114024 0.697187
vt 0.019006 0.696889
vt 0.044157 0.592688
vt 0.104112 0.508434
vt 0.157666 0.562326
vt 0.121684 0.767459
vt 0.043501 0.801245
vt 0.185118 0.749812
vt 0.462794 0.628036
vt 0.427661 0.563174
vt 0.481553 0.509620
vt 0.540977 0.594250
vt 0.399360 0.645683
vt 0.390703 0.599900
vt 0.241150 0.748516
vt 0.292072 0.750858
vt 0.737878 0.357651
vt 0.739570 0.306703
vt 0.739887 0.413662
vt 0.755071 0.136211
vt 0.820158 0.170925
vt 0.783672 0.208119
vt 0.737834 0.199758
vt 0.685410 0.197586
vt 0.684751 0.129004
vt 0.683839 0.033990
vt 0.788352 0.057811
vt 0.873363 0.116688
vt 0.617853 0.478214
vt 0.552766 0.443500
vt 0.688173 0.485421
vt 0.689085 0.580435
vt 0.584572 0.556614
vt 0.499561 0.497737
vt 0.758341 0.476866
vt 0.793121 0.554612
vt 0.614583 0.137559
vt 0.633037 0.200764
vt 0.587368 0.210003
vt 0.550174 0.173516
vt 0.495938 0.120311
vt 0.579803 0.059813
vt 0.516809 0.379091
vt 0.508254 0.308923
vt 0.439063 0.413871
vt 0.413240 0.309835
vt 0.222528 0.527192
vt 0.292799 0.519532
vt 0.188741 0.449010
vt 0.293098 0.424514
vt 0.363021 0.527634
vt 0.344976 0.590956
vt 0.397298 0.449665
vt 0.515460 0.238604
vt 0.579007 0.255841
vt 0.437061 0.205323
vt 0.736900 0.255797
vt 0.792911 0.253788
vt 0.685952 0.254104
vt 0.343008 0.748837
vt 0.344303 0.804869
vt 0.345349 0.697915
vt 0.343328 0.646979
vt 0.361950 0.868303
vt 0.395737 0.946486
vt 0.635046 0.256775
vt 0.856115 0.235334
vt 0.933861 0.200554
vn -0.9534 -0.2133 -0.2133
vn -0.8042 -0.2313 -0.5475
vn -0.6780 -0.5197 -0.5197
vn -0.8042 -0.5475 -0.2313
vn 0.2133 -0.9534 -0.2133
vn 0.2313 -0.8042 -0.5475
vn 0.5197 -0.6780 -0.5197
vn 0.5475 -0.8042 -0.2313
vn 0.9534 0.2133 -0.2133
vn 0.8042 0.2313 -0.5475
vn 0.6780 0.5197 -0.5197
vn 0.8042 0.5475 -0.2313
vn -0.2133 0.9534 -0.2133
vn -0.2313 0.8042 -0.5475
vn -0.5197 0.6780 -0.5197
vn -0.5475 0.8042 -0.2313
vn 0.2133 0.2133 0.9534
vn 0.5475 0.2313 0.8042
vn 0.5197 0.5197 0.6780
vn 0.2313 0.5475 0.8042
vn -0.2133 0.2133 -0.9534
vn -0.5475 0.2313 -0.8042
vn -0.5197 0.5197 -0.6780
vn -0.2313 0.5475 -0.8042
vn 0.5475 0.2313 -0.8042
vn 0.2133 0.2133 -0.9534
vn 0.2313 0.5475 -0.8042
vn 0.5197 0.5197 -0.6780
vn -0.5475 0.2313 0.8042
vn -0.2133 0.2133 0.9534
vn -0.2313 0.5475 0.8042
vn -0.5197 0.5197 0.6780
vn 0.5475 0.8042 -0.2313
vn 0.5197 0.6780 -0.5197
vn 0.2313 0.8042 -0.5475
vn 0.2133 0.9534 -0.2133
vn -0.5475 -0.8042 -0.2313
vn -0.5197 -0.6780 -0.5197
vn -0.2313 -0.8042 -0.5475
vn -0.2133 -0.9534 -0.2133
vn -0.5197 -0.5197 0.6780
vn -0.2313 -0.5475 0.8042
vn -0.2133 -0.2133 0.9534
vn -0.5475 -0.2313 0.8042
vn 0.5197 -0.5197 -0.6780
vn 0.2313 -0.5475 -0.8042
vn 0.2133 -0.2133 -0.9534
vn 0.5475 -0.2313 -0.8042
vn -0.2313 -0.5475 -0.8042
vn -0.5197 -0.5197 -0.6780
vn -0.5475 -0.2313 -0.8042
vn -0.2133 -0.2133 -0.9534
vn 0.2313 -0.5475 0.8042
vn 0.5197 -0.5197 0.6780
vn 0.5475 -0.2313 0.8042
vn 0.2133 -0.2133 0.9534
vn 0.8042 -0.5475 -0.2313
vn 0.6780 -0.5197 -0.5197
vn 0.8042 -0.2313 -0.5475
vn 0.9534 -0.2133 -0.2133
vn -0.8042 0.5475 -0.2313
vn -0.6780 0.5197 -0.5197
vn -0.8042 0.2313 -0.5475
vn -0.9534 0.2133 -0.2133
vn -0.6780 0.5197 0.5197
vn -0.8042 0.5475 0.2313
vn -0.9534 0.2133 0.2133
vn -0.8042 0.2313 0.5475
vn 0.6780 -0.5197 0.5197
vn 0.8042 -0.5475 0.2313
vn 0.9534 -0.2133 0.2133
vn 0.8042 -0.2313 0.5475
vn -0.5197 -0.6780 0.5197
vn -0.5475 -0.8042 0.2313
vn -0.2133 -0.9534 0.2133
vn -0.2313 -0.8042 0.5475
vn 0.5197 0.6780 0.5197
vn 0.5475 0.8042 0.2313
vn 0.2133 0.9534 0.2133
vn 0.2313 0.8042 0.5475
vn -0.2313 0.8042 0.5475
vn -0.2133 0.9534 0.2133
vn -0.5475 0.8042 0.2313
vn -0.5197 0.6780 0.5197
vn 0.8042 0.2313 0.5475
vn 0.9534 0.2133 0.2133
vn 0.8042 0.5475 0.2313
vn 0.6780 0.5197 0.5197
vn 0.2313 -0.8042 0.5475
vn 0.2133 -0.9534 0.2133
vn 0.5475 -0.8042 0.2313
vn 0.5197 -0.6780 0.5197
vn -0.8042 -0.2313 0.5475
vn -0.9534 -0.2133 0.2133
vn -0.8042 -0.5475 0.2313
vn -0.6780 -0.5197 0.5197
usemtl banshee_eye
s off
f 1/1/1 72/2/1 98/3/1 64/4/1
f 1/1/2 64/4/2 86/5/2 27/6/2
f 1/1/3 27/6/3 76/7/3 58/8/3
f 1/1/4 58/8/4 92/9/4 72/2/4
f 2/10/5 71/11/5 96/12/5 62/13/5
f 2/10/6 62/13/6 82/14/6 30/15/6
f 2/10/7 30/15/7 80/16/7 59/17/7
f 2/10/8 59/17/8 93/18/8 71/11/8
f 3/19/9 70/20/9 97/21/9 63/22/9
f 3/19/10 63/22/10 88/23/10 33/24/10
f 3/19/11 33/24/11 78/25/11 60/26/11
f 3/19/12 60/26/12 94/27/12 70/20/12
f 4/28/13 69/29/13 95/30/13 61/31/13
f 4/28/14 61/31/14 84/32/14 36/33/14
f 4/28/15 36/33/15 74/34/15 26/35/15
f 4/28/16 26/35/16 91/36/16 69/29/16
f 5/37/17 42/38/17 90/39/17 54/40/17
f 5/37/18 54/40/18 87/41/18 47/42/18
f 5/37/19 47/42/19 77/43/19 35/44/19
f 5/37/20 35/44/20 83/45/20 42/38/20
f 6/46/21 41/47/21 89/48/21 53/49/21
f 6/46/22 53/49/22 86/50/22 46/51/22
f 6/46/23 46/51/23 74/34/23 36/33/23
f 6/46/24 36/33/24 84/32/24 41/47/24
f 7/52/25 33/24/25 88/23/25 52/53/25
f 7/52/26 52/53/26 89/48/26 41/47/26
f 7/52/27 41/47/27 84/32/27 40/54/27
f 7/52/28 40/54/28 78/25/28 33/24/28
f 8/55/29 25/56/29 85/57/29 51/58/29
f 8/55/30 51/58/30 90/39/30 42/38/30
f 8/55/31 42/38/31 83/45/31 39/59/31
f 8/55/32 39/59/32 73/60/32 25/56/32
f 9/61/33 68/62/33 94/27/33 60/26/33
f 9/61/34 60/26/34 78/25/34 40/54/34
f 9/61/35 40/54/35 84/32/35 61/31/35
f 9/61/36 61/31/36 95/30/36 68/62/36
f 10/63/37 67/64/37 92/9/37 58/8/37
f 10/63/38 58/8/38 76/7/38 38/65/38
f 10/63/39 38/65/39 82/14/39 62/13/39
f 10/63/40 62/13/40 96/12/40 67/64/40
f 11/66/41 45/67/41 75/68/41 29/69/41
f 11/66/42 29/69/42 81/70/42 50/71/42
f 11/66/43 50/71/43 90/72/43 51/73/43
f 11/66/44 51/73/44 85/74/44 45/67/44
f 12/75/45 48/76/45 80/16/45 30/15/45
f 12/75/46 30/15/46 82/14/46 49/77/46
f 12/75/47 49/77/47 89/78/47 52/79/47
f 12/75/48 52/79/48 88/80/48 48/76/48
f 13/81/49 49/77/49 82/14/49 38/65/49
f 13/81/50 38/65/50 76/7/50 27/6/50
f 13/81/51 27/6/51 86/5/51 53/82/51
f 13/81/52 53/82/52 89/78/52 49/77/52
f 14/83/53 50/71/53 81/70/53 37/84/53
f 14/83/54 37/84/54 79/85/54 32/86/54
f 14/83/55 32/86/55 87/87/55 54/88/55
f 14/83/56 54/88/56 90/72/56 50/71/56
f 15/89/57 66/90/57 93/18/57 59/17/57
f 15/89/58 59/17/58 80/16/58 48/76/58
f 15/89/59 48/76/59 88/80/59 63/91/59
f 15/89/60 63/91/60 97/92/60 66/90/60
f 16/93/61 65/94/61 91/36/61 26/35/61
f 16/93/62 26/35/62 74/34/62 46/51/62
f 16/93/63 46/51/63 86/50/63 64/95/63
f 16/93/64 64/95/64 98/96/64 65/94/64
f 17/97/65 25/56/65 73/60/65 57/98/65
f 17/97/66 57/98/66 91/36/66 65/94/66
f 17/97/67 65/94/67 98/96/67 56/99/67
f 17/97/68 56/99/68 85/57/68 25/56/68
f 18/100/69 32/86/69 79/85/69 31/101/69
f 18/100/70 31/101/70 93/18/70 66/90/70
f 18/100/71 66/90/71 97/92/71 55/102/71
f 18/100/72 55/102/72 87/87/72 32/86/72
f 19/103/73 29/69/73 75/68/73 28/104/73
f 19/103/74 28/104/74 92/9/74 67/64/74
f 19/103/75 67/64/75 96/12/75 44/105/75
f 19/103/76 44/105/76 81/70/76 29/69/76
f 20/106/77 35/44/77 77/43/77 34/107/77
f 20/106/78 34/107/78 94/27/78 68/62/78
f 20/106/79 68/62/79 95/30/79 43/108/79
f 20/106/80 43/108/80 83/45/80 35/44/80
f 21/109/81 39/59/81 83/45/81 43/108/81
f 21/109/82 43/108/82 95/30/82 69/29/82
f 21/109/83 69/29/83 91/36/83 57/98/83
f 21/109/84 57/98/84 73/60/84 39/59/84
f 22/110/85 47/42/85 87/41/85 55/111/85
f 22/110/86 55/111/86 97/21/86 70/20/86
f 22/110/87 70/20/87 94/27/87 34/107/87
f 22/110/88 34/107/88 77/43/88 47/42/88
f 23/112/89 37/84/89 81/70/89 44/105/89
f 23/112/90 44/105/90 96/12/90 71/11/90
f 23/112/91 71/11/91 93/18/91 31/101/91
f 23/112/92 31/101/92 79/85/92 37/84/92
f 24/113/93 45/67/93 85/74/93 56/114/93
f 24/113/94 56/114/94 98/3/94 72/2/94
f 24/113/95 72/2/95 92/9/95 28/104/95
f 24/113/96 28/104/96 75/68/96 45/67/96
