# Blender v2.79 (sub 0) OBJ File: 'geonachfist.blend'
# www.blender.org
mtllib geonachfist.mtl
o Base
v -0.105000 -0.105000 0.240000
v -0.105000 0.105000 0.240000
v -0.150000 -0.150000 0.090000
v -0.150000 0.150000 0.090000
v 0.105000 -0.105000 0.240000
v 0.105000 0.105000 0.240000
v 0.150000 -0.150000 0.090000
v 0.150000 0.150000 0.090000
v -0.073500 -0.072383 0.427237
v -0.073500 0.072383 0.452763
v 0.073500 0.072383 0.452763
v 0.073500 -0.072383 0.427237
v -0.105000 0.104600 -0.019151
v -0.105000 -0.104600 -0.000849
v 0.105000 -0.104600 -0.000849
v 0.105000 0.104600 -0.019151
v 0.000000 -0.165000 0.080000
v 0.000000 0.165000 0.080000
v 0.000000 -0.115500 0.245000
v 0.000000 0.115500 0.245000
v 0.000000 -0.079622 0.450961
v 0.000000 0.079622 0.479039
v 0.000000 -0.115061 -0.019934
v 0.000000 0.115061 -0.040067
vt 0.254167 0.331103
vt 0.265329 0.125259
vt 0.414205 0.149466
vt 0.380109 0.337995
vt 0.398863 0.852471
vt 0.393275 0.661954
vt 0.474381 0.678605
vt 0.486709 0.836021
vt 0.267824 0.862225
vt 0.246694 0.657656
vt 0.205420 0.535355
vt 0.086099 0.712280
vt 0.000109 0.681415
vt 0.450125 0.498651
vt 0.478692 0.000109
vt 0.242729 0.000109
vt 0.003939 0.305036
vt 0.000109 0.114400
vt 0.074278 0.153836
vt 0.089005 0.273873
vt 0.073082 0.832032
vt 0.588180 0.614051
vt 0.586049 0.890967
vt 0.422034 0.498433
vt 0.463939 0.330508
vt 0.566432 0.406262
vt 0.448640 0.999891
vt 0.498189 0.175707
vt 0.605864 0.132585
vt 0.237719 0.980467
vt 0.000109 0.871540
vt 0.206192 0.445512
vn -0.9578 0.0000 0.2873
vn 0.9118 -0.0147 -0.4103
vn 0.9578 0.0000 0.2873
vn 0.1259 -0.9756 0.1800
vn 0.0892 -0.9504 0.2979
vn -0.0892 0.9504 0.2979
vn -0.3176 -0.1647 0.9338
vn -0.1252 0.9793 0.1590
vn 0.9878 -0.0112 0.1556
vn -0.9878 -0.0112 0.1556
vn 0.1864 -0.0856 -0.9787
vn -0.1405 -0.8720 -0.4689
vn 0.1392 0.9043 -0.4035
vn -0.9118 -0.0147 -0.4103
vn -0.1392 0.9043 -0.4035
vn 0.1405 -0.8720 -0.4689
vn -0.1864 -0.0856 -0.9787
vn 0.1252 0.9793 0.1590
vn 0.3176 -0.1647 0.9338
vn 0.0892 0.9504 0.2979
vn -0.0892 -0.9504 0.2979
vn -0.1259 -0.9756 0.1800
usemtl geonachfist
s off
f 1/1/1 2/2/1 4/3/1 3/4/1
f 8/5/2 7/6/2 15/7/2 16/8/2
f 7/6/3 8/5/3 6/9/3 5/10/3
f 19/11/4 5/10/4 12/12/4 21/13/4
f 17/14/5 7/6/5 5/10/5 19/11/5
f 18/15/6 4/3/6 2/2/6 20/16/6
f 21/17/7 22/18/7 10/19/7 9/20/7
f 20/16/8 2/2/8 10/19/8 22/18/8
f 5/10/9 6/9/9 11/21/9 12/12/9
f 2/2/10 1/1/10 9/20/10 10/19/10
f 23/22/11 24/23/11 16/8/11 15/7/11
f 17/24/12 3/4/12 14/25/12 23/26/12
f 18/27/13 8/5/13 16/8/13 24/23/13
f 3/4/14 4/3/14 13/28/14 14/25/14
f 4/3/15 18/15/15 24/29/15 13/28/15
f 7/6/16 17/14/16 23/22/16 15/7/16
f 14/25/17 13/28/17 24/29/17 23/26/17
f 6/9/18 20/30/18 22/31/18 11/21/18
f 12/12/19 11/21/19 22/31/19 21/13/19
f 8/5/20 18/27/20 20/30/20 6/9/20
f 3/4/21 17/24/21 19/32/21 1/1/21
f 1/1/22 19/32/22 21/17/22 9/20/22
