# Blender v2.79 (sub 0) OBJ File: 'woodenrod.blend'
# www.blender.org
mtllib woodenrod.mtl
o Base
v -0.042000 -0.042000 0.400000
v -0.042000 0.042000 0.400000
v -0.042000 -0.042000 -0.300000
v -0.042000 0.042000 -0.300000
v 0.042000 -0.042000 0.400000
v 0.042000 0.042000 0.400000
v 0.042000 -0.042000 -0.300000
v 0.042000 0.042000 -0.300000
v 0.000000 -0.060000 -0.300000
v 0.000000 0.060000 -0.300000
v 0.000000 -0.060000 0.400000
v 0.000000 0.060000 0.400000
v -0.060000 0.000000 0.400000
v -0.060000 0.000000 -0.300000
v 0.060000 0.000000 -0.300000
v 0.060000 0.000000 0.400000
v 0.000000 0.000000 0.450000
v 0.000000 0.000000 -0.350000
vt 0.000086 0.274207
vt 0.000086 0.228520
vt 0.999914 0.228520
vt 0.999914 0.274207
vt 0.064151 0.429817
vt 0.036994 0.365752
vt 0.090071 0.365752
vt 0.128215 0.402661
vt 0.999914 0.091460
vt 0.999914 0.137146
vt 0.000086 0.137147
vt 0.000086 0.091460
vt 0.192452 0.429817
vt 0.219608 0.493882
vt 0.166531 0.493881
vt 0.128387 0.456973
vt 0.999914 0.000086
vt 0.999914 0.045773
vt 0.000086 0.045773
vt 0.000086 0.000086
vt 0.999914 0.182833
vt 0.000086 0.182833
vt 0.999914 0.319893
vt 0.999914 0.365580
vt 0.000086 0.365580
vt 0.000086 0.319894
vt 0.256516 0.402661
vt 0.256516 0.455738
vt 0.000086 0.456973
vt 0.000086 0.403896
vt 0.038230 0.493882
vt 0.091307 0.493882
vt 0.218373 0.365752
vt 0.165296 0.365752
vt 0.128387 0.403896
vt 0.128215 0.455738
vn -0.9191 0.3939 0.0000
vn 0.4554 0.4554 -0.7650
vn 0.9191 0.3939 0.0000
vn -0.4554 0.4554 0.7650
vn 0.3939 -0.9191 0.0000
vn -0.3939 0.9191 0.0000
vn 0.3939 0.9191 0.0000
vn -0.3939 -0.9191 0.0000
vn 0.4554 0.4554 0.7650
vn -0.4554 0.4554 -0.7650
vn -0.4554 -0.4554 -0.7650
vn 0.4554 -0.4554 0.7650
vn -0.4554 -0.4554 0.7650
vn 0.9191 -0.3939 0.0000
vn 0.4554 -0.4554 -0.7650
vn -0.9191 -0.3939 0.0000
usemtl WoodenRod
s off
f 13/1/1 2/2/1 4/3/1 14/4/1
f 18/5/2 10/6/2 8/7/2 15/8/2
f 15/9/3 8/10/3 6/11/3 16/12/3
f 17/13/4 12/14/4 2/15/4 13/16/4
f 9/17/5 7/18/5 5/19/5 11/20/5
f 10/21/6 4/3/6 2/2/6 12/22/6
f 8/10/7 10/21/7 12/22/7 6/11/7
f 3/23/8 9/24/8 11/25/8 1/26/8
f 16/27/9 6/28/9 12/14/9 17/13/9
f 14/29/10 4/30/10 10/6/10 18/5/10
f 3/31/11 14/29/11 18/5/11 9/32/11
f 5/33/12 16/27/12 17/13/12 11/34/12
f 11/34/13 17/13/13 13/16/13 1/35/13
f 7/18/14 15/9/14 16/12/14 5/19/14
f 9/32/15 18/5/15 15/8/15 7/36/15
f 1/26/16 13/1/16 14/4/16 3/23/16
