# Blender v2.79 (sub 0) OBJ File: 'remobrawing.blend'
# www.blender.org
mtllib remobrawing.mtl
o Base
v -0.077583 -0.029992 0.087975
v -0.077609 0.030008 0.088006
v -0.240994 0.029976 0.010996
v -0.240968 -0.030024 0.010965
v -0.032583 -0.029932 0.010033
v -0.032609 0.030068 0.010064
v -0.210994 0.030017 -0.040965
v -0.210968 -0.029983 -0.040996
v 0.272225 -0.029836 0.082090
v 0.317225 -0.029776 0.004148
v 0.272198 0.030164 0.082121
v 0.317198 0.030224 0.004179
v 0.555705 0.029969 0.694367
v 0.555731 -0.030031 0.694336
v 0.579025 -0.029976 0.607402
v 0.578999 0.030024 0.607434
v -0.077596 0.000008 0.087990
v -0.240981 -0.000024 0.010981
v -0.049813 0.000068 -0.005328
v -0.210427 0.000014 -0.037552
v 0.321953 0.000234 -0.011582
v 0.272211 0.000164 0.082106
v 0.575431 -0.000037 0.721930
v 0.600187 0.000022 0.629540
v -0.049182 -0.000176 0.465128
v 0.254038 -0.000377 1.104952
v -0.398990 -0.000332 0.471013
v -0.485240 -0.000282 0.302078
vt 0.178013 0.722129
vt 0.412527 0.977266
vt 0.406767 0.999645
vt 0.157532 0.728493
vt 0.036842 0.577906
vt 0.036842 0.155200
vt 0.191886 0.072915
vt 0.191886 0.629107
vt 0.426400 0.328052
vt 0.426400 0.884244
vt 0.961787 0.652267
vt 0.997670 0.555837
vt 0.968529 0.570814
vt 0.934765 0.661548
vt 0.426400 0.878672
vt 0.191886 0.623536
vt 0.968529 0.559671
vt 0.934765 0.650406
vt 0.412527 0.988409
vt 0.426400 0.889815
vt 0.036842 0.572334
vt 0.036842 0.583477
vt 0.191886 0.634679
vt 0.178013 0.733272
vt 0.997671 -0.000355
vt -0.002329 0.639150
vt 0.027594 0.649206
vt 0.027594 0.638063
vn -0.0151 0.4633 -0.8861
vn -0.0004 1.0000 0.0005
vn 0.7281 -0.6573 0.1947
vn 0.7275 0.6577 0.1954
vn 0.8646 0.3342 -0.3751
vn 0.8649 -0.3331 -0.3755
vn -0.9074 -0.0006 0.4202
vn -0.8862 0.1956 0.4200
vn -0.8860 -0.1968 0.4198
vn -0.4264 -0.0007 0.9046
vn -0.0147 -0.4624 -0.8866
vn -0.8438 0.0762 -0.5312
vn -0.8660 -0.0001 -0.5000
vn -0.8438 -0.0764 -0.5313
vn 0.1956 -0.1072 -0.9748
vn 0.2607 0.3182 -0.9115
vn 0.1955 0.1084 -0.9747
vn 0.2609 -0.3170 -0.9118
vn 0.0168 -0.0005 0.9999
vn 0.0004 -1.0000 -0.0005
usemtl Material
s off
f 6/1/1 12/2/1 21/3/1 19/4/1
f 18/5/2 28/6/2 27/7/2
f 17/8/2 25/9/2 22/10/2
f 24/11/3 23/12/3 14/13/3 15/14/3
f 11/15/2 12/2/2 6/1/2 2/16/2
f 13/17/4 23/12/4 24/11/4 16/18/4
f 21/3/5 12/2/5 16/18/5
f 21/3/5 16/18/5 24/11/5
f 10/19/6 21/3/6 15/14/6
f 21/3/6 24/11/6 15/14/6
f 22/10/7 9/20/7 14/13/7
f 22/10/8 14/13/8 23/12/8
f 11/15/7 22/10/7 13/17/7
f 22/10/9 23/12/9 13/17/9
f 2/16/10 3/21/10 18/5/10 17/8/10
f 17/8/10 18/5/10 4/22/10 1/23/10
f 21/3/11 10/19/11 5/24/11 19/4/11
f 25/9/2 26/25/2 23/12/2 22/10/2
f 20/26/12 8/27/12 18/5/12
f 8/27/13 4/22/13 18/5/13
f 7/28/14 20/26/14 18/5/14
f 7/28/13 18/5/13 3/21/13
f 20/26/15 7/28/15 19/4/15
f 7/28/16 6/1/16 19/4/16
f 8/27/17 20/26/17 19/4/17
f 8/27/18 19/4/18 5/24/18
f 22/10/19 11/15/19 2/16/19 17/8/19
f 7/28/2 3/21/2 2/16/2 6/1/2
f 9/20/20 10/19/20 15/14/20
f 9/20/20 15/14/20 14/13/20
f 12/2/2 11/15/2 16/18/2
f 11/15/2 13/17/2 16/18/2
f 5/24/20 10/19/20 9/20/20 1/23/20
f 27/7/2 25/9/2 17/8/2 18/5/2
f 1/23/20 4/22/20 8/27/20 5/24/20
f 9/20/19 22/10/19 17/8/19 1/23/19
