# Blender v2.80 (sub 75) OBJ File: ''
# www.blender.org
mtllib arixbrain.mtl
o arixbrain
v -0.146894 -0.100130 0.496244
v -0.128670 -0.160024 0.445956
v -0.094200 -0.160004 0.474972
v -0.093127 -0.106374 0.543395
v -0.004824 -0.180905 0.498077
v -0.003052 -0.100059 0.552798
v -0.006803 -0.215474 0.436993
v -0.086784 0.067349 0.573850
v -0.087108 -0.006706 0.576296
v -0.002140 -0.008326 0.580976
v -0.002125 0.068798 0.583198
v -0.096434 0.011795 0.294074
v -0.096179 0.111071 0.294879
v -0.056982 0.098719 0.243623
v -0.166653 -0.001336 0.519462
v -0.127874 0.118647 0.334395
v -0.156329 0.022068 0.341569
v -0.192819 0.012106 0.423712
v -0.164087 0.123307 0.430426
v -0.008581 -0.214258 0.382091
v -0.078682 -0.208759 0.382995
v -0.009980 -0.201793 0.338902
v -0.146211 -0.074451 0.326916
v -0.119752 -0.151259 0.329602
v -0.148594 -0.161776 0.389701
v -0.184186 -0.092345 0.406540
v -0.092496 0.184514 0.349791
v -0.127393 0.189815 0.439828
v -0.008752 0.219467 0.379777
v -0.103282 0.150598 0.510369
v -0.138580 0.092494 0.522554
v -0.088023 0.116178 0.546487
v -0.011129 0.184501 0.303446
v -0.012208 0.121376 0.270114
v -0.094752 0.162072 0.319691
v -0.003139 0.140702 0.554094
v -0.193635 -0.042457 0.415522
v -0.156813 -0.030998 0.326615
v -0.002760 -0.049661 0.561801
v -0.012433 -0.024669 0.263168
v -0.099990 -0.064422 0.305605
v -0.096114 -0.027628 0.289842
v -0.087691 -0.051067 0.560223
v -0.166945 -0.046091 0.505616
v -0.012251 0.004044 0.268789
v -0.006659 0.224365 0.444243
v -0.004924 0.185532 0.497763
v -0.096583 -0.134871 0.310473
v -0.054182 -0.139083 0.296873
v -0.011782 -0.143296 0.283271
v -0.064866 -0.176526 0.334252
v -0.011826 -0.060528 0.281903
v -0.055907 -0.062475 0.293755
v -0.013273 0.040045 0.241487
v -0.059472 0.048020 0.248078
v -0.053224 0.054029 0.204936
v -0.013689 0.108410 0.228662
v -0.014968 0.100135 0.189165
v -0.014943 0.056100 0.189939
v -0.050602 0.090350 0.204541
v 0.136828 -0.100130 0.487054
v 0.086225 -0.106374 0.537587
v 0.082868 -0.160004 0.469236
v 0.115387 -0.160024 0.438051
v 0.081866 0.067349 0.568387
v 0.082348 -0.006706 0.570807
v 0.073391 0.011795 0.288573
v 0.030757 0.098719 0.240781
v 0.073189 0.111071 0.289393
v 0.158048 -0.001336 0.508945
v 0.107376 0.118647 0.326775
v 0.149727 0.123307 0.420261
v 0.177964 0.012106 0.411704
v 0.136235 0.022068 0.332093
v 0.061431 -0.208759 0.378456
v 0.125191 -0.074451 0.318126
v 0.168237 -0.092345 0.395126
v 0.131631 -0.161776 0.380624
v 0.098960 -0.151259 0.322518
v 0.073067 0.184514 0.344427
v 0.113718 0.189815 0.432019
v 0.094222 0.150598 0.503972
v 0.081331 0.116178 0.541002
v 0.130235 0.092494 0.513848
v 0.073371 0.162072 0.314245
v 0.135748 -0.030998 0.317138
v 0.178248 -0.042457 0.403476
v 0.072799 -0.027628 0.284372
v 0.077685 -0.064422 0.299849
v 0.157445 -0.046091 0.495109
v 0.081890 -0.051067 0.554730
v 0.074602 -0.134871 0.304928
v 0.031410 -0.139083 0.294100
v 0.044489 -0.176526 0.330710
v 0.032929 -0.062475 0.290877
v 0.024504 0.054029 0.202419
v 0.033531 0.048020 0.245066
v 0.021862 0.090350 0.202194
vt 0.392447 0.270176
vt 0.340248 0.242054
vt 0.351729 0.181974
vt 0.421950 0.176781
vt 0.335077 0.010017
vt 0.423243 0.001806
vt 0.268529 0.025365
vt 0.737132 0.496715
vt 0.730298 0.442723
vt 0.894559 0.439162
vt 0.894559 0.499415
vt 0.351919 0.981887
vt 0.278746 0.999321
vt 0.255327 0.904248
vt 0.577840 0.487131
vt 0.610161 0.717845
vt 0.516210 0.691652
vt 0.504120 0.569049
vt 0.594445 0.613290
vt 0.210607 0.048244
vt 0.263818 0.177403
vt 0.165394 0.069314
vt 0.254065 0.327084
vt 0.249574 0.263065
vt 0.308990 0.278845
vt 0.337732 0.333051
vt 0.690081 0.725130
vt 0.661986 0.634970
vt 0.849396 0.752133
vt 0.707031 0.578654
vt 0.645910 0.540079
vt 0.735024 0.540762
vt 0.817149 0.826739
vt 0.786737 0.878163
vt 0.643314 0.785271
vt 0.672944 0.751242
vt 0.890674 0.564272
vt 0.351096 0.364286
vt 0.256679 0.361712
vt 0.465835 0.000807
vt 0.015230 0.198568
vt 0.181140 0.289125
vt 0.153742 0.308977
vt 0.466265 0.171871
vt 0.420152 0.314139
vt 0.453517 0.334173
vt 0.503685 0.175194
vt 0.000218 0.218023
vt 0.503685 0.000218
vt 0.869088 0.691094
vt 0.880512 0.630496
vt 0.137373 0.336653
vt 0.251529 0.401478
vt 0.209234 0.246070
vt 0.153666 0.186635
vt 0.093792 0.118009
vt 0.205514 0.178511
vt 0.567561 0.822009
vt 0.363963 0.404523
vt 0.041915 0.171080
vt 0.113388 0.232691
vt 0.312228 0.812343
vt 0.302474 0.900523
vt 0.276432 0.866425
vt 0.176240 0.869807
vt 0.205053 0.841368
vt 0.351919 0.814724
vt 0.232647 0.818201
vt 0.262835 0.809699
vt 0.257540 0.867095
vt 0.392447 0.539305
vt 0.421950 0.632701
vt 0.351729 0.627507
vt 0.340248 0.567427
vt 0.423243 0.807675
vt 0.335077 0.799464
vt 0.268529 0.784116
vt 0.737385 0.381753
vt 0.895008 0.378471
vt 0.895008 0.438727
vt 0.730739 0.435769
vt 0.175805 0.827112
vt 0.079201 0.904807
vt 0.102490 0.809699
vt 0.578116 0.391869
vt 0.609704 0.161035
vt 0.594313 0.265642
vt 0.504120 0.310177
vt 0.515826 0.187520
vt 0.210607 0.761237
vt 0.165394 0.740168
vt 0.263818 0.632078
vt 0.254065 0.482397
vt 0.337732 0.476430
vt 0.308990 0.530636
vt 0.249574 0.546416
vt 0.689597 0.153508
vt 0.849163 0.125903
vt 0.661784 0.243748
vt 0.707010 0.299915
vt 0.735127 0.337713
vt 0.646017 0.338692
vt 0.816358 0.051550
vt 0.672384 0.127450
vt 0.642656 0.093510
vt 0.785803 0.000218
vt 0.891168 0.313613
vt 0.256679 0.447769
vt 0.351096 0.445195
vt 0.465835 0.808674
vt 0.015230 0.610913
vt 0.153742 0.500505
vt 0.181140 0.520356
vt 0.420152 0.495342
vt 0.466265 0.637610
vt 0.453517 0.475308
vt 0.503685 0.634287
vt 0.000218 0.591458
vt 0.503685 0.809264
vt 0.869021 0.186890
vt 0.880634 0.247450
vt 0.137373 0.472828
vt 0.251529 0.408003
vt 0.209234 0.563411
vt 0.153666 0.622846
vt 0.205514 0.630970
vt 0.093792 0.691472
vt 0.566788 0.056997
vt 0.363963 0.404958
vt 0.041915 0.638401
vt 0.113388 0.576790
vt 0.136146 0.997201
vt 0.100329 0.942621
vt 0.126364 0.908509
vt 0.028696 0.968107
vt 0.000218 0.939347
vt 0.175805 0.994287
vt 0.426599 0.895910
vt 0.388599 0.888308
vt 0.401105 0.837441
vt 0.426599 0.809699
vt 0.056390 0.991257
vt 0.081441 0.941957
vt 0.086631 0.999782
vt 0.352354 0.884064
vt 0.353523 0.851649
vn -0.5205 -0.6534 0.5496
vn -0.0472 -0.5592 0.8277
vn -0.3150 -0.8216 0.4752
vn -0.0824 0.0017 0.9966
vn -0.7935 0.0070 -0.6085
vn -0.5798 0.0294 0.8142
vn -0.8998 0.2468 -0.3598
vn -0.0787 -0.9585 -0.2741
vn -0.8322 -0.3085 -0.4607
vn -0.3233 0.9290 -0.1800
vn -0.8007 0.4982 -0.3327
vn -0.5486 0.4772 0.6865
vn -0.2935 0.4391 -0.8491
vn -0.2134 0.4735 0.8546
vn -0.9143 -0.1026 -0.3919
vn -0.0901 -0.1746 0.9805
vn -0.2726 -0.3545 -0.8945
vn -0.5652 -0.1888 0.8031
vn -0.5714 -0.2729 0.7740
vn -0.3044 0.1848 -0.9344
vn -0.0099 -0.4207 0.9072
vn -0.9566 -0.0804 0.2801
vn -0.9365 -0.2257 0.2683
vn -0.6769 0.5204 0.5206
vn -0.9198 0.2657 0.2887
vn -0.3611 -0.8541 0.3744
vn -0.8158 -0.4948 0.2993
vn -0.2332 0.8005 0.5522
vn -0.5580 0.1695 -0.8124
vn -0.3313 -0.3418 -0.8794
vn -0.8029 0.5052 -0.3165
vn -0.2275 0.8880 -0.3997
vn -0.4025 -0.0825 -0.9117
vn -0.2644 -0.6586 -0.7046
vn -0.6042 0.1195 -0.7878
vn -0.7794 0.0071 -0.6265
vn -0.5292 -0.2111 -0.8218
vn -0.3144 0.7722 -0.5522
vn -0.7061 0.3257 -0.6288
vn -0.5085 -0.1299 -0.8512
vn -0.5307 -0.8202 0.2135
vn -0.9194 0.2178 0.3274
vn -0.8352 0.4088 0.3680
vn -0.9127 0.1185 -0.3911
vn -0.5608 -0.2414 0.7920
vn -0.2123 -0.4554 -0.8646
vn -0.0130 -0.2899 0.9570
vn -0.8623 -0.2135 -0.4592
vn -0.1082 0.3717 0.9220
vn -0.5387 0.4014 0.7407
vn -0.2724 0.9601 -0.0641
vn -0.6504 0.1702 0.7402
vn -0.3251 -0.7418 0.5865
vn -0.0582 -0.3394 0.9388
vn -0.6393 -0.3555 0.6819
vn -0.3508 -0.8384 0.4173
vn -0.9248 0.0700 -0.3740
vn -0.9652 -0.0246 0.2603
vn -0.2558 -0.6188 -0.7427
vn -0.2982 -0.7551 -0.5839
vn -0.0784 -0.9967 -0.0195
vn -0.1903 -0.9682 -0.1624
vn -0.1994 0.9372 -0.2860
vn -0.2823 -0.5848 -0.7605
vn -0.3799 -0.0012 -0.9250
vn -0.9821 0.0690 -0.1751
vn -0.3114 0.9253 -0.2162
vn -0.1928 0.7648 0.6148
vn -0.2511 0.6455 0.7213
vn -0.8660 -0.3781 0.3272
vn -0.2831 -0.0454 -0.9580
vn -0.9897 0.0365 -0.1383
vn -0.3422 0.8197 -0.4593
vn -0.0639 -0.9534 -0.2949
vn -0.5392 -0.7467 -0.3894
vn -0.2777 0.1003 -0.9554
vn -0.7725 -0.0178 -0.6348
vn -0.2171 -0.6745 -0.7057
vn 0.5550 -0.6534 0.5148
vn 0.1007 -0.5592 0.8229
vn 0.3451 -0.8216 0.4538
vn 0.1467 0.0018 0.9892
vn 0.7525 0.0070 -0.6586
vn 0.6313 0.0294 0.7750
vn 0.8746 0.2468 -0.4173
vn 0.0608 -0.9585 -0.2786
vn 0.8007 -0.3085 -0.5136
vn 0.3104 0.9292 -0.2003
vn 0.7775 0.4983 -0.3838
vn 0.5918 0.4772 0.6496
vn 0.2380 0.4391 -0.8664
vn 0.2675 0.4735 0.8392
vn 0.8870 -0.1026 -0.4502
vn 0.1534 -0.1746 0.9726
vn 0.2141 -0.3545 -0.9102
vn 0.6160 -0.1888 0.7648
vn 0.6203 -0.2729 0.7354
vn 0.2433 0.1849 -0.9522
vn 0.0686 -0.4207 0.9046
vn 0.9727 -0.0804 0.2176
vn 0.9519 -0.2257 0.2072
vn 0.7091 0.5204 0.4758
vn 0.9366 0.2657 0.2285
vn 0.3845 -0.8541 0.3503
vn 0.8335 -0.4948 0.2459
vn 0.2681 0.8006 0.5359
vn 0.5042 0.1695 -0.8468
vn 0.2737 -0.3418 -0.8990
vn 0.7807 0.5052 -0.3678
vn 0.2010 0.8882 -0.4131
vn 0.3426 -0.0825 -0.9358
vn 0.2182 -0.6586 -0.7202
vn 0.5520 0.1195 -0.8253
vn 0.7372 0.0071 -0.6756
vn 0.4749 -0.2111 -0.8543
vn 0.2780 0.7722 -0.5714
vn 0.6639 0.3257 -0.6732
vn 0.4523 -0.1299 -0.8823
vn 0.5434 -0.8202 0.1787
vn 0.9387 0.2178 0.2672
vn 0.8572 0.4088 0.3131
vn 0.8855 0.1185 -0.4493
vn 0.6109 -0.2413 0.7540
vn 0.1559 -0.4553 -0.8766
vn 0.0749 -0.2899 0.9541
vn 0.8308 -0.2135 -0.5140
vn 0.1674 0.3719 0.9130
vn 0.5855 0.4014 0.7043
vn 0.2673 0.9602 -0.0816
vn 0.6970 0.1702 0.6966
vn 0.3624 -0.7418 0.5643
vn 0.1188 -0.3394 0.9331
vn 0.6821 -0.3555 0.6391
vn 0.3770 -0.8384 0.3937
vn 0.8986 0.0700 -0.4331
vn 0.9800 -0.0247 0.1973
vn 0.2072 -0.6188 -0.7577
vn 0.2597 -0.7551 -0.6019
vn 0.0770 -0.9967 -0.0246
vn 0.1783 -0.9684 -0.1742
vn 0.1807 0.9368 -0.2995
vn 0.2326 -0.5835 -0.7781
vn -0.9993 0.0003 0.0365
vn -0.9994 0.0001 0.0345
vn -0.9995 0.0001 0.0331
vn 0.3170 -0.0013 -0.9484
vn 0.9687 0.0690 -0.2383
vn -0.9995 0.0000 0.0324
vn 0.2949 0.9260 -0.2358
vn 0.2318 0.7647 0.6012
vn 0.2965 0.6458 0.7035
vn 0.8854 -0.3781 0.2705
vn 0.2205 -0.0454 -0.9743
vn 0.9787 0.0365 -0.2020
vn 0.3097 0.8213 -0.4790
vn 0.0443 -0.9534 -0.2984
vn 0.5129 -0.7467 -0.4235
vn 0.2153 0.1003 -0.9714
vn 0.7298 -0.0178 -0.6834
vn 0.1699 -0.6752 -0.7178
usemtl arixbrain
s 1
f 1/1/1 2/2/1 3/3/1 4/4/1
f 4/4/2 5/5/2 6/6/2
f 3/3/3 7/7/3 5/5/3
f 8/8/4 9/9/4 10/10/4 11/11/4
f 12/12/5 13/13/5 14/14/5
f 8/8/6 15/15/6 9/9/6
f 16/16/7 17/17/7 18/18/7 19/19/7
f 20/20/8 21/21/8 22/22/8
f 23/23/9 24/24/9 25/25/9 26/26/9
f 27/27/10 28/28/10 29/29/10
f 27/27/11 16/16/11 19/19/11 28/28/11
f 30/30/12 31/31/12 32/32/12
f 33/33/13 34/34/13 13/35/13 35/36/13
f 32/32/14 8/8/14 36/37/14
f 26/26/15 37/38/15 38/39/15
f 39/40/16 4/4/16 6/6/16
f 40/41/17 41/42/17 42/43/17
f 4/4/18 43/44/18 44/45/18
f 15/46/19 43/44/19 9/47/19
f 45/48/20 40/41/20 42/43/20
f 10/49/21 43/44/21 39/40/21
f 15/46/22 37/38/22 44/45/22
f 37/38/23 26/26/23 44/45/23
f 28/28/24 31/31/24 30/30/24
f 31/31/25 18/18/25 15/15/25
f 21/21/26 7/7/26 2/2/26
f 26/26/27 25/25/27 2/2/27 1/1/27
f 46/50/28 28/28/28 30/30/28 47/51/28
f 12/52/29 42/43/29 38/39/29 17/53/29
f 41/42/30 23/23/30 42/43/30
f 35/36/31 16/16/31 27/27/31
f 33/33/32 27/27/32 29/29/32
f 41/42/33 48/54/33 23/23/33
f 49/55/34 50/56/34 22/22/34 51/57/34
f 16/16/35 12/58/35 17/17/35
f 13/35/36 12/58/36 16/16/36
f 24/24/37 23/23/37 48/54/37
f 35/36/38 27/27/38 33/33/38
f 13/35/39 16/16/39 35/36/39
f 42/43/40 23/23/40 38/39/40
f 25/25/41 21/21/41 2/2/41
f 19/19/42 18/18/42 31/31/42
f 19/19/43 31/31/43 28/28/43
f 17/53/44 38/39/44 18/59/44
f 44/45/45 43/44/45 15/46/45
f 52/60/46 53/61/46 41/42/46 40/41/46
f 43/44/47 4/4/47 39/40/47
f 23/23/48 26/26/48 38/39/48
f 11/11/49 36/37/49 8/8/49
f 8/8/50 32/32/50 31/31/50
f 28/28/51 46/50/51 29/29/51
f 31/31/52 15/15/52 8/8/52
f 3/3/53 5/5/53 4/4/53
f 9/47/54 43/44/54 10/49/54
f 1/1/55 4/4/55 44/45/55
f 2/2/56 7/7/56 3/3/56
f 37/38/57 18/59/57 38/39/57
f 18/59/58 37/38/58 15/46/58
f 48/54/59 49/55/59 51/57/59 24/24/59
f 24/24/60 51/57/60 21/21/60
f 20/20/61 7/7/61 21/21/61
f 54/62/62 55/63/62 56/64/62
f 13/13/63 34/65/63 57/66/63
f 45/67/64 12/12/64 54/62/64
f 58/68/65 59/69/65 56/64/65 60/70/65
f 14/14/66 60/70/66 56/64/66
f 14/14/67 57/66/67 58/68/67 60/70/67
f 47/51/68 30/30/68 36/37/68
f 32/32/69 36/37/69 30/30/69
f 1/1/70 44/45/70 26/26/70
f 52/60/71 50/56/71 49/55/71 48/54/71 41/42/71 53/61/71
f 55/63/72 14/14/72 56/64/72
f 14/14/73 13/13/73 57/66/73
f 56/64/74 59/69/74 54/62/74
f 25/25/75 24/24/75 21/21/75
f 12/52/76 45/48/76 42/43/76
f 22/22/60 21/21/60 51/57/60
f 55/63/77 12/12/77 14/14/77
f 54/62/78 12/12/78 55/63/78
f 61/71/79 62/72/79 63/73/79 64/74/79
f 62/72/80 6/75/80 5/76/80
f 63/73/81 5/76/81 7/77/81
f 65/78/82 11/79/82 10/80/82 66/81/82
f 67/82/83 68/83/83 69/84/83
f 65/78/84 66/81/84 70/85/84
f 71/86/85 72/87/85 73/88/85 74/89/85
f 20/90/86 22/91/86 75/92/86
f 76/93/87 77/94/87 78/95/87 79/96/87
f 80/97/88 29/98/88 81/99/88
f 80/97/89 81/99/89 72/87/89 71/86/89
f 82/100/90 83/101/90 84/102/90
f 33/103/91 85/104/91 69/105/91 34/106/91
f 83/101/92 36/107/92 65/78/92
f 77/94/93 86/108/93 87/109/93
f 39/110/94 6/75/94 62/72/94
f 40/111/95 88/112/95 89/113/95
f 62/72/96 90/114/96 91/115/96
f 70/116/97 66/117/97 91/115/97
f 45/118/98 88/112/98 40/111/98
f 10/119/99 39/110/99 91/115/99
f 70/116/100 90/114/100 87/109/100
f 87/109/101 90/114/101 77/94/101
f 81/99/102 82/100/102 84/102/102
f 84/102/103 70/85/103 73/88/103
f 75/92/104 64/74/104 7/77/104
f 77/94/105 61/71/105 64/74/105 78/95/105
f 46/120/106 47/121/106 82/100/106 81/99/106
f 67/122/107 74/123/107 86/108/107 88/112/107
f 89/113/108 88/112/108 76/93/108
f 85/104/109 80/97/109 71/86/109
f 33/103/110 29/98/110 80/97/110
f 89/113/111 76/93/111 92/124/111
f 93/125/112 94/126/112 22/91/112 50/127/112
f 71/86/113 74/89/113 67/128/113
f 69/105/114 71/86/114 67/128/114
f 79/96/115 92/124/115 76/93/115
f 85/104/116 33/103/116 80/97/116
f 69/105/117 85/104/117 71/86/117
f 88/112/118 86/108/118 76/93/118
f 78/95/119 64/74/119 75/92/119
f 72/87/120 84/102/120 73/88/120
f 72/87/121 81/99/121 84/102/121
f 74/123/122 73/129/122 86/108/122
f 90/114/123 70/116/123 91/115/123
f 52/130/124 40/111/124 89/113/124 95/131/124
f 91/115/125 39/110/125 62/72/125
f 76/93/126 86/108/126 77/94/126
f 11/79/127 65/78/127 36/107/127
f 65/78/128 84/102/128 83/101/128
f 81/99/129 29/98/129 46/120/129
f 84/102/130 65/78/130 70/85/130
f 63/73/131 62/72/131 5/76/131
f 66/117/132 10/119/132 91/115/132
f 61/71/133 90/114/133 62/72/133
f 64/74/134 63/73/134 7/77/134
f 87/109/135 86/108/135 73/129/135
f 73/129/136 70/116/136 87/109/136
f 92/124/137 79/96/137 94/126/137 93/125/137
f 79/96/138 75/92/138 94/126/138
f 20/90/139 75/92/139 7/77/139
f 54/132/140 96/133/140 97/134/140
f 69/84/141 57/135/141 34/136/141
f 45/137/142 54/132/142 67/82/142
f 34/138/143 57/139/144 54/140/145 45/141/143
f 58/142/146 98/143/146 96/133/146 59/144/146
f 68/83/147 96/133/147 98/143/147
f 57/139/144 58/145/148 59/146/148 54/140/145
f 68/83/149 98/143/149 58/142/149 57/135/149
f 47/121/150 36/107/150 82/100/150
f 83/101/151 82/100/151 36/107/151
f 61/71/152 77/94/152 90/114/152
f 52/130/153 95/131/153 89/113/153 92/124/153 93/125/153 50/127/153
f 97/134/154 96/133/154 68/83/154
f 68/83/155 57/135/155 69/84/155
f 96/133/156 54/132/156 59/144/156
f 78/95/157 75/92/157 79/96/157
f 67/122/158 88/112/158 45/118/158
f 22/91/138 94/126/138 75/92/138
f 97/134/159 68/83/159 67/82/159
f 54/132/160 97/134/160 67/82/160
