# Blender v2.80 (sub 75) OBJ File: ''
# www.blender.org
mtllib bruchaquill.mtl
o bruchaquill
v 0.105180 0.077475 0.473186
v 0.111566 -0.138320 0.451066
v -0.111664 0.070517 0.478442
v -0.105277 -0.145276 0.456325
v -0.033635 0.037608 1.742700
v 0.025895 0.220057 1.872567
v -0.038493 0.151526 1.693035
v -0.067648 -0.186782 1.172809
v -0.074646 -0.022720 1.101283
v 0.104323 -0.016977 1.096944
v 0.111319 -0.181040 1.168470
v 0.085773 0.155512 1.690021
v 0.090632 0.041596 1.739688
vt 0.549356 0.257104
vt 0.555101 0.273977
vt 0.558814 0.257060
vt 0.543972 0.169636
vt 0.542387 0.216345
vt 0.554204 0.212229
vt 0.558409 0.168905
vt 0.574069 0.029861
vt 0.574536 0.073741
vt 0.585464 0.079032
vt 0.588180 0.030643
vt 0.529606 0.167791
vt 0.529606 0.217437
vt 0.559510 0.031051
vt 0.562582 0.073098
vt 0.565917 0.113225
vt 0.561175 0.124870
vt 0.573102 0.116301
vt 0.540497 0.260920
vt 0.558311 0.112335
vn -0.9480 0.0924 0.3047
vn -0.9982 -0.0283 0.0528
vn 0.9993 0.0358 0.0045
vn 0.0306 -0.9978 -0.0594
vn -0.0281 0.9883 0.1496
vn 0.9537 0.1534 0.2586
vn 0.0385 -0.5878 0.8081
vn -0.0384 0.9381 -0.3443
vn -0.0376 0.9592 -0.2802
vn 0.0387 -0.9306 0.3641
vn 0.9986 0.0499 0.0167
vn -0.9978 -0.0142 0.0651
vn -0.0274 0.1011 -0.9945
usemtl bruchaquill
s 1
f 5/1/1 6/2/1 7/3/1
f 4/4/2 8/5/2 9/6/2 3/7/2
f 1/8/3 10/9/3 11/10/3 2/11/3
f 2/12/4 11/13/4 8/5/4 4/4/4
f 3/14/5 9/15/5 10/9/5 1/8/5
f 12/16/6 6/17/6 13/18/6
f 13/19/7 6/2/7 5/1/7
f 7/20/8 6/17/8 12/16/8
f 9/15/9 7/20/9 12/16/9 10/9/9
f 11/13/10 13/19/10 5/1/10 8/5/10
f 10/9/11 12/16/11 13/18/11 11/10/11
f 8/5/12 5/1/12 7/3/12 9/6/12
f 2/12/13 4/4/13 3/7/13 1/8/13
