# Blender v2.80 (sub 75) OBJ File: ''
# www.blender.org
mtllib epionwing.mtl
o base
v -0.607378 0.285869 0.894511
v -0.596856 0.285869 0.873645
v -0.643608 0.285869 0.876721
v -0.633518 0.285869 0.900012
v -0.646088 0.249380 0.880157
v -0.606738 0.249380 0.870420
v -0.613801 0.249380 0.886050
v -0.632885 0.249380 0.891729
v -0.629683 0.253028 0.843542
v -0.612296 0.253028 0.847857
v -0.283178 0.267623 1.899884
v -0.605845 0.282221 0.846285
v -0.628716 0.282221 0.845038
v 0.275043 0.267624 1.504774
v -0.596006 0.267649 0.872510
v -0.873925 0.267623 1.480498
v 0.613939 0.267640 0.861277
v -0.656551 0.267623 0.884428
v -0.633556 0.267623 0.840146
v -0.604236 0.267623 0.845216
v -0.518914 0.153576 0.600848
v -0.488591 0.156252 0.611371
v -0.610609 0.249614 0.848986
v -0.632340 0.249614 0.843591
v -0.416195 0.093473 0.348033
v -0.302140 0.015951 0.000498
v -0.294697 -0.019984 0.014390
v -0.405488 0.057537 0.358104
v -0.356657 0.134763 0.370167
v -0.405400 0.129408 0.351667
v -0.518268 0.207754 0.598565
v -0.479601 0.210433 0.608595
v -0.643610 0.286103 0.877056
v -0.631135 0.286103 0.845462
v -0.798234 0.267857 0.861799
v -0.236127 0.057244 0.024884
v -0.296122 0.051887 0.012439
v 0.266163 0.079987 0.142923
v 0.179702 0.063571 0.026517
v -0.601862 0.267857 0.884489
v -0.606740 0.249614 0.870755
v 0.613937 0.267858 0.861591
v -0.647791 0.267857 0.886108
v -0.646090 0.249614 0.880491
v -0.246989 -0.014629 0.034041
v -0.366571 0.062892 0.373759
v -0.526691 0.180666 0.593691
v -0.637184 0.267857 0.839347
v -0.602544 0.286103 0.847021
v -0.597644 0.286103 0.875502
v -0.236160 0.021309 0.031221
v 0.340934 0.065458 0.225188
v -0.600534 0.267857 0.845686
v -0.350215 0.098828 0.378756
v -0.475376 0.183343 0.612222
v 0.273211 0.021895 -0.026090
v 0.255422 0.068635 -0.015911
v 0.313332 0.079987 0.093788
v 0.333971 0.031334 0.093367
v 0.266163 -0.017319 0.142923
v 0.313332 -0.017319 0.093788
v 0.382485 -0.008072 0.194812
v 0.340934 -0.008072 0.225188
v 0.166611 0.021895 0.042097
v 0.163454 0.060301 -0.005998
v 0.146239 0.026229 -0.011463
v 0.216375 0.060301 -0.033412
v 0.221840 0.026229 -0.050627
v 0.255422 -0.019783 -0.015911
v 0.179702 -0.019783 0.026517
v 0.163454 -0.007841 -0.005998
v 0.216375 -0.007841 -0.033412
v 0.266584 0.031334 0.163561
v 0.338539 0.028693 0.240603
v 0.385691 -0.003916 0.275936
v 0.395466 0.018578 0.278946
v 0.397897 0.028693 0.197206
v 0.422650 -0.002635 0.249446
v 0.406318 -0.016965 0.237680
v 0.382485 0.065458 0.194812
v 0.421339 0.019474 0.260401
v 0.408235 -0.034264 0.290740
v 0.422429 -0.032739 0.279790
v 0.425133 -0.057288 0.265154
v 0.380447 -0.017863 0.256227
v 0.403977 -0.058929 0.284207
v 0.409663 -0.053004 0.247115
v 0.395265 -0.053690 0.259690
v 0.392329 0.030981 0.066697
v 0.379608 0.030981 -0.074290
vt 0.186961 0.727104
vt 0.193609 0.728279
vt 0.184809 0.738563
vt 0.181167 0.732199
vt 0.799716 0.007796
vt 0.808932 0.015389
vt 0.803996 0.016467
vt 0.799299 0.012952
vt 0.811295 0.005194
vt 0.813353 0.010053
vt 0.622354 0.272827
vt 0.198436 0.735136
vt 0.194762 0.740639
vt 0.952988 0.273426
vt 0.942219 0.581613
vt 0.947530 0.582139
vt 0.947880 0.635526
vt 0.958413 0.632430
vt 0.958413 0.945315
vt 0.813353 0.299975
vt 0.198436 0.417348
vt 0.979338 0.940518
vt 0.968801 0.937440
vt 0.979338 0.632430
vt 0.010425 0.478151
vt 0.963376 0.275806
vt 0.973921 0.273426
vt 0.973921 0.581718
vt 0.994806 0.457279
vt 0.984309 0.454694
vt 0.994806 0.273426
vt 0.617653 0.059412
vt 0.005194 0.687453
vt 0.715102 0.661892
vt 0.530220 0.411852
vt 0.715102 0.312074
vt 0.725490 0.379769
vt 0.911089 0.312074
vt 0.911089 0.622042
vt 0.390296 0.668359
vt 0.390296 0.974453
vt 0.269272 0.839095
vt 0.990745 0.060409
vt 0.984938 0.243051
vt 0.979076 0.245248
vt 0.990745 0.246774
vt 0.227478 0.799862
vt 0.227478 0.805036
vt 0.223206 0.806359
vt 0.223075 0.797765
vt 0.218811 0.804808
vt 0.218844 0.798191
vt 0.989346 0.257148
vt 0.984575 0.257665
vt 0.980003 0.257178
vt 0.952988 0.584787
vt 0.942390 0.589621
vt 0.946338 0.590263
vt 0.950945 0.590949
vt 0.582906 0.116273
vt 0.573939 0.118322
vt 0.564108 0.037898
vt 0.570154 0.035763
vt 0.219689 0.628936
vt 0.224866 0.734092
vt 0.213946 0.733743
vt 0.208824 0.630041
vt 0.109312 0.133168
vt 0.103633 0.119393
vt 0.176790 0.086219
vt 0.179901 0.097167
vt 0.258884 0.049388
vt 0.249947 0.053045
vt 0.253887 0.005194
vt 0.009246 0.168977
vt 0.005194 0.151967
vt 0.301548 0.417654
vt 0.269272 0.443718
vt 0.273914 0.561858
vt 0.375972 0.591516
vt 0.251151 0.760174
vt 0.244627 0.761547
vt 0.248339 0.417348
vt 0.251274 0.773168
vt 0.245897 0.773035
vt 0.595397 0.196385
vt 0.607265 0.300489
vt 0.592551 0.300710
vt 0.583494 0.197484
vt 0.223965 0.549464
vt 0.215743 0.550483
vt 0.222925 0.467421
vt 0.228504 0.465384
vt 0.257024 0.772020
vt 0.253088 0.815826
vt 0.567627 0.024773
vt 0.559752 0.033302
vt 0.250490 0.061167
vt 0.258604 0.062460
vt 0.690265 0.961558
vt 0.700483 0.965354
vt 0.700483 0.982839
vt 0.690123 0.982305
vt 0.323776 0.394811
vt 0.448280 0.623925
vt 0.257024 0.758849
vt 0.269272 0.227892
vt 0.258884 0.406960
vt 0.931831 0.621609
vt 0.925848 0.622042
vt 0.921477 0.619168
vt 0.931831 0.273426
vt 0.213426 0.417348
vt 0.234239 0.464114
vt 0.607265 0.005194
vt 0.581639 0.301225
vt 0.572424 0.196414
vt 0.571136 0.301686
vt 0.561864 0.196194
vt 0.565263 0.118237
vt 0.679452 0.964300
vt 0.679934 0.979040
vt 0.231514 0.547357
vt 0.230021 0.626464
vt 0.234239 0.728975
vt 0.176309 0.949874
vt 0.163409 0.952942
vt 0.155412 0.919841
vt 0.170084 0.915179
vt 0.968688 0.194933
vt 0.949589 0.198128
vt 0.950957 0.163251
vt 0.965589 0.163371
vt 0.132231 0.866437
vt 0.119897 0.863101
vt 0.121933 0.852774
vt 0.132884 0.850521
vt 0.633121 0.827239
vt 0.631191 0.838031
vt 0.614466 0.840741
vt 0.609227 0.831110
vt 0.944169 0.232981
vt 0.968639 0.236162
vt 0.966755 0.246874
vt 0.950028 0.244169
vt 0.632999 0.848247
vt 0.608511 0.851609
vt 0.968688 0.257665
vt 0.944793 0.253801
vt 0.145024 0.865950
vt 0.143075 0.855089
vt 0.125029 0.909301
vt 0.139945 0.906308
vt 0.133881 0.937978
vt 0.122511 0.939251
vt 0.188405 0.950194
vt 0.170729 0.915089
vt 0.186046 0.916306
vt 0.187433 0.962728
vt 0.176580 0.964779
vt 0.633121 0.889733
vt 0.614013 0.886592
vt 0.111091 0.903150
vt 0.165956 0.964680
vt 0.111634 0.935569
vt 0.129412 0.957433
vt 0.122355 0.959189
vt 0.178260 0.880694
vt 0.166518 0.879415
vt 0.172937 0.861197
vt 0.178599 0.865855
vt 0.155622 0.883551
vt 0.630087 0.921461
vt 0.615455 0.921611
vt 0.617796 0.946812
vt 0.626849 0.946780
vt 0.626332 0.962586
vt 0.621227 0.962274
vt 0.165816 0.859402
vt 0.179813 0.850521
vt 0.187925 0.853322
vt 0.135093 0.952861
vt 0.952792 0.149199
vt 0.961844 0.149309
vt 0.618195 0.969851
vt 0.626302 0.969940
vt 0.953975 0.138632
vt 0.953930 0.131767
vt 0.962030 0.131436
vt 0.959412 0.138513
vt 0.188405 0.860528
vt 0.144293 0.966049
vt 0.136807 0.966834
vt 0.145024 0.958380
vt 0.558156 0.038939
vt 0.557477 0.116909
vt 0.553179 0.037205
vt 0.519832 0.657971
vt 0.339984 0.375092
vt 0.519832 0.312074
vt 0.759870 0.956487
vt 0.760004 0.938246
vt 0.725490 0.951970
vt 0.798020 0.925042
vt 0.798020 0.958349
vn 0.0000 1.0000 0.0000
vn 0.0000 -1.0000 -0.0000
vn -0.0119 -0.9921 -0.1245
vn 0.0049 -0.9999 0.0164
vn -0.0032 0.9924 -0.1230
vn -0.5857 -0.0776 0.8068
vn -0.5678 -0.0898 0.8183
vn 0.0156 -0.9999 0.0071
vn 0.0153 0.9999 0.0077
vn 0.9469 -0.0955 -0.3071
vn 0.0036 0.9998 0.0170
vn -0.9404 -0.0907 0.3278
vn 0.9224 -0.0702 0.3798
vn -0.0200 -0.9995 0.0228
vn -0.0371 0.9992 0.0161
vn 0.0151 0.9999 0.0080
vn 0.0105 0.9998 0.0148
vn -0.0172 0.9996 0.0243
vn -0.8540 -0.4169 -0.3114
vn -0.8329 0.4625 -0.3038
vn 0.1919 -0.2251 -0.9553
vn 0.1181 0.1861 -0.9754
vn -0.8112 0.4029 -0.4239
vn -0.8347 -0.3532 -0.4225
vn 0.5695 -0.2448 -0.7847
vn 0.9480 0.0915 -0.3048
vn 0.8349 -0.4819 -0.2659
vn -0.0564 -0.9379 0.3422
vn -0.9224 -0.3098 -0.2306
vn 0.0096 0.9544 -0.2982
vn 0.0098 0.9545 -0.2981
vn 0.0128 0.9548 -0.2969
vn -0.1127 0.9926 -0.0445
vn -0.0302 0.9726 -0.2304
vn 0.0024 0.9800 -0.1992
vn 0.0150 -0.6039 0.7969
vn 0.1163 -0.4733 0.8732
vn 0.0267 -0.9729 0.2297
vn -0.9002 -0.3238 -0.2912
vn -0.1412 0.4657 0.8736
vn 0.3203 0.0468 -0.9462
vn 0.0605 0.9821 -0.1782
vn 0.0169 0.4386 0.8985
vn 0.0159 0.4375 0.8991
vn 0.0320 0.4387 0.8981
vn 0.0149 -0.9999 -0.0027
vn 0.0150 0.9999 -0.0026
vn 0.0131 -0.0566 -0.9983
vn 0.0131 0.9549 -0.2967
vn -0.1334 -0.2580 -0.9569
vn -0.1292 0.3533 -0.9265
vn -0.1138 -0.9926 -0.0424
vn 0.8650 -0.3384 0.3704
vn 0.9466 0.1443 0.2882
vn 0.7419 -0.3981 0.5396
vn 0.4124 -0.2247 -0.8829
vn -0.7928 0.3704 -0.4840
vn -0.8907 0.2851 -0.3540
vn -0.1520 -0.3038 0.9405
vn 0.0310 0.4372 0.8988
vn 0.8085 0.3760 -0.4528
vn 0.0529 -0.9969 0.0590
vn -0.8466 0.3874 0.3650
vn -0.4307 0.3510 -0.8314
vn -0.1534 -0.9469 -0.2826
vn -0.1021 0.9879 -0.1164
vn -0.4307 -0.3510 -0.8314
vn -0.8720 -0.3886 0.2975
vn -0.6974 -0.2923 0.6544
vn 0.8230 -0.3977 -0.4055
vn 0.3235 -0.4080 -0.8537
vn -0.7320 -0.3395 0.5907
vn -0.0894 0.9939 -0.0650
vn 0.0110 -0.9998 0.0148
vn -0.7598 0.3309 0.5596
vn 0.3734 0.3924 -0.8406
vn -0.5031 0.2748 0.8194
vn 0.7752 -0.3329 -0.5368
vn 0.8045 0.3281 -0.4951
vn 0.0828 0.9923 0.0923
vn -0.6864 0.2962 0.6641
vn 0.7978 -0.3250 -0.5078
vn 0.5530 0.3033 0.7760
vn 0.9968 0.0530 0.0598
vn -0.6725 -0.3955 0.6255
vn -0.1030 -0.9817 -0.1599
vn 0.9077 0.3004 -0.2929
vn 0.2997 0.8523 0.4287
vn 0.6289 -0.3239 0.7068
vn -0.0871 -0.9816 -0.1701
vn 0.7008 -0.1484 -0.6978
vn -0.5528 -0.0041 0.8333
vn -0.8972 -0.2832 0.3389
vn -0.5794 -0.2836 -0.7641
vn -0.8203 0.3146 -0.4777
vn 0.7620 -0.3625 0.5367
vn -0.8966 -0.3404 -0.2834
vn -0.0261 -0.9343 0.3556
vn 0.8952 0.1444 0.4216
vn 0.8916 0.2268 0.3918
vn 0.1956 0.9794 -0.0507
vn 0.0185 0.9167 -0.3991
vn -0.0138 -0.9998 -0.0169
vn -0.0615 0.9979 -0.0188
usemtl epionwing
s 1
f 1/1/1 2/2/1 3/3/1 4/4/1
f 5/5/2 6/6/2 7/7/2 8/8/2
f 5/5/3 9/9/3 10/10/3 6/6/3
f 8/8/4 7/7/4 11/11/4
f 12/12/5 13/13/5 3/3/5 2/2/5
f 14/14/6 2/15/6 15/16/6
f 1/17/7 7/18/7 14/19/7
f 7/7/8 6/6/8 14/20/8
f 2/2/9 1/1/9 14/21/9
f 7/22/10 1/23/10 11/24/10
f 1/1/11 4/4/11 11/25/11
f 4/26/12 8/27/12 11/28/12
f 8/29/13 4/30/13 16/31/13
f 5/5/14 8/8/14 16/32/14
f 4/4/15 3/3/15 16/33/15
f 2/34/16 14/35/16 17/36/16
f 11/37/17 14/38/17 1/39/17
f 11/40/18 4/41/18 16/42/18
f 16/43/19 18/44/19 5/45/19
f 3/46/20 18/44/20 16/43/20
f 10/47/21 9/48/21 19/49/21 20/50/21
f 13/51/22 12/52/22 20/50/22 19/49/22
f 3/46/23 13/53/23 19/54/23 18/44/23
f 19/54/24 9/55/24 5/45/24 18/44/24
f 14/14/25 6/56/25 15/16/25
f 12/57/26 2/15/26 15/16/26 20/58/26
f 20/58/27 15/16/27 6/56/27 10/59/27
f 21/60/28 22/61/28 23/62/28 24/63/28
f 25/64/29 26/65/29 27/66/29 28/67/29
f 29/68/30 30/69/30 31/70/31 32/71/32
f 33/72/33 34/73/33 35/74/33
f 30/69/34 29/68/34 36/75/34 37/76/34
f 38/77/35 39/78/35 36/79/35 29/80/35
f 40/81/36 41/82/36 42/83/36
f 43/84/37 44/85/37 41/82/37 40/81/37
f 28/86/38 27/87/38 45/88/38 46/89/38
f 47/90/39 21/91/39 24/92/39 48/93/39
f 33/94/40 35/95/40 43/84/40
f 44/96/2 24/63/2 23/62/2 41/97/2
f 49/98/1 34/73/1 33/72/1 50/99/1
f 26/100/41 37/101/41 36/102/41 51/103/41
f 52/104/42 38/77/42 29/80/42 32/105/42
f 42/83/43 50/106/44 40/81/45
f 41/97/46 23/62/46 42/107/46
f 49/98/47 50/99/47 42/108/47
f 23/109/48 53/110/48 49/111/48 42/112/48
f 49/98/49 32/71/32 31/70/31 34/73/49
f 48/93/50 24/92/50 35/113/50
f 35/113/51 34/114/51 48/93/51
f 24/63/52 44/96/52 35/115/52
f 51/116/53 54/117/53 46/89/53 45/88/53
f 36/118/54 29/119/54 54/117/54 51/116/54
f 22/61/55 46/89/55 54/117/55 55/120/55
f 27/121/56 26/100/56 51/103/56 45/122/56
f 31/123/57 47/90/57 48/93/57 34/114/57
f 30/124/58 37/125/58 26/65/58 25/64/58
f 35/95/59 44/85/59 43/84/59
f 40/81/45 50/106/44 33/94/60 43/84/60
f 56/126/61 57/127/61 58/128/61 59/129/61
f 60/130/62 61/131/62 62/132/62 63/133/62
f 64/134/63 39/135/63 65/136/63 66/137/63
f 66/138/64 65/139/64 67/140/64 68/141/64
f 69/142/65 70/143/65 71/144/65 72/145/65
f 39/146/66 57/147/66 67/140/66 65/139/66
f 71/144/67 66/148/67 68/149/67 72/145/67
f 70/150/68 64/134/68 66/137/68 71/151/68
f 73/152/69 60/153/69 63/154/69 74/155/69
f 69/156/70 56/126/70 59/157/70 61/158/70
f 72/159/71 68/160/71 56/126/71 69/156/71
f 60/153/72 73/152/72 64/134/72 70/150/72
f 38/161/73 58/162/73 57/147/73 39/146/73
f 61/131/74 60/130/74 70/143/74 69/142/74
f 73/152/75 38/163/75 39/135/75 64/134/75
f 68/160/76 67/164/76 57/127/76 56/126/76
f 52/165/77 74/155/77 75/166/77 76/167/77
f 62/168/78 77/169/78 78/170/78 79/171/78
f 59/129/79 58/128/79 80/172/79 77/169/79
f 58/162/80 38/161/80 52/173/80 80/174/80
f 38/163/81 73/152/81 74/155/81 52/165/81
f 61/158/82 59/157/82 77/169/82 62/168/82
f 81/175/83 76/176/83 82/177/83 83/178/83
f 78/170/84 81/179/84 83/180/84 84/181/84
f 74/155/85 63/154/85 85/182/85 75/166/85
f 63/133/86 62/132/86 79/183/86 85/184/86
f 77/169/87 80/172/87 81/179/87 78/170/87
f 80/174/88 52/173/88 76/176/88 81/175/88
f 84/185/89 83/178/89 82/177/89 86/186/89
f 87/187/90 84/188/90 86/189/90 88/190/90
f 79/171/91 78/170/91 84/181/91 87/191/91
f 76/167/92 75/166/92 86/192/92 82/193/92
f 75/166/93 85/182/93 88/194/93 86/192/93
f 85/184/94 79/183/94 87/187/94 88/190/94
f 30/124/95 25/64/95 47/90/95 31/123/95
f 23/62/96 22/61/96 55/120/96 53/195/96
f 25/64/97 28/67/97 21/91/97 47/90/97
f 28/86/98 46/89/98 22/61/98 21/60/98
f 32/196/99 49/197/99 53/195/99 55/120/99
f 32/196/100 55/120/100 54/117/100 29/119/100
f 32/105/101 49/198/101 76/199/101 52/104/101
f 76/199/102 49/198/102 42/200/102
f 59/201/103 89/202/103 77/203/103
f 59/201/104 89/202/104 90/204/104 56/205/104
