# Blender v2.80 (sub 75) OBJ File: ''
# www.blender.org
mtllib ettinclub.mtl
o ettinclub
v -0.055657 -0.047980 0.303404
v -0.088562 -0.124972 1.604491
v -0.095717 0.111341 1.606153
v 0.147687 -0.117779 1.598750
v 0.047059 -0.044853 0.300908
v 0.043949 0.057892 0.301630
v -0.058768 0.054765 0.304126
v 0.140531 0.118534 1.600412
v 0.151819 -0.130564 1.752810
v -0.084428 -0.137757 1.758551
v -0.092299 0.122186 1.760378
v 0.143949 0.129380 1.754637
v -0.109076 -0.228436 1.604343
v 0.251834 -0.161914 1.595922
v 0.161045 0.221998 1.600560
v -0.088562 -0.124972 1.604491
v -0.095717 0.111341 1.606153
v -0.199864 0.155476 1.608981
v 0.174422 -0.219804 1.597454
v 0.241817 0.168924 1.598248
v -0.122452 0.213366 1.607449
v -0.189847 -0.175362 1.606655
vt 0.748208 0.884840
vt 0.378921 0.877900
vt 0.378921 0.999755
vt 0.378921 0.877900
vt 0.748208 0.884840
vt 0.748208 0.992667
vt 0.743545 0.879229
vt 0.625851 0.879229
vt 0.625851 0.996922
vt 0.748393 0.998148
vt 0.379106 0.999868
vt 0.379106 0.877760
vt 0.748393 0.879539
vt 0.379106 0.877760
vt 0.379106 0.999868
vt 0.252356 0.877816
vt 0.252171 0.877776
vt 0.625573 0.878951
vt 0.743823 0.878951
vt 0.743823 0.997200
vt 0.252356 0.999821
vt 0.378921 0.999755
vt 0.252171 0.999781
vt 0.373515 0.877814
vt 0.373515 0.998834
vt 0.252150 0.998551
vt 0.373515 0.878178
vt 0.373515 0.998728
vt 0.252150 0.998551
vt 0.373515 0.877814
vt 0.373515 0.998834
vt 0.252150 0.998551
vt 0.373515 0.877920
vt 0.373515 0.998470
vt 0.252150 0.998551
vt 0.748208 0.992667
vt 0.743545 0.996922
vt 0.748393 0.879539
vt 0.748393 0.998148
vt 0.252356 0.999821
vt 0.252171 0.999781
vt 0.625573 0.997200
vt 0.252356 0.877816
vt 0.252171 0.877776
vt 0.252150 0.878098
vt 0.252150 0.878098
vt 0.252150 0.878098
vt 0.252150 0.878098
vn -0.9992 -0.0301 -0.0270
vn 0.9967 0.0307 -0.0756
vn -0.0245 0.0063 -0.9997
vn -0.0315 0.9985 -0.0443
vn 0.0290 -0.9979 -0.0583
vn 0.0283 -0.9961 -0.0834
vn -0.9992 -0.0304 0.0243
vn 0.0245 -0.0063 0.9997
vn -0.0320 0.9971 -0.0694
vn 0.9992 0.0304 -0.0243
usemtl ettinclub
s 1
f 1/1/1 2/2/1 3/3/1
f 4/4/2 5/5/2 6/6/2
f 5/7/3 1/8/3 7/9/3
f 7/10/4 3/11/4 8/12/4
f 5/13/5 4/14/5 2/15/5
f 2/15/6 4/14/6 9/16/6
f 3/3/7 2/2/7 10/17/7
f 2/18/8 4/19/8 8/20/8
f 8/12/9 3/11/9 11/21/9
f 4/4/10 8/22/10 12/23/10
f 4/24/8 2/25/8 13/26/8
f 8/27/8 4/28/8 14/29/8
f 3/30/8 8/31/8 15/32/8
f 16/33/8 17/34/8 18/35/8
f 7/36/1 1/1/1 3/3/1
f 8/22/2 4/4/2 6/6/2
f 6/37/3 5/7/3 7/9/3
f 6/38/4 7/10/4 8/12/4
f 1/39/5 5/13/5 2/15/5
f 10/40/6 2/15/6 9/16/6
f 11/41/7 3/3/7 10/17/7
f 3/42/8 2/18/8 8/20/8
f 12/43/9 8/12/9 11/21/9
f 9/44/10 4/4/10 12/23/10
f 19/45/8 4/24/8 13/26/8
f 20/46/8 8/27/8 14/29/8
f 21/47/8 3/30/8 15/32/8
f 22/48/8 16/33/8 18/35/8
