# Blender v2.80 (sub 75) OBJ File: ''
# www.blender.org
mtllib malwratheye.mtl
o malwratheye
v -0.000770 -0.167237 0.335126
v -0.000770 -0.129622 0.272936
v 0.092366 -0.091083 0.271198
v 0.120919 -0.116884 0.332854
v -0.000770 -0.071072 0.229875
v -0.000770 -0.000499 0.212499
v 0.049635 -0.050214 0.228934
v -0.000770 0.016286 0.584667
v -0.000770 -0.055564 0.573714
v 0.049635 -0.034706 0.572772
v -0.000770 -0.117753 0.536099
v -0.000770 -0.160813 0.477548
v 0.120919 -0.110460 0.475277
v 0.092366 -0.079213 0.534360
v -0.000770 -0.178191 0.406975
v 0.130945 -0.123688 0.404518
v 0.171324 0.011105 0.469794
v 0.130945 0.013828 0.530164
v 0.171324 0.004682 0.327371
v 0.185503 0.007893 0.398582
v 0.070513 0.000139 0.226663
v 0.130945 0.001959 0.267002
v 0.070513 0.015648 0.570502
v 0.092366 0.106870 0.525967
v 0.049635 0.066002 0.568231
v 0.130945 0.139475 0.392648
v 0.120919 0.132670 0.464311
v 0.092366 0.095001 0.262805
v 0.120919 0.126247 0.321888
v 0.049635 0.050493 0.224392
v -0.000770 0.193977 0.390190
v -0.000770 0.183024 0.462040
v -0.000770 0.133540 0.261066
v -0.000770 0.176601 0.319617
v -0.000770 0.071350 0.223452
v -0.000770 0.086858 0.567290
v -0.000770 0.145409 0.524229
v -0.051175 0.066002 0.568231
v -0.122459 0.132670 0.464311
v -0.093907 0.106870 0.525967
v -0.122459 0.126247 0.321888
v -0.132485 0.139475 0.392648
v -0.051175 0.050493 0.224392
v -0.093907 0.095001 0.262805
v -0.172864 0.004682 0.327371
v -0.187043 0.007893 0.398582
v -0.072054 0.000139 0.226663
v -0.132485 0.001959 0.267002
v -0.132485 0.013828 0.530164
v -0.072054 0.015648 0.570502
v -0.172864 0.011105 0.469794
v -0.093907 -0.079213 0.534360
v -0.051175 -0.034706 0.572772
v -0.132485 -0.123688 0.404518
v -0.122459 -0.110460 0.475277
v -0.093907 -0.091083 0.271198
v -0.122459 -0.116884 0.332854
v -0.051175 -0.050214 0.228934
vt 0.217749 0.130181
vt 0.226748 0.249976
vt 0.145822 0.332255
vt 0.102665 0.219475
vt 0.235816 0.361107
vt 0.247424 0.469371
vt 0.199310 0.408409
vt 0.734406 0.479334
vt 0.746013 0.587607
vt 0.702985 0.573250
vt 0.755082 0.698738
vt 0.764081 0.818533
vt 0.644428 0.812272
vt 0.663748 0.677678
vt 0.207789 -0.000651
vt 0.072576 0.088039
vt 0.774041 0.949356
vt 0.638347 0.946580
vt 0.605751 0.762069
vt 0.560240 0.538092
vt 0.621748 0.520226
vt 0.007888 0.283508
vt 0.076802 0.294985
vt 0.073257 0.528130
vt 0.006087 0.547898
vt 0.191822 0.492286
vt 0.134760 0.510263
vt 0.678810 0.502249
vt 0.538215 0.821059
vt 0.493075 0.557861
vt 0.632805 0.342218
vt 0.686297 0.418371
vt 0.494875 0.293471
vt 0.563785 0.304947
vt 0.176765 0.667715
vt 0.118768 0.752106
vt 0.215997 0.563287
vt 0.051227 0.811097
vt 0.589653 0.229438
vt 0.559564 0.098001
vt 0.694777 0.009321
vt 0.704731 0.140143
vt 0.157440 0.802309
vt 0.268094 0.688776
vt 0.277099 0.808571
vt 0.259031 0.577644
vt 0.722799 0.371070
vt 0.713736 0.259938
vt 0.151360 0.936617
vt 0.287053 0.939393
vt 0.765833 0.385427
vt 0.824389 0.146405
vt 0.805065 0.280989
vt 0.392177 0.719267
vt 0.422266 0.850703
vt 0.295532 0.530343
vt 0.349025 0.606497
vt 0.830471 0.012097
vt 0.486955 0.655243
vt 0.418045 0.643767
vt 0.421590 0.410612
vt 0.488755 0.390853
vt 0.303020 0.446456
vt 0.360082 0.428488
vt 0.847070 0.438451
vt 0.790008 0.456418
vt 0.863062 0.196608
vt 0.930603 0.137617
vt 0.975743 0.400816
vt 0.908573 0.420574
vt 0.836008 0.616459
vt 0.782520 0.540305
vt 0.973942 0.665206
vt 0.905028 0.653729
vt 0.318082 0.271027
vt 0.376079 0.186645
vt 0.278845 0.375465
vt 0.443615 0.127655
vt 0.337402 0.136442
vt 0.879165 0.729230
vt 0.343483 0.002134
vt 0.909254 0.860666
vn 0.3256 -0.8090 -0.4893
vn 0.0805 -0.2383 -0.9678
vn 0.0806 -0.1502 0.9854
vn 0.3256 -0.7617 0.5602
vn 0.3764 -0.9159 -0.1396
vn 0.2243 -0.5774 -0.7851
vn 0.2243 -0.5044 0.8339
vn 0.3764 -0.8996 0.2215
vn 0.7861 -0.3016 0.5394
vn 0.9087 -0.3841 -0.1636
vn 0.5414 -0.2605 -0.7994
vn 0.5414 -0.1875 0.8196
vn 0.9087 -0.3679 0.1975
vn 0.7861 -0.3490 -0.5101
vn 0.1944 -0.1245 -0.9730
vn 0.1945 -0.0364 0.9802
vn 0.5414 0.2605 0.7994
vn 0.9087 0.3841 0.1636
vn 0.7861 0.3016 -0.5394
vn 0.1944 0.0364 -0.9802
vn 0.1945 0.1245 0.9730
vn 0.7861 0.3490 0.5101
vn 0.9087 0.3679 -0.1975
vn 0.5414 0.1875 -0.8196
vn 0.3764 0.9159 0.1396
vn 0.3256 0.7617 -0.5602
vn 0.0805 0.1502 -0.9854
vn 0.0805 0.2383 0.9678
vn 0.3256 0.8090 0.4893
vn 0.3764 0.8996 -0.2215
vn 0.2243 0.5044 -0.8339
vn 0.2243 0.5774 0.7851
vn -0.0805 0.2383 0.9678
vn -0.3256 0.8090 0.4893
vn -0.3764 0.8996 -0.2215
vn -0.2243 0.5044 -0.8339
vn -0.2243 0.5774 0.7851
vn -0.3764 0.9159 0.1396
vn -0.3256 0.7617 -0.5602
vn -0.0805 0.1502 -0.9854
vn -0.9087 0.3679 -0.1975
vn -0.5414 0.1875 -0.8196
vn -0.5414 0.2605 0.7994
vn -0.9087 0.3841 0.1636
vn -0.7861 0.3016 -0.5394
vn -0.1944 0.0364 -0.9802
vn -0.1945 0.1245 0.9730
vn -0.7862 0.3490 0.5101
vn -0.5414 -0.1875 0.8196
vn -0.9087 -0.3679 0.1975
vn -0.7861 -0.3490 -0.5101
vn -0.1944 -0.1245 -0.9730
vn -0.1945 -0.0364 0.9802
vn -0.7861 -0.3016 0.5394
vn -0.9087 -0.3841 -0.1636
vn -0.5414 -0.2605 -0.7994
vn -0.3256 -0.8090 -0.4893
vn -0.0805 -0.2383 -0.9678
vn -0.0806 -0.1502 0.9854
vn -0.3256 -0.7617 0.5602
vn -0.3764 -0.9159 -0.1396
vn -0.2243 -0.5774 -0.7851
vn -0.2243 -0.5044 0.8339
vn -0.3764 -0.8996 0.2215
usemtl malwratheye
s 1
f 1/1/1 2/2/1 3/3/1 4/4/1
f 5/5/2 6/6/2 7/7/2
f 8/8/3 9/9/3 10/10/3
f 11/11/4 12/12/4 13/13/4 14/14/4
f 15/15/5 1/1/5 4/4/5 16/16/5
f 2/2/6 5/5/6 7/7/6 3/3/6
f 9/9/7 11/11/7 14/14/7 10/10/7
f 12/12/8 15/17/8 16/18/8 13/13/8
f 14/14/9 13/19/9 17/20/9 18/21/9
f 16/22/10 4/23/10 19/24/10 20/25/10
f 3/3/11 7/7/11 21/26/11 22/27/11
f 10/10/12 14/14/12 18/21/12 23/28/12
f 13/19/13 16/29/13 20/30/13 17/20/13
f 4/23/14 3/3/14 22/27/14 19/24/14
f 7/7/15 6/6/15 21/26/15
f 8/8/16 10/10/16 23/28/16
f 23/28/17 18/21/17 24/31/17 25/32/17
f 17/20/18 20/30/18 26/33/18 27/34/18
f 19/24/19 22/27/19 28/35/19 29/36/19
f 21/26/20 6/6/20 30/37/20
f 8/8/21 23/28/21 25/32/21
f 18/21/22 17/20/22 27/34/22 24/31/22
f 20/25/23 19/24/23 29/36/23 26/38/23
f 22/27/24 21/26/24 30/37/24 28/35/24
f 27/39/25 26/40/25 31/41/25 32/42/25
f 29/43/26 28/35/26 33/44/26 34/45/26
f 30/37/27 6/6/27 35/46/27
f 8/8/28 25/32/28 36/47/28
f 24/31/29 27/39/29 32/42/29 37/48/29
f 26/49/30 29/43/30 34/45/30 31/50/30
f 28/35/31 30/37/31 35/46/31 33/44/31
f 25/32/32 24/31/32 37/48/32 36/47/32
f 8/8/33 36/47/33 38/51/33
f 37/48/34 32/42/34 39/52/34 40/53/34
f 31/50/35 34/45/35 41/54/35 42/55/35
f 33/44/36 35/46/36 43/56/36 44/57/36
f 36/47/37 37/48/37 40/53/37 38/51/37
f 32/42/38 31/41/38 42/58/38 39/52/38
f 34/45/39 33/44/39 44/57/39 41/54/39
f 35/46/40 6/6/40 43/56/40
f 42/59/41 41/60/41 45/61/41 46/62/41
f 44/57/42 43/56/42 47/63/42 48/64/42
f 38/51/43 40/53/43 49/65/43 50/66/43
f 39/67/44 42/68/44 46/69/44 51/70/44
f 41/60/45 44/57/45 48/64/45 45/61/45
f 43/56/46 6/6/46 47/63/46
f 8/8/47 38/51/47 50/66/47
f 40/53/48 39/67/48 51/70/48 49/65/48
f 50/66/49 49/65/49 52/71/49 53/72/49
f 51/70/50 46/69/50 54/73/50 55/74/50
f 45/61/51 48/64/51 56/75/51 57/76/51
f 47/63/52 6/6/52 58/77/52
f 8/8/53 50/66/53 53/72/53
f 49/65/54 51/70/54 55/74/54 52/71/54
f 46/62/55 45/61/55 57/76/55 54/78/55
f 48/64/56 47/63/56 58/77/56 56/75/56
f 57/79/57 56/75/57 2/2/57 1/1/57
f 58/77/58 6/6/58 5/5/58
f 8/8/59 53/72/59 9/9/59
f 52/71/60 55/80/60 12/12/60 11/11/60
f 54/81/61 57/79/61 1/1/61 15/15/61
f 56/75/62 58/77/62 5/5/62 2/2/62
f 53/72/63 52/71/63 11/11/63 9/9/63
f 55/80/64 54/82/64 15/17/64 12/12/64
