# Blender v2.79 (sub 0) OBJ File: 'sprigganroot.blend'
# www.blender.org
mtllib sprigganroot.mtl
o Base
v -0.043209 0.042827 0.394895
v 0.090941 -0.025486 0.564843
v 0.099573 -0.024822 0.377332
v 0.061249 0.081113 0.379793
v 0.053168 0.078251 0.564843
v -0.004886 -0.063107 0.392434
v -0.012796 -0.063259 0.564843
v -0.050569 0.040478 0.564843
v 0.015041 0.078198 0.386113
v 0.007313 0.075285 0.564843
v 0.041322 -0.060193 0.386113
v 0.033059 -0.060292 0.564843
v 0.096358 0.022562 0.376550
v 0.087864 0.020949 0.564843
v -0.040220 -0.003374 0.395677
v -0.047713 -0.004798 0.564843
v 0.082943 -0.016115 -0.006453
v 0.076959 0.018881 0.186924
v 0.080151 -0.028637 0.187425
v -0.004960 0.074595 0.193056
v 0.041625 0.077565 0.189003
v 0.021392 -0.064170 0.193056
v -0.025193 -0.067140 0.197108
v 0.053910 -0.013688 -0.209808
v -0.060753 -0.007270 0.199187
v -0.063719 0.039062 0.198686
v 0.041624 -0.042215 -0.023000
v 0.021611 -0.019517 -0.375542
v 0.008671 -0.044072 -0.034910
v -0.016968 0.000951 -0.041020
v 0.021890 0.061704 -0.023000
v 0.054844 0.063561 -0.011091
v 0.080313 0.019425 -0.004980
v -0.019428 0.035604 -0.039547
v 0.021786 -0.033981 -0.196943
v -0.003835 -0.035425 -0.187684
v -0.023768 -0.000419 -0.182933
v 0.006443 0.046814 -0.196943
v 0.032064 0.048258 -0.206203
v 0.051866 0.013943 -0.210953
v -0.025681 0.026522 -0.184078
v -0.011128 -0.039774 -0.365911
v 0.094491 0.021807 -0.772397
v -0.037164 -0.041334 -0.358979
v -0.057238 -0.006771 -0.355423
v -0.026306 0.040155 -0.365911
v -0.000270 0.041714 -0.372843
v 0.019674 0.007835 -0.376399
v -0.059045 0.019898 -0.356280
v 0.045453 0.000403 -0.599032
v 0.031470 -0.008430 -0.604632
v 0.020317 -0.009059 -0.608663
v 0.011641 0.006178 -0.610731
v 0.024791 0.026738 -0.604632
v 0.035943 0.027367 -0.600602
v 0.044563 0.012430 -0.598534
v 0.010808 0.017905 -0.610232
vt 0.574130 0.859908
vt 0.540254 0.861884
vt 0.540911 0.724148
vt 0.573047 0.723487
vt 0.492428 0.719921
vt 0.535327 0.550068
vt 0.571631 0.560013
vt 0.335813 0.720881
vt 0.286553 0.719990
vt 0.287304 0.581665
vt 0.324197 0.578240
vt 0.415661 0.722169
vt 0.368989 0.721812
vt 0.347581 0.568365
vt 0.382357 0.552946
vt 0.656404 0.721406
vt 0.622033 0.721757
vt 0.629500 0.583580
vt 0.655077 0.583642
vt 0.286558 0.857499
vt 0.335482 0.856760
vt 0.349701 0.988893
vt 0.300831 0.993446
vt 0.368834 0.858509
vt 0.419172 0.860579
vt 0.431016 0.983946
vt 0.382820 0.986782
vt 0.490170 0.861167
vt 0.528762 0.986382
vt 0.479734 0.982943
vt 0.622779 0.857209
vt 0.610397 0.990684
vt 0.561553 0.988000
vt 0.656535 0.858258
vt 0.452548 0.858936
vt 0.447746 0.718397
vt 0.463766 0.981124
vt 0.644334 0.993669
vt 0.594891 0.570469
vt 0.574959 0.446416
vt 0.594724 0.441786
vt 0.328278 0.434174
vt 0.347686 0.438757
vt 0.623135 0.435124
vt 0.642986 0.433251
vt 0.407047 0.547924
vt 0.377181 0.444918
vt 0.397016 0.444781
vt 0.614467 0.312718
vt 0.634226 0.311811
vt 0.381803 0.320729
vt 0.400632 0.318876
vt 0.545171 0.447922
vt 0.539554 0.321238
vt 0.568204 0.322282
vt 0.299714 0.430324
vt 0.308314 0.309489
vt 0.336240 0.312244
vt 0.598299 0.138263
vt 0.610557 0.143002
vt 0.304206 0.149065
vt 0.316662 0.147512
vt 0.586850 0.318698
vt 0.618731 0.145569
vt 0.630801 0.148776
vt 0.354701 0.316365
vt 0.324777 0.145230
vt 0.336694 0.141410
vt 0.288663 0.018902
vt 0.656534 0.018902
vt 0.639568 0.149654
vt 0.344833 0.138316
vt 0.581127 0.808137
vt 0.492298 0.878244
vt 0.528066 0.808220
vt 0.650475 0.843823
vt 0.650475 0.897559
vt 0.561812 0.966314
vt 0.614873 0.966232
vt 0.492464 0.930629
vn 0.0648 -0.9978 0.0139
vn -0.8479 -0.5013 -0.1726
vn 0.8603 0.5095 0.0189
vn -0.5124 0.8516 -0.1109
vn 0.9974 0.0697 0.0182
vn 0.8562 0.5147 0.0442
vn -0.5177 0.8555 -0.0095
vn -0.8594 -0.5097 -0.0411
vn 0.5183 -0.8549 0.0221
vn 0.5147 -0.8566 -0.0355
vn 0.9925 0.0656 -0.1028
vn 0.0639 -0.9980 0.0022
vn -0.0628 0.9979 0.0131
vn -0.8540 -0.5106 0.0994
vn -0.9925 -0.0624 0.1050
vn -0.9970 -0.0641 -0.0444
vn 0.9967 0.0672 0.0458
vn 0.8512 0.5158 -0.0971
vn -0.0646 0.9978 -0.0119
vn -0.5145 0.8567 0.0373
vn 0.0588 -0.9966 -0.0573
vn -0.0527 0.9957 -0.0760
vn 0.9875 0.0738 -0.1392
vn -0.9963 -0.0710 0.0480
vn 0.5272 -0.8487 -0.0418
vn -0.9814 -0.0636 -0.1813
vn -0.0536 0.9961 -0.0695
vn 0.0693 -0.9934 -0.0914
vn 0.9791 0.0639 -0.1930
vn -0.9795 -0.0608 0.1922
vn -0.8429 -0.5064 0.1818
vn 0.8396 0.5116 -0.1826
vn -0.5329 0.8457 -0.0274
vn 0.5351 -0.8397 -0.0930
vn 0.8592 0.4935 -0.1353
vn -0.8684 -0.4938 0.0447
vn -0.8411 -0.4780 -0.2533
vn 0.8597 0.4998 0.1059
vn 0.5273 -0.8495 -0.0184
vn -0.5317 0.8323 -0.1566
vn -0.0663 0.9975 -0.0264
vn 0.0648 -0.9977 0.0217
vn -0.5124 0.8562 0.0660
vn 0.5113 -0.8566 -0.0699
vn -0.4583 0.8622 -0.2157
vn 0.1054 -0.9848 -0.1379
vn -0.0397 0.9982 -0.0458
vn 0.9586 0.0594 0.2785
vn -0.9622 -0.0686 -0.2636
vn 0.9910 0.0722 0.1123
vn -0.0641 0.9954 -0.0712
vn 0.0491 -0.9917 -0.1191
vn 0.5214 -0.8522 0.0423
vn 0.8195 0.5093 0.2628
vn -0.7559 -0.4895 -0.4347
vn -0.8874 -0.0435 -0.4590
vn 0.0000 0.0000 1.0000
usemtl spriggan
s off
f 11/1/1 6/2/1 23/3/1 22/4/1
f 23/3/2 25/5/2 30/6/2 29/7/2
f 21/8/3 18/9/3 33/10/3 32/11/3
f 26/12/4 20/13/4 31/14/4 34/15/4
f 18/16/5 19/17/5 17/18/5 33/19/5
f 13/20/6 4/21/6 5/22/6 14/23/6
f 9/24/7 1/25/7 8/26/7 10/27/7
f 15/28/8 6/2/8 7/29/8 16/30/8
f 11/1/9 3/31/9 2/32/9 12/33/9
f 3/31/10 11/1/10 22/4/10 19/17/10
f 13/34/11 3/31/11 19/17/11 18/16/11
f 6/2/12 11/1/12 12/33/12 7/29/12
f 4/21/13 9/24/13 10/27/13 5/22/13
f 6/2/14 15/28/14 25/5/14 23/3/14
f 15/35/15 1/25/15 26/12/15 25/36/15
f 1/25/16 15/35/16 16/37/16 8/26/16
f 3/31/17 13/34/17 14/38/17 2/32/17
f 4/21/18 13/20/18 18/9/18 21/8/18
f 9/24/19 4/21/19 21/8/19 20/13/19
f 1/25/20 9/24/20 20/13/20 26/12/20
f 27/39/21 29/7/21 36/40/21 35/41/21
f 31/14/22 32/11/22 39/42/22 38/43/22
f 33/19/23 17/18/23 24/44/23 40/45/23
f 30/46/24 34/15/24 41/47/24 37/48/24
f 19/17/25 22/4/25 27/39/25 17/18/25
f 25/36/26 26/12/26 34/15/26 30/46/26
f 20/13/27 21/8/27 32/11/27 31/14/27
f 22/4/28 23/3/28 29/7/28 27/39/28
f 40/45/29 24/44/29 28/49/29 48/50/29
f 37/48/30 41/47/30 49/51/30 45/52/30
f 36/40/31 37/53/31 45/54/31 44/55/31
f 39/42/32 40/56/32 48/57/32 47/58/32
f 34/15/33 31/14/33 38/43/33 41/47/33
f 17/18/34 27/39/34 35/41/34 24/44/34
f 32/11/35 33/10/35 40/56/35 39/42/35
f 29/7/36 30/6/36 37/53/36 36/40/36
f 44/55/37 45/54/37 53/59/37 52/60/37
f 47/58/38 48/57/38 56/61/38 55/62/38
f 28/49/39 42/63/39 51/64/39 50/65/39
f 49/51/40 46/66/40 54/67/40 57/68/40
f 38/43/41 39/42/41 47/58/41 46/66/41
f 35/41/42 36/40/42 44/55/42 42/63/42
f 41/47/43 38/43/43 46/66/43 49/51/43
f 24/44/44 35/41/44 42/63/44 28/49/44
f 57/68/45 54/67/45 43/69/45
f 51/64/46 52/60/46 43/70/46
f 54/67/47 55/62/47 43/69/47
f 56/71/48 50/65/48 43/70/48
f 45/52/49 49/51/49 57/68/49 53/72/49
f 48/50/50 28/49/50 50/65/50 56/71/50
f 46/66/51 47/58/51 55/62/51 54/67/51
f 42/63/52 44/55/52 52/60/52 51/64/52
f 50/65/53 51/64/53 43/70/53
f 55/62/54 56/61/54 43/69/54
f 52/60/55 53/59/55 43/70/55
f 53/72/56 57/68/56 43/69/56
f 12/73/57 16/74/57 7/75/57
f 2/76/57 14/77/57 12/73/57
f 12/73/57 14/77/57 10/78/57
f 16/74/57 12/73/57 10/78/57
f 5/79/57 10/78/57 14/77/57
f 10/78/57 8/80/57 16/74/57
