# Blender v2.79 (sub 0) OBJ File: 'woodenpaxel.blend'
# www.blender.org
mtllib woodenpaxel.mtl
o Base
v -0.050000 -0.050000 0.050000
v -0.050000 0.050000 0.050000
v -0.060000 -0.060000 -0.050000
v -0.060000 0.060000 -0.050000
v 0.050000 -0.050000 0.050000
v 0.050000 0.050000 0.050000
v 0.060000 -0.060000 -0.050000
v 0.060000 0.060000 -0.050000
v 0.000000 -0.084000 -0.050000
v 0.000000 0.084000 -0.050000
v 0.000000 -0.070000 0.050000
v 0.000000 0.070000 0.050000
v -0.070000 0.000000 0.050000
v -0.084000 0.000000 -0.050000
v 0.084000 0.000000 -0.050000
v 0.070000 0.000000 0.050000
v -0.042000 0.000000 0.700000
v 0.000000 0.000000 -0.050000
v -0.070000 0.000000 0.450000
v -0.050000 0.050000 0.450000
v 0.050000 -0.050000 0.450000
v 0.000000 -0.070000 0.450000
v 0.000000 0.070000 0.450000
v -0.050000 -0.050000 0.450000
v 0.050000 0.050000 0.450000
v -0.030000 0.030000 0.700000
v 0.042000 0.000000 0.700000
v 0.030000 -0.030000 0.700000
v 0.000000 -0.042000 0.700000
v 0.000000 0.042000 0.700000
v -0.030000 -0.030000 0.700000
v 0.030000 0.030000 0.700000
v 0.000000 0.000000 0.700000
v 0.238251 0.000000 0.275534
v -0.040000 0.040000 0.575000
v 0.040000 0.040000 0.575000
v 0.000000 0.056000 0.575000
v 0.040000 -0.040000 0.575000
v 0.000000 -0.056000 0.575000
v -0.040000 -0.040000 0.575000
v -0.181189 0.000000 0.474096
v -0.084309 0.000000 0.476132
v -0.068370 0.028000 0.477527
v -0.068370 -0.028000 0.477527
v -0.069116 0.032000 0.577843
v -0.069862 0.024000 0.678160
v -0.079425 0.000000 0.677323
v -0.069862 -0.024000 0.678160
v -0.069116 -0.032000 0.577843
v -0.413159 -0.000000 0.417098
v -0.165557 0.021560 0.479303
v -0.165557 -0.021560 0.479303
v -0.203299 0.024640 0.551692
v -0.241041 0.018480 0.624081
v -0.250420 0.000000 0.620957
v -0.241041 -0.018480 0.624081
v -0.203299 -0.024640 0.551692
v -0.594705 -0.000000 0.347440
v -0.405691 0.010780 0.420177
v -0.405691 -0.010780 0.420177
v -0.428907 0.012320 0.455059
v -0.452122 0.009240 0.489942
v -0.456603 -0.000000 0.488093
v -0.452122 -0.009240 0.489942
v -0.428907 -0.012320 0.455059
v 0.463771 -0.000000 0.409776
v 0.000000 -0.070000 0.350000
v 0.050000 -0.050000 0.350000
v 0.070000 0.000000 0.350000
v -0.070000 0.000000 0.350000
v 0.000000 0.070000 0.350000
v 0.050000 0.050000 0.350000
v -0.050000 0.050000 0.350000
v -0.050000 -0.050000 0.350000
v 0.090750 -0.036764 0.460485
v 0.444707 -0.000000 0.237441
v 0.091673 0.000000 0.707138
v 0.090750 0.036764 0.460485
v 0.086067 0.037211 0.578265
v 0.087619 0.000000 0.353554
v 0.081385 -0.027908 0.686018
v 0.081385 0.027908 0.686018
v 0.086067 -0.037211 0.578265
v 0.087060 -0.032560 0.359939
v 0.087060 0.032560 0.359939
v 0.265057 -0.002726 0.617482
v 0.253550 -0.003299 0.406495
v 0.275806 0.000000 0.755423
v 0.254809 -0.036764 0.429572
v 0.271466 -0.027908 0.745233
v 0.271466 0.027908 0.745233
v 0.263799 -0.037211 0.594405
v 0.236396 -0.032560 0.289375
v 0.236396 0.032560 0.289375
v 0.446890 0.007442 0.598951
v 0.437900 0.007353 0.412359
v 0.467587 -0.000000 0.596885
v 0.470732 -0.000000 0.781771
v 0.437900 -0.007353 0.412359
v 0.454558 -0.005582 0.769689
v 0.454558 0.005582 0.769689
v 0.446890 -0.007442 0.598951
v 0.419488 -0.006512 0.253655
v 0.419488 0.006512 0.253655
vt 0.198351 0.389755
vt 0.229577 0.400351
vt 0.215675 0.448919
vt 0.178410 0.451054
vt 0.218713 0.496292
vt 0.238913 0.454820
vt 0.257834 0.469360
vt 0.279117 0.499866
vt 0.287090 0.428456
vt 0.314694 0.446439
vt 0.366816 0.748459
vt 0.393574 0.721987
vt 0.403211 0.724050
vt 0.400124 0.747307
vt 0.225628 0.546251
vt 0.244805 0.531139
vt 0.275449 0.572220
vt 0.246428 0.588002
vt 0.259132 0.413717
vt 0.201988 0.552445
vt 0.216465 0.601793
vt 0.266576 0.786055
vt 0.298091 0.774612
vt 0.315534 0.836859
vt 0.283422 0.841852
vt 0.164082 0.550546
vt 0.204753 0.504179
vt 0.340784 0.240578
vt 0.307039 0.229186
vt 0.322916 0.165915
vt 0.357515 0.174916
vt 0.376531 0.252619
vt 0.392949 0.182362
vt 0.266037 0.500097
vt 0.302446 0.554177
vt 0.184930 0.612789
vt 0.421562 0.180459
vt 0.409348 0.253232
vt 0.406657 0.975425
vt 0.396849 0.900891
vt 0.425619 0.897075
vt 0.437142 0.964458
vt 0.377515 0.094654
vt 0.350708 0.085468
vt 0.381442 0.017370
vt 0.396709 0.024793
vt 0.404410 0.100403
vt 0.414581 0.025043
vt 0.331377 0.762407
vt 0.349888 0.827150
vt 0.384422 0.819347
vt 0.413496 0.820811
vt 0.275153 0.218685
vt 0.289754 0.161388
vt 0.401585 0.001990
vt 0.375032 0.000122
vt 0.426955 0.010261
vt 0.418821 0.990039
vt 0.393808 0.998106
vt 0.389049 0.975645
vt 0.367683 0.999884
vt 0.374015 0.982937
vt 0.343787 0.915792
vt 0.370225 0.906634
vt 0.327619 0.923650
vt 0.301783 0.860509
vt 0.341943 0.997077
vt 0.348009 0.982709
vt 0.354994 0.017570
vt 0.348826 0.002935
vt 0.402727 0.278080
vt 0.412129 0.276186
vt 0.334280 0.077557
vt 0.252469 0.057073
vt 0.252385 0.010648
vt 0.242048 0.999884
vt 0.247358 0.989553
vt 0.247336 0.944015
vt 0.279487 0.856606
vt 0.245812 0.895542
vt 0.231076 0.888460
vt 0.308506 0.142006
vt 0.285616 0.146164
vt 0.110603 0.943903
vt 0.104072 0.939779
vt 0.246953 0.000116
vt 0.114401 0.009517
vt 0.111327 0.004542
vt 0.111471 0.967477
vt 0.251037 0.106534
vt 0.112916 0.057543
vt 0.113747 0.033485
vt 0.236017 0.113815
vt 0.000116 0.977343
vt 0.000116 0.023678
vt 0.106262 0.061767
vt 0.112164 0.990962
vt 0.109163 0.995844
vt 0.433264 0.104274
vt 0.445553 0.036285
vt 0.561831 0.030122
vt 0.546441 0.100705
vt 0.448116 0.984425
vt 0.552590 0.969618
vt 0.556571 0.985961
vt 0.504401 0.715136
vt 0.516824 0.792487
vt 0.525735 0.221117
vt 0.511866 0.287112
vt 0.510594 0.307608
vt 0.533552 0.887622
vt 0.456642 0.016008
vt 0.565799 0.013744
vt 0.675405 0.021888
vt 0.664960 0.027456
vt 0.631522 0.227244
vt 0.614207 0.316561
vt 0.648239 0.123029
vt 0.655884 0.972759
vt 0.666292 0.978384
vt 0.605500 0.683199
vt 0.623232 0.772758
vt 0.503081 0.694499
vt 0.619560 0.673037
vt 0.638228 0.769812
vt 0.660445 0.125684
vt 0.639772 0.877170
vt 0.651995 0.874567
vt 0.628405 0.326415
vt 0.646433 0.230143
vn -0.9207 0.3683 0.1289
vn 0.0000 0.0000 -1.0000
vn 0.9207 0.3683 0.1289
vn 0.2799 -0.1431 -0.9493
vn 0.3683 -0.9207 0.1289
vn -0.3683 0.9207 0.1289
vn 0.3683 0.9207 0.1289
vn -0.3683 -0.9207 0.1289
vn -0.9285 -0.3714 0.0000
vn -0.3714 0.9285 0.0000
vn 0.3714 0.9285 0.0000
vn 0.9207 -0.3683 0.1289
vn -0.9207 -0.3683 0.1289
vn 0.3726 0.9276 -0.0263
vn 0.0593 -0.9945 0.0862
vn -0.3694 0.9235 0.1034
vn 0.3694 0.9235 0.1034
vn -0.3714 -0.9285 0.0000
vn 0.3726 -0.9276 -0.0263
vn -0.9285 0.3714 0.0000
vn 0.3714 -0.9285 0.0000
vn -0.0000 0.0000 1.0000
vn -0.3694 -0.9235 0.1034
vn 0.3694 -0.9235 0.1034
vn -0.5134 -0.8570 0.0439
vn -0.5012 -0.1870 0.8449
vn -0.5012 0.1870 0.8449
vn -0.2210 -0.9714 0.0867
vn 0.2799 0.1431 -0.9493
vn 0.1738 -0.9836 0.0492
vn -0.0599 0.9959 0.0683
vn -0.3075 -0.0485 0.9503
vn -0.0599 -0.9959 0.0683
vn -0.0031 -0.1340 -0.9910
vn -0.5134 0.8570 0.0439
vn -0.8472 0.3967 -0.3533
vn -0.2210 0.9714 0.0867
vn -0.8472 -0.3967 -0.3533
vn 0.2364 -0.0793 -0.9684
vn -0.5370 0.1187 0.8352
vn -0.0295 -0.9978 -0.0597
vn -0.0295 0.9978 -0.0597
vn -0.0031 0.1340 -0.9910
vn -0.0539 0.9971 -0.0529
vn -0.0539 -0.9971 -0.0529
vn -0.3075 0.0485 0.9503
vn -0.0318 -0.9974 -0.0652
vn -0.0318 0.9974 -0.0652
vn 0.3582 0.0186 -0.9335
vn -0.0915 0.9954 0.0270
vn -0.0727 -0.9964 0.0445
vn -0.5370 -0.1187 0.8352
vn -0.0727 0.9964 0.0445
vn 0.2364 0.0793 -0.9684
vn 0.9285 0.3714 0.0000
vn -0.6989 0.2017 0.6862
vn 0.3582 -0.0186 -0.9335
vn -0.0915 -0.9954 0.0270
vn -0.6989 -0.2017 0.6862
vn 0.9285 -0.3714 0.0000
vn 0.1309 0.9873 -0.0904
vn -0.2502 -0.4230 0.8709
vn -0.0110 -0.9994 -0.0339
vn 0.2276 0.9737 -0.0077
vn -0.4294 0.2533 -0.8669
vn -0.0001 -1.0000 -0.0032
vn 0.1738 0.9836 0.0492
vn 0.0704 -0.3656 0.9281
vn 0.0593 0.9945 0.0862
vn 0.0704 0.3656 0.9281
vn -0.0842 0.5155 0.8527
vn 0.0512 0.9915 0.1193
vn 0.0347 0.9946 -0.0975
vn -0.0842 -0.5155 0.8527
vn 0.1448 -0.9889 -0.0345
vn -0.0567 0.9984 0.0013
vn 0.1753 0.9765 0.1252
vn -0.2502 0.4230 0.8709
vn -0.4294 -0.2533 -0.8669
vn -0.0147 -0.9973 0.0719
vn 0.2512 -0.9674 -0.0309
vn 0.3343 0.9424 -0.0052
vn 0.3343 -0.9424 -0.0052
vn 0.2512 0.9674 -0.0309
vn 0.3018 -0.9533 -0.0106
vn 0.3018 0.9533 -0.0106
vn -0.1195 -0.5520 -0.8252
vn 0.1386 -0.9900 0.0278
vn 0.1592 -0.9872 -0.0097
vn -0.1195 0.5520 -0.8252
usemtl woodenpaxel
s off
f 13/1/1 2/2/1 4/3/1 14/4/1
f 18/5/2 10/6/2 8/7/2 15/8/2
f 15/8/3 8/7/3 6/9/3 16/10/3
f 68/11/4 69/12/4 80/13/4 84/14/4
f 9/15/5 7/16/5 5/17/5 11/18/5
f 10/6/6 4/3/6 2/2/6 12/19/6
f 8/7/7 10/6/7 12/19/7 6/9/7
f 3/20/8 9/15/8 11/18/8 1/21/8
f 70/22/9 74/23/9 24/24/9 19/25/9
f 14/4/2 4/3/2 10/6/2 18/5/2
f 3/20/2 14/26/2 18/27/2 9/15/2
f 71/28/10 73/29/10 20/30/10 23/31/10
f 72/32/11 71/28/11 23/31/11 25/33/11
f 7/16/12 15/34/12 16/35/12 5/17/12
f 9/15/2 18/27/2 15/34/2 7/16/2
f 1/21/13 13/36/13 14/26/13 3/20/13
f 72/32/14 25/33/14 78/37/14 85/38/14
f 28/39/15 38/40/15 83/41/15 81/42/15
f 37/43/16 35/44/16 26/45/16 30/46/16
f 36/47/17 37/43/17 30/46/17 32/48/17
f 74/23/18 67/49/18 22/50/18 24/24/18
f 21/51/19 68/11/19 84/14/19 75/52/19
f 73/29/20 70/53/20 19/54/20 20/30/20
f 67/49/21 68/11/21 21/51/21 22/50/21
f 33/55/22 30/46/22 26/45/22 17/56/22
f 27/57/22 32/48/22 30/46/22 33/55/22
f 28/39/22 27/58/22 33/59/22 29/60/22
f 29/60/22 33/59/22 17/61/22 31/62/22
f 40/63/23 39/64/23 29/60/23 31/62/23
f 39/64/24 38/40/24 28/39/24 29/60/24
f 24/24/25 40/63/25 49/65/25 44/66/25
f 31/62/26 17/61/26 47/67/26 48/68/26
f 17/56/27 26/45/27 46/69/27 47/70/27
f 40/63/28 31/62/28 48/68/28 49/65/28
f 22/50/24 21/51/24 38/40/24 39/64/24
f 24/24/23 22/50/23 39/64/23 40/63/23
f 25/33/17 23/31/17 37/43/17 36/47/17
f 23/31/16 20/30/16 35/44/16 37/43/16
f 69/71/29 72/32/29 85/38/29 80/72/29
f 38/40/30 21/51/30 75/52/30 83/41/30
f 46/69/31 45/73/31 53/74/31 54/75/31
f 48/68/32 47/67/32 55/76/32 56/77/32
f 49/65/33 48/68/33 56/77/33 57/78/33
f 42/79/34 44/66/34 52/80/34 41/81/34
f 35/44/35 20/30/35 43/82/35 45/73/35
f 20/30/36 19/54/36 42/83/36 43/82/36
f 26/45/37 35/44/37 45/73/37 46/69/37
f 19/25/38 24/24/38 44/66/38 42/79/38
f 41/81/39 52/80/39 60/84/39 50/85/39
f 55/86/40 54/75/40 62/87/40 63/88/40
f 52/80/41 57/78/41 65/89/41 60/84/41
f 53/74/42 51/90/42 59/91/42 61/92/42
f 43/82/43 42/83/43 41/93/43 51/90/43
f 45/73/44 43/82/44 51/90/44 53/74/44
f 44/66/45 49/65/45 57/78/45 52/80/45
f 47/70/46 46/69/46 54/75/46 55/86/46
f 60/84/47 65/89/47 58/94/47
f 61/92/48 59/91/48 58/95/48
f 59/91/49 50/96/49 58/95/49
f 62/87/50 61/92/50 58/95/50
f 57/78/51 56/77/51 64/97/51 65/89/51
f 56/77/52 55/76/52 63/98/52 64/97/52
f 54/75/53 53/74/53 61/92/53 62/87/53
f 51/90/54 41/93/54 50/96/54 59/91/54
f 12/19/10 2/2/10 73/29/10 71/28/10
f 6/9/11 12/19/11 71/28/11 72/32/11
f 1/21/18 11/18/18 67/49/18 74/23/18
f 16/10/55 6/9/55 72/32/55 69/71/55
f 63/88/56 62/87/56 58/95/56
f 50/85/57 60/84/57 58/94/57
f 65/89/58 64/97/58 58/94/58
f 64/97/59 63/98/59 58/94/59
f 2/2/20 13/1/20 70/53/20 73/29/20
f 11/18/21 5/17/21 68/11/21 67/49/21
f 13/36/9 1/21/9 74/23/9 70/22/9
f 5/17/60 16/35/60 69/12/60 68/11/60
f 79/99/61 82/100/61 91/101/61 86/102/61
f 77/103/62 81/42/62 90/104/62 88/105/62
f 75/52/63 84/14/63 93/106/63 89/107/63
f 78/37/64 79/99/64 86/102/64 87/108/64
f 80/72/65 85/38/65 94/109/65 34/110/65
f 83/41/66 75/52/66 89/107/66 92/111/66
f 25/33/67 36/47/67 79/99/67 78/37/67
f 27/58/68 28/39/68 81/42/68 77/103/68
f 36/47/69 32/48/69 82/100/69 79/99/69
f 32/48/70 27/57/70 77/112/70 82/100/70
f 91/101/71 88/113/71 98/114/71 101/115/71
f 94/109/72 87/108/72 96/116/72 104/117/72
f 86/102/73 91/101/73 101/115/73 95/118/73
f 88/105/74 90/104/74 100/119/74 98/120/74
f 89/107/75 93/106/75 103/121/75 99/122/75
f 87/108/76 86/102/76 95/118/76 96/116/76
f 85/38/77 78/37/77 87/108/77 94/109/77
f 82/100/78 77/112/78 88/113/78 91/101/78
f 84/14/79 80/13/79 34/123/79 93/106/79
f 81/42/80 83/41/80 92/111/80 90/104/80
f 103/121/81 76/124/81 66/125/81 99/122/81
f 97/126/82 95/118/82 101/115/82 98/114/82
f 102/127/83 97/128/83 98/120/83 100/119/83
f 76/129/84 104/117/84 96/116/84 66/130/84
f 99/122/85 66/125/85 97/128/85 102/127/85
f 66/130/86 96/116/86 95/118/86 97/126/86
f 93/106/87 34/123/87 76/124/87 103/121/87
f 90/104/88 92/111/88 102/127/88 100/119/88
f 92/111/89 89/107/89 99/122/89 102/127/89
f 34/110/90 94/109/90 104/117/90 76/129/90
