# Blender v2.80 (sub 75) OBJ File: ''
# www.blender.org
mtllib afritlung.mtl
o afritlung
v -0.118565 -0.042863 0.344885
v -0.138340 -0.063714 0.428717
v -0.151760 0.032085 0.431990
v -0.119989 0.037384 0.339099
v -0.139446 -0.066046 0.561187
v -0.152445 0.022638 0.556110
v -0.125724 0.100522 0.551140
v -0.127305 0.113050 0.436279
v -0.109597 0.105269 0.362397
v 0.005785 0.115208 0.342878
v 0.008367 0.143143 0.438565
v 0.085332 0.134596 0.436283
v 0.075315 0.110858 0.345173
v 0.008786 0.131889 0.553039
v 0.083866 0.122366 0.550276
v 0.138543 0.084730 0.548621
v 0.139422 0.097111 0.433736
v 0.119513 0.091578 0.360213
v 0.153977 0.013816 0.429075
v 0.121304 0.022965 0.336799
v 0.155890 0.004213 0.553171
v 0.132521 -0.082298 0.558594
v 0.129185 -0.079701 0.426167
v 0.110444 -0.056548 0.342701
v -0.007898 -0.107432 0.303120
v -0.009845 -0.157265 0.411258
v -0.086028 -0.130405 0.417642
v -0.076092 -0.083425 0.314353
v -0.007827 -0.147022 0.558694
v -0.085530 -0.124704 0.560753
v 0.066891 0.015106 0.294817
v -0.001119 0.008647 0.286597
v 0.062871 -0.091729 0.313028
v 0.122393 0.014393 0.669567
v 0.108544 -0.056937 0.677034
v 0.106671 0.084042 0.661392
v 0.075239 0.081585 0.730495
v 0.077311 0.033069 0.748546
v 0.079126 -0.021676 0.741992
v 0.009572 0.113055 0.753516
v -0.026399 0.108073 0.748730
v -0.027527 0.050395 0.782817
v 0.006269 0.052229 0.788338
v -0.059800 0.089654 0.731782
v -0.067292 0.041710 0.749924
v -0.075736 -0.012422 0.743468
v -0.043891 -0.024084 0.761415
v 0.001165 -0.029484 0.765075
v -0.115769 0.028624 0.671838
v -0.092024 0.095915 0.663286
v -0.110373 -0.043855 0.679122
v 0.072006 -0.134117 0.559251
v 0.061399 -0.093654 0.682960
v -0.003842 -0.100429 0.684580
v 0.046465 -0.029483 0.760554
v -0.066932 0.131378 0.551714
v -0.045977 0.126397 0.664920
v 0.009753 0.129890 0.666984
v 0.064621 0.119788 0.663866
v 0.044596 0.103830 0.748053
v -0.067831 -0.085932 0.684192
v 0.039496 0.046390 0.782178
v -0.063711 0.119166 0.346499
v -0.067707 0.023149 0.296100
v 0.069103 -0.139675 0.416163
v -0.069097 0.143824 0.437755
vt 0.960655 0.328349
vt 0.949768 0.444455
vt 0.849491 0.423615
vt 0.855544 0.321170
vt 0.928559 0.550347
vt 0.835415 0.521150
vt 0.742270 0.491953
vt 0.749213 0.402776
vt 0.750433 0.313991
vt 0.633757 0.320831
vt 0.633757 0.407729
vt 0.576147 0.406051
vt 0.575209 0.318643
vt 0.633757 0.495461
vt 0.579821 0.494262
vt 0.525885 0.491624
vt 0.518538 0.402359
vt 0.516660 0.313828
vt 0.515534 0.316464
vt 0.517633 0.403537
vt 0.414967 0.429378
vt 0.406218 0.328045
vt 0.525078 0.491622
vt 0.431347 0.525914
vt 0.337616 0.560205
vt 0.312300 0.455220
vt 0.296902 0.339626
vt 0.144645 0.329800
vt 0.178609 0.450497
vt 0.116122 0.467328
vt 0.073451 0.351096
vt 0.224128 0.559857
vt 0.171060 0.572472
vt 0.118798 0.590356
vt 0.054939 0.492679
vt 0.004124 0.384589
vt 0.765971 0.857411
vt 0.778899 0.918929
vt 0.643833 0.918160
vt 0.625116 0.856551
vt 0.807789 0.980545
vt 0.685461 0.979908
vt 0.563134 0.979271
vt 0.508768 0.917391
vt 0.484261 0.855692
vt 0.460446 0.614452
vt 0.379460 0.647511
vt 0.541431 0.581392
vt 0.563130 0.672174
vt 0.497176 0.698191
vt 0.431222 0.724209
vt 0.049691 0.873109
vt 0.043912 0.835822
vt 0.112126 0.835822
vt 0.115016 0.873109
vt 0.031196 0.798536
vt 0.105768 0.798536
vt 0.180341 0.798536
vt 0.180341 0.835823
vt 0.180341 0.873109
vt 0.807968 0.610500
vt 0.725790 0.581785
vt 0.890146 0.639215
vt 0.841410 0.717870
vt 0.772498 0.694940
vt 0.703587 0.672010
vt 0.278539 0.556023
vt 0.332061 0.646035
vt 0.288906 0.650320
vt 0.333757 0.557456
vt 0.375632 0.644471
vt 0.427918 0.721475
vt 0.396533 0.725163
vt 0.365239 0.729446
vt 0.687693 0.494262
vt 0.679460 0.583810
vt 0.633757 0.584582
vt 0.741629 0.491624
vt 0.725164 0.582113
vt 0.703229 0.673336
vt 0.668493 0.674161
vt 0.633757 0.674536
vt 0.588054 0.583810
vt 0.542350 0.582113
vt 0.599021 0.674161
vt 0.564285 0.673336
vt 0.246444 0.659139
vt 0.204399 0.670678
vt 0.334097 0.734719
vt 0.303045 0.740587
vt 0.031196 0.947681
vt 0.043912 0.910395
vt 0.112126 0.910395
vt 0.105768 0.947681
vt 0.180341 0.910395
vt 0.180341 0.947681
vt 0.809288 0.734796
vt 0.779648 0.796055
vt 0.644584 0.795176
vt 0.686962 0.733940
vt 0.509519 0.794297
vt 0.564636 0.733084
vt 0.295120 0.340051
vt 0.309233 0.453759
vt 0.243269 0.447868
vt 0.218949 0.328828
vt 0.750854 0.313828
vt 0.748976 0.402359
vt 0.691367 0.406051
vt 0.692306 0.318643
vn -0.9531 -0.0845 -0.2905
vn -0.9898 -0.1419 -0.0134
vn -0.9513 0.3066 0.0318
vn -0.9227 0.2675 -0.2777
vn 0.0844 0.9589 -0.2709
vn 0.1207 0.9874 0.1021
vn 0.5682 0.8175 0.0937
vn 0.5082 0.8273 -0.2395
vn 0.9425 0.1560 -0.2955
vn 0.9815 0.1911 0.0133
vn 0.9654 -0.2587 -0.0321
vn 0.9306 -0.1971 -0.3085
vn -0.3473 -0.8451 -0.4065
vn -0.3012 -0.9520 0.0548
vn -0.7626 -0.6468 0.0062
vn -0.7679 -0.5535 -0.3226
vn 0.0606 0.4618 -0.8849
vn 0.5002 0.3377 -0.7974
vn 0.6099 -0.1494 -0.7783
vn 0.1529 -0.1594 -0.9753
vn 0.9440 -0.2012 0.2615
vn 0.9386 0.2286 0.2583
vn 0.8752 0.2266 0.4274
vn 0.8727 -0.0798 0.4816
vn -0.1742 0.4999 0.8484
vn -0.6127 0.3899 0.6874
vn -0.5795 -0.0642 0.8125
vn -0.1232 -0.2572 0.9585
vn -0.8997 0.3384 0.2758
vn -0.9561 -0.0877 0.2796
vn -0.8667 0.0241 0.4982
vn -0.8337 0.3288 0.4437
vn 0.1293 -0.9352 0.3296
vn 0.6188 -0.7312 0.2871
vn 0.5237 -0.6136 0.5909
vn 0.0824 -0.7550 0.6505
vn -0.0313 0.9989 0.0337
vn -0.5011 0.8509 0.1577
vn -0.5499 0.7748 0.3121
vn -0.1057 0.9714 0.2125
vn 0.6018 0.7850 0.1472
vn 0.1507 0.9881 0.0320
vn 0.2246 0.9517 0.2094
vn 0.6440 0.7034 0.3007
vn -0.6959 -0.6526 0.2997
vn -0.2334 -0.9135 0.3331
vn -0.1594 -0.7406 0.6528
vn -0.5817 -0.5476 0.6015
vn 0.6677 0.3134 0.6752
vn 0.2485 0.4746 0.8444
vn 0.1099 -0.2711 0.9563
vn 0.5830 -0.1337 0.8014
vn -0.4715 0.3957 -0.7881
vn -0.0219 0.4668 -0.8841
vn -0.1892 -0.1389 -0.9721
vn -0.6380 -0.0748 -0.7664
vn 0.6902 -0.6406 -0.3365
vn 0.6801 -0.7331 -0.0075
vn 0.1867 -0.9811 0.0502
vn 0.2364 -0.8800 -0.4120
vn -0.4105 0.8822 -0.2307
vn -0.4650 0.8793 0.1036
vn -0.0003 0.9947 0.1032
vn 0.0252 0.9624 -0.2704
usemtl afritlung
s 1
f 1/1/1 2/2/1 3/3/1 4/4/1
f 2/2/2 5/5/2 6/6/2 3/3/2
f 3/3/3 6/6/3 7/7/3 8/8/3
f 4/4/4 3/3/4 8/8/4 9/9/4
f 10/10/5 11/11/5 12/12/5 13/13/5
f 11/11/6 14/14/6 15/15/6 12/12/6
f 12/12/7 15/15/7 16/16/7 17/17/7
f 13/13/8 12/12/8 17/17/8 18/18/8
f 18/19/9 17/20/9 19/21/9 20/22/9
f 17/20/10 16/23/10 21/24/10 19/21/10
f 19/21/11 21/24/11 22/25/11 23/26/11
f 20/22/12 19/21/12 23/26/12 24/27/12
f 25/28/13 26/29/13 27/30/13 28/31/13
f 26/29/14 29/32/14 30/33/14 27/30/14
f 27/30/15 30/33/15 5/34/15 2/35/15
f 28/31/16 27/30/16 2/35/16 1/36/16
f 10/37/17 13/38/17 31/39/17 32/40/17
f 13/38/18 18/41/18 20/42/18 31/39/18
f 31/39/19 20/42/19 24/43/19 33/44/19
f 32/40/20 31/39/20 33/44/20 25/45/20
f 22/25/21 21/24/21 34/46/21 35/47/21
f 21/24/22 16/23/22 36/48/22 34/46/22
f 34/46/23 36/48/23 37/49/23 38/50/23
f 35/47/24 34/46/24 38/50/24 39/51/24
f 40/52/25 41/53/25 42/54/25 43/55/25
f 41/53/26 44/56/26 45/57/26 42/54/26
f 42/54/27 45/57/27 46/58/27 47/59/27
f 43/55/28 42/54/28 47/59/28 48/60/28
f 7/7/29 6/6/29 49/61/29 50/62/29
f 6/6/30 5/5/30 51/63/30 49/61/30
f 49/61/31 51/63/31 46/64/31 45/65/31
f 50/62/32 49/61/32 45/65/32 44/66/32
f 29/32/33 52/67/33 53/68/33 54/69/33
f 52/67/34 22/70/34 35/71/34 53/68/34
f 53/68/35 35/71/35 39/72/35 55/73/35
f 54/69/36 53/68/36 55/73/36 48/74/36
f 14/14/37 56/75/37 57/76/37 58/77/37
f 56/75/38 7/78/38 50/79/38 57/76/38
f 57/76/39 50/79/39 44/80/39 41/81/39
f 58/77/40 57/76/40 41/81/40 40/82/40
f 16/16/41 15/15/41 59/83/41 36/84/41
f 15/15/42 14/14/42 58/77/42 59/83/42
f 59/83/43 58/77/43 40/82/43 60/85/43
f 36/84/44 59/83/44 60/85/44 37/86/44
f 5/34/45 30/33/45 61/87/45 51/88/45
f 30/33/46 29/32/46 54/69/46 61/87/46
f 61/87/47 54/69/47 48/74/47 47/89/47
f 51/88/48 61/87/48 47/89/48 46/90/48
f 37/91/49 60/92/49 62/93/49 38/94/49
f 60/92/50 40/52/50 43/55/50 62/93/50
f 62/93/51 43/55/51 48/60/51 55/95/51
f 38/94/52 62/93/52 55/95/52 39/96/52
f 9/97/53 63/98/53 64/99/53 4/100/53
f 63/98/54 10/37/54 32/40/54 64/99/54
f 64/99/55 32/40/55 25/45/55 28/101/55
f 4/100/56 64/99/56 28/101/56 1/102/56
f 24/103/57 23/104/57 65/105/57 33/106/57
f 23/104/58 22/70/58 52/67/58 65/105/58
f 65/105/59 52/67/59 29/32/59 26/29/59
f 33/106/60 65/105/60 26/29/60 25/28/60
f 9/107/61 8/108/61 66/109/61 63/110/61
f 8/108/62 7/78/62 56/75/62 66/109/62
f 66/109/63 56/75/63 14/14/63 11/11/63
f 63/110/64 66/109/64 11/11/64 10/10/64
