# Blender v2.80 (sub 75) OBJ File: ''
# www.blender.org
mtllib apollyonclaw.mtl
o apollyonclaw
v -0.124845 -0.114418 0.512231
v -0.124326 -0.145958 0.487876
v -0.114397 -0.138530 0.479948
v -0.103001 -0.114575 0.495443
v -0.149047 -0.148268 0.453565
v -0.178233 -0.129941 0.429774
v -0.131148 -0.100097 0.400461
v -0.124687 -0.131103 0.436743
v -0.191111 -0.099558 0.436972
v -0.190736 -0.072148 0.459223
v -0.130402 -0.040217 0.419582
v -0.132660 -0.066044 0.400530
v -0.166909 -0.065708 0.495638
v -0.138617 -0.079909 0.521534
v -0.114461 -0.047094 0.487844
v -0.126582 -0.033458 0.462573
v -0.204504 -0.177013 0.541073
v -0.216216 -0.158380 0.552352
v -0.144126 -0.135120 0.546181
v -0.146188 -0.161401 0.534610
v -0.120711 -0.136123 0.460602
v -0.156481 -0.113491 0.558985
v -0.213511 -0.135092 0.562397
v -0.173738 -0.176694 0.534033
v -0.169643 -0.186376 0.644101
v -0.186604 -0.116805 0.564499
v 0.094168 -0.278032 0.462527
v 0.115036 -0.274603 0.452983
v 0.108807 -0.167323 0.462909
v 0.085507 -0.167504 0.473906
v 0.119611 -0.273576 0.416687
v 0.111039 -0.274664 0.380706
v 0.104991 -0.179689 0.383269
v 0.113460 -0.162355 0.423219
v 0.092459 -0.277576 0.372102
v 0.074221 -0.280582 0.381583
v 0.059535 -0.181991 0.380262
v 0.085556 -0.167236 0.362795
v 0.067015 -0.282031 0.417942
v 0.072958 -0.281367 0.453986
v 0.063352 -0.184366 0.463114
v 0.059411 -0.208085 0.422294
v 0.122242 -0.462432 0.442058
v 0.108475 -0.470529 0.437903
v 0.104841 -0.412274 0.482823
v 0.121351 -0.415503 0.477947
v 0.089055 -0.420695 0.478717
v 0.093982 -0.466973 0.442732
v 0.126843 -0.438158 0.459882
v 0.118316 -0.563353 0.584802
v 0.086472 -0.444645 0.460845
v 0.029571 -0.313076 0.456061
v 0.052145 -0.314527 0.445141
v 0.037018 -0.182386 0.468992
v 0.055302 -0.314784 0.408567
v 0.043933 -0.314118 0.373177
v 0.022938 -0.312795 0.365810
v 0.003266 -0.311528 0.376492
v 0.002138 -0.170468 0.380137
v 0.033059 -0.151460 0.361726
v -0.002795 -0.311087 0.413304
v 0.005669 -0.311568 0.448930
v 0.006667 -0.197512 0.458988
v 0.004655 -0.204382 0.417235
v 0.033619 -0.502873 0.435223
v 0.017367 -0.507778 0.432027
v 0.023820 -0.448783 0.476697
v 0.041012 -0.455818 0.470776
v 0.005337 -0.453548 0.473684
v 0.002405 -0.500886 0.437768
v 0.042890 -0.479700 0.452545
v 0.023172 -0.601352 0.578908
v -0.001703 -0.476860 0.456183
v -0.098347 -0.280283 0.470489
v -0.076721 -0.286466 0.458350
v -0.053633 -0.192409 0.465450
v -0.083486 -0.186611 0.479219
v -0.075137 -0.287712 0.421584
v -0.087708 -0.285042 0.386779
v -0.057207 -0.156931 0.387675
v -0.058860 -0.197985 0.425396
v -0.108542 -0.279481 0.380535
v -0.127338 -0.274082 0.392280
v -0.116464 -0.145376 0.391113
v -0.086513 -0.136690 0.374083
v -0.131750 -0.272055 0.429440
v -0.122012 -0.273941 0.464636
v -0.110235 -0.186794 0.472142
v -0.120039 -0.170433 0.432297
v -0.113691 -0.471735 0.450072
v -0.130292 -0.473357 0.447769
v -0.116372 -0.415073 0.491916
v -0.100382 -0.425708 0.485089
v -0.135144 -0.416094 0.489914
v -0.144108 -0.463324 0.454294
v -0.101605 -0.450222 0.466828
v -0.127673 -0.567067 0.594753
v -0.145058 -0.438206 0.472858
v -0.038454 -0.312663 0.459197
v -0.016878 -0.319731 0.446825
v -0.019944 -0.188937 0.472546
v -0.015373 -0.322441 0.409669
v -0.028005 -0.320893 0.374570
v -0.048829 -0.315178 0.368366
v -0.067580 -0.308962 0.380326
v -0.023985 -0.148654 0.366189
v -0.071911 -0.305400 0.417893
v -0.062108 -0.306098 0.453402
v -0.054770 -0.522172 0.434011
v -0.071387 -0.524119 0.431623
v -0.057094 -0.458878 0.477607
v -0.041164 -0.470635 0.470484
v -0.075881 -0.460169 0.475533
v -0.085148 -0.513015 0.438430
v -0.042543 -0.498038 0.451458
v -0.068929 -0.620796 0.577825
v -0.085940 -0.484958 0.457770
v 0.001420 -0.045240 0.476711
v 0.136917 -0.059355 0.465250
v 0.126732 0.057917 0.478224
v 0.003205 0.063544 0.496098
v 0.128994 -0.078399 0.398187
v 0.111000 -0.088509 0.344373
v 0.111149 0.066296 0.348521
v 0.122719 0.061128 0.402901
v -0.010124 -0.083830 0.321631
v -0.114194 -0.066731 0.349928
v -0.121132 0.069592 0.354557
v -0.006530 0.062301 0.327534
v -0.126459 0.070905 0.416589
v -0.083123 0.157344 0.410223
v -0.085414 0.160390 0.366344
v -0.002235 0.158805 0.336793
v 0.084448 0.152559 0.374396
v -0.003270 -0.158373 0.474353
v 0.001355 0.154031 0.405583
v -0.079532 0.152569 0.479011
v 0.004947 0.149255 0.474372
v 0.087271 0.148804 0.428495
v 0.089424 0.145943 0.469732
v -0.100843 0.067772 0.494364
vt 0.862378 0.220151
vt 0.864198 0.247278
vt 0.870516 0.246724
vt 0.875714 0.226124
vt 0.340266 0.761185
vt 0.361577 0.745601
vt 0.344034 0.703285
vt 0.327276 0.739134
vt 0.004893 0.719619
vt 0.027577 0.720947
vt 0.038271 0.657002
vt 0.015302 0.654070
vt 0.054379 0.730459
vt 0.079354 0.743872
vt 0.081253 0.696961
vt 0.064168 0.679563
vt 0.368679 0.828052
vt 0.383439 0.833647
vt 0.383439 0.737447
vt 0.841726 0.223961
vt 0.841403 0.242288
vt 0.318532 0.781220
vt 0.319416 0.757704
vt 0.312052 0.771929
vt 0.859333 0.194777
vt 0.838129 0.206961
vt 0.028554 0.823608
vt 0.043499 0.813069
vt 0.359497 0.682333
vt 0.878649 0.178745
vt 0.350346 0.822927
vt 0.349640 0.901963
vt 0.081253 0.883391
vt 0.330414 0.820316
vt 0.060473 0.800511
vt 0.078142 0.789303
vt 0.792902 0.231559
vt 0.968256 0.338687
vt 0.978323 0.335523
vt 0.973272 0.267461
vt 0.962294 0.267306
vt 0.546615 0.215308
vt 0.530826 0.218968
vt 0.538602 0.281755
vt 0.557437 0.288903
vt 0.257850 0.372173
vt 0.265332 0.378957
vt 0.283311 0.320655
vt 0.273225 0.301854
vt 0.034117 0.409240
vt 0.057635 0.416546
vt 0.082922 0.355188
vt 0.051661 0.361939
vt 0.250075 0.368179
vt 0.226103 0.484508
vt 0.231601 0.489452
vt 0.975767 0.428910
vt 0.983368 0.429199
vt 0.010295 0.401409
vt 0.029714 0.336617
vt 0.562025 0.210642
vt 0.574189 0.280651
vt 0.958398 0.341280
vt 0.968299 0.433581
vt 0.237216 0.492320
vt 0.259925 0.308078
vt 0.952656 0.279666
vt 0.552609 0.102122
vt 0.595588 0.004827
vt 0.543054 0.088244
vt 0.207970 0.586154
vt 0.562169 0.114970
vt 0.012010 0.534808
vt 0.082922 0.627973
vt 0.028557 0.523514
vt 0.045238 0.512166
vt 0.985631 0.544546
vt 0.936283 0.361749
vt 0.947257 0.363173
vt 0.941185 0.276602
vt 0.158706 0.884046
vt 0.134535 0.891185
vt 0.162702 0.987081
vt 0.185379 0.959675
vt 0.289831 0.408444
vt 0.298712 0.411532
vt 0.312537 0.321973
vt 0.299403 0.301122
vt 0.411173 0.103864
vt 0.430169 0.110633
vt 0.452338 0.041031
vt 0.429478 0.037914
vt 0.280822 0.407522
vt 0.270790 0.536243
vt 0.277706 0.538963
vt 0.930227 0.455042
vt 0.938733 0.458903
vt 0.391660 0.097210
vt 0.415371 0.009849
vt 0.182429 0.877008
vt 0.215945 0.969553
vt 0.925384 0.359832
vt 0.921445 0.456271
vt 0.284889 0.539419
vt 0.927670 0.287145
vt 0.157773 0.754995
vt 0.215945 0.638983
vt 0.141659 0.740981
vt 0.267783 0.650685
vt 0.174008 0.768433
vt 0.394419 0.226306
vt 0.452338 0.315894
vt 0.407802 0.214650
vt 0.421147 0.203602
vt 0.921981 0.576791
vt 0.879933 0.337811
vt 0.890594 0.342214
vt 0.900876 0.282672
vt 0.887020 0.276380
vt 0.038584 0.220636
vt 0.019596 0.228279
vt 0.042885 0.309579
vt 0.055550 0.276525
vt 0.362964 0.402632
vt 0.372055 0.400808
vt 0.371416 0.315211
vt 0.356563 0.305572
vt 0.699858 0.334018
vt 0.719839 0.339014
vt 0.732835 0.279971
vt 0.711520 0.263633
vt 0.353908 0.406824
vt 0.364923 0.531010
vt 0.371394 0.529969
vt 0.868495 0.427866
vt 0.876501 0.433943
vt 0.679201 0.330704
vt 0.690668 0.241855
vt 0.057541 0.213803
vt 0.077259 0.272550
vt 0.869265 0.332946
vt 0.860298 0.426889
vt 0.378277 0.526663
vt 0.342584 0.321444
vt 0.875230 0.277724
vt 0.033850 0.109786
vt 0.077259 0.008870
vt 0.020642 0.098820
vt 0.381901 0.635448
vt 0.047399 0.120942
vt 0.694567 0.466828
vt 0.761978 0.553806
vt 0.707174 0.452087
vt 0.719581 0.438805
vt 0.852367 0.543073
vt 0.906602 0.359558
vt 0.917172 0.364624
vt 0.915470 0.280140
vt 0.123421 0.211371
vt 0.105440 0.216266
vt 0.128128 0.296484
vt 0.142088 0.273655
vt 0.324593 0.420206
vt 0.333677 0.419521
vt 0.326320 0.307040
vt 0.122972 0.426117
vt 0.144677 0.431841
vt 0.168685 0.363227
vt 0.143992 0.360624
vt 0.315356 0.422461
vt 0.315864 0.553166
vt 0.322213 0.553556
vt 0.894997 0.456104
vt 0.902945 0.462971
vt 0.100169 0.421925
vt 0.128154 0.329166
vt 0.141496 0.207422
vt 0.162992 0.271618
vt 0.895997 0.354693
vt 0.886844 0.455364
vt 0.329277 0.551109
vt 0.120333 0.111978
vt 0.162992 0.027219
vt 0.108029 0.100871
vt 0.324860 0.657359
vt 0.133057 0.123484
vt 0.102608 0.557222
vt 0.168685 0.645925
vt 0.118316 0.543144
vt 0.133599 0.530561
vt 0.878585 0.574290
vt 0.928155 0.187137
vt 0.985631 0.200811
vt 0.984434 0.128246
vt 0.932773 0.118193
vt 0.553298 0.348685
vt 0.528427 0.346986
vt 0.539563 0.449861
vt 0.563084 0.440934
vt 0.324401 0.251481
vt 0.370116 0.252620
vt 0.381901 0.161890
vt 0.333064 0.157245
vt 0.717529 0.095583
vt 0.719362 0.030285
vt 0.694988 0.026287
vt 0.683747 0.092338
vt 0.338081 0.099969
vt 0.303272 0.080621
vt 0.285064 0.137306
vt 0.583461 0.354896
vt 0.595298 0.432828
vt 0.922977 0.259970
vt 0.339262 0.059556
vt 0.375034 0.066283
vt 0.377925 0.018068
vt 0.340730 0.012432
vt 0.372490 0.096868
vt 0.577869 0.502786
vt 0.595588 0.497781
vt 0.937463 0.064435
vt 0.902164 0.057744
vt 0.889668 0.109435
vt 0.761978 0.098397
vt 0.757445 0.037463
vt 0.554489 0.509157
vt 0.972669 0.071589
vt 0.302503 0.041740
vt 0.302602 0.012108
vt 0.272521 0.240619
vt 0.703967 0.187655
vt 0.714782 0.170370
vt 0.674531 0.184498
vt 0.718126 0.236813
vt 0.730738 0.243397
vt 0.701799 0.210675
vt 0.741600 0.247819
vt 0.739009 0.167622
vt 0.754391 0.177261
vn 0.5891 -0.5443 0.5972
vn 0.0693 -0.7504 -0.6573
vn -0.6453 0.4879 -0.5878
vn -0.1936 0.7895 0.5824
vn -0.8843 -0.3130 -0.3466
vn 0.9039 -0.2429 0.3521
vn -0.5175 0.8548 0.0381
vn 0.4350 -0.8639 -0.2538
vn 0.8185 0.1641 0.5506
vn -0.9803 0.1449 -0.1340
vn -0.5201 -0.0198 -0.8539
vn 0.6779 0.1557 0.7185
vn -0.0096 -0.9961 -0.0873
vn -0.8986 -0.0816 0.4312
vn 0.4847 -0.8696 -0.0945
vn -0.4671 0.6141 0.6362
vn -0.0645 0.7916 0.6077
vn -0.1601 -0.9032 -0.3981
vn -0.6045 0.7246 0.3311
vn 0.4093 -0.8983 -0.1600
vn -0.7681 -0.6067 0.2048
vn 0.8826 0.2809 0.3770
vn 0.9729 -0.1528 0.1736
vn 0.0364 0.7563 0.6532
vn 0.4249 -0.0593 0.9033
vn 0.9699 0.0677 -0.2341
vn -0.4897 -0.0947 -0.8667
vn -0.9806 -0.1114 0.1614
vn 0.4293 -0.2583 -0.8654
vn 0.3537 0.1730 0.9192
vn -0.9829 -0.1246 -0.1357
vn 0.9912 0.0468 0.1241
vn -0.3546 0.1180 0.9276
vn -0.3834 -0.3254 -0.8644
vn 0.6095 0.0124 -0.7927
vn -0.3558 -0.1229 0.9264
vn 0.9882 -0.1364 -0.0693
vn -0.3569 -0.8003 -0.4818
vn 0.9802 0.1024 0.1695
vn -0.9555 -0.2929 -0.0351
vn -0.9794 -0.0732 0.1883
vn 0.9730 -0.0173 -0.2300
vn -0.9661 -0.1673 -0.1969
vn 0.9854 0.0775 0.1516
vn 0.5484 -0.6898 -0.4726
vn -0.4491 0.4720 0.7586
vn 0.3337 0.5477 0.7673
vn -0.9775 -0.0478 0.2053
vn 0.3135 -0.1338 0.9401
vn 0.9839 -0.0667 -0.1660
vn -0.5021 0.0137 -0.8647
vn -0.9908 0.0296 0.1317
vn 0.2869 -0.3143 -0.9049
vn 0.4095 0.1260 0.9036
vn -0.9990 0.0266 -0.0359
vn 0.9978 -0.0659 0.0103
vn -0.2414 0.1617 0.9569
vn -0.4639 -0.2719 -0.8431
vn 0.4624 -0.0315 -0.8861
vn -0.2819 -0.0801 0.9561
vn 0.9500 -0.2855 -0.1266
vn -0.5101 -0.7344 -0.4477
vn 0.9909 -0.0231 0.1324
vn -0.9834 -0.1806 0.0162
vn -0.9646 0.0543 0.2581
vn 0.9407 -0.1515 -0.3037
vn -0.9859 -0.0477 -0.1604
vn 0.9923 -0.0505 0.1134
vn 0.3389 -0.7874 -0.5150
vn -0.2688 0.5369 0.7997
vn 0.4569 0.4938 0.7399
vn -0.9575 0.0814 0.2767
vn 0.4140 -0.1593 0.8962
vn 0.9449 -0.1973 -0.2612
vn -0.5099 0.0377 -0.8594
vn -0.9560 0.1039 0.2742
vn 0.1754 -0.3390 -0.9243
vn 0.4774 0.0812 0.8749
vn -0.9926 0.0979 -0.0724
vn 0.9778 -0.2078 -0.0279
vn -0.1570 0.1814 0.9708
vn -0.5530 -0.2159 -0.8047
vn 0.3293 -0.0831 -0.9406
vn -0.2538 -0.0494 0.9660
vn 0.9091 -0.3827 -0.1643
vn -0.6547 -0.6426 -0.3980
vn 0.9886 -0.1187 0.0931
vn -0.9951 -0.0800 0.0573
vn -0.9432 0.1472 0.2978
vn 0.9067 -0.2433 -0.3447
vn -0.9917 0.0486 -0.1191
vn 0.9864 -0.1460 0.0748
vn 0.1552 -0.8317 -0.5330
vn -0.1179 0.5625 0.8184
vn 0.5800 0.4265 0.6941
vn -0.9325 0.1738 0.3167
vn 0.4253 -0.1650 0.8899
vn 0.9464 -0.1632 -0.2787
vn -0.5418 0.0735 -0.8373
vn -0.9787 0.0785 0.1896
vn 0.1843 -0.3019 -0.9354
vn 0.4818 0.0542 0.8746
vn -0.9952 0.0918 -0.0334
vn 0.9836 -0.1796 0.0155
vn -0.1623 0.1492 0.9754
vn -0.5626 -0.1823 -0.8064
vn 0.3671 -0.0538 -0.9286
vn -0.2227 -0.0786 0.9717
vn 0.9218 -0.3561 -0.1534
vn -0.6873 -0.6111 -0.3926
vn 0.9888 -0.1153 0.0944
vn -0.9956 -0.0704 0.0614
vn -0.9469 0.1333 0.2927
vn 0.9148 -0.2216 -0.3376
vn -0.9917 0.0516 -0.1179
vn 0.9871 -0.1401 0.0773
vn 0.1744 -0.8200 -0.5452
vn -0.1289 0.5287 0.8390
vn 0.5998 0.3890 0.6993
vn -0.9373 0.1575 0.3110
vn 0.1011 -0.1373 0.9854
vn 0.9639 0.0280 -0.2647
vn -0.2416 0.0333 -0.9698
vn -0.9129 0.4078 -0.0195
vn 0.2714 0.2137 -0.9384
vn -0.2441 -0.2755 0.9298
vn 0.9934 0.0699 -0.0911
vn 0.0545 0.0146 0.9984
vn 0.0428 0.9968 0.0670
vn 0.9225 0.3848 -0.0288
vn 0.0234 0.2094 0.9775
vn -0.9078 0.3682 0.2008
vn 0.9285 0.3594 -0.0936
vn 0.1138 0.1928 0.9746
vn 0.1543 0.0344 0.9874
vn -0.1089 -0.3871 0.9156
vn -0.2645 0.1633 -0.9504
vn 0.1801 0.0306 -0.9832
vn 0.0411 -0.1178 0.9922
vn -0.3504 -0.4265 -0.8338
vn 0.3722 -0.2558 0.8922
vn -0.2115 0.0577 0.9757
vn -0.8886 0.3201 -0.3286
vn -0.9754 -0.1513 0.1602
vn -0.9872 -0.0109 -0.1591
vn 0.9751 -0.2218 -0.0006
vn -0.7934 -0.3506 -0.4976
vn -0.9897 -0.1248 0.0696
vn -0.9388 -0.0410 -0.3420
vn -0.9473 -0.1291 0.2931
vn -0.6432 -0.1760 0.7452
vn -0.0210 -0.2512 0.9677
vn 0.1206 -0.6427 0.7566
vn -0.9253 0.1226 0.3588
vn -0.0281 -0.5621 -0.8266
vn -0.2047 -0.5244 -0.8265
vn -0.9946 -0.0242 -0.1011
vn -0.2219 -0.7443 -0.6299
vn -0.3016 -0.4156 -0.8581
vn 0.5600 -0.3560 -0.7481
vn -0.1347 -0.5676 -0.8122
vn 0.1504 -0.4314 -0.8896
vn 0.1526 -0.2696 0.9508
vn 0.4240 -0.1298 0.8963
vn -0.9959 0.0376 0.0826
vn 0.9573 -0.1955 -0.2130
vn -0.0770 -0.3201 -0.9442
usemtl apollyonclaw
s 1
f 1/1/1 2/2/1 3/3/1 4/4/1
f 5/5/2 6/6/2 7/7/2 8/8/2
f 9/9/3 10/10/3 11/11/3 12/12/3
f 13/13/4 14/14/4 15/15/4 16/16/4
f 6/6/5 17/17/5 18/18/5 9/19/5
f 1/1/6 19/20/6 20/21/6 2/2/6
f 10/10/7 13/13/7 16/16/7 11/11/7
f 2/22/8 5/5/8 8/8/8 21/23/8 3/24/8
f 14/25/9 22/26/9 19/20/9 1/1/9
f 9/9/10 18/27/10 23/28/10 10/10/10
f 6/6/11 9/19/11 12/29/11 7/7/11
f 14/25/12 1/1/12 4/4/12 15/30/12
f 24/31/13 25/32/13 17/17/13
f 18/27/14 25/33/14 23/28/14
f 20/34/15 25/32/15 24/31/15
f 23/28/16 25/33/16 26/35/16
f 13/13/17 26/35/17 22/36/17 14/14/17
f 5/5/18 24/31/18 17/17/18 6/6/18
f 10/10/19 23/28/19 26/35/19 13/13/19
f 2/22/20 20/34/20 24/31/20 5/5/20
f 17/17/21 25/32/21 18/18/21
f 22/26/22 25/37/22 19/20/22
f 19/20/23 25/37/23 20/21/23
f 26/35/24 25/33/24 22/36/24
f 27/38/25 28/39/25 29/40/25 30/41/25
f 31/42/26 32/43/26 33/44/26 34/45/26
f 35/46/27 36/47/27 37/48/27 38/49/27
f 39/50/28 40/51/28 41/52/28 42/53/28
f 32/54/29 43/55/29 44/56/29 35/46/29
f 27/38/30 45/57/30 46/58/30 28/39/30
f 36/59/31 39/50/31 42/53/31 37/60/31
f 28/61/32 31/42/32 34/45/32 29/62/32
f 40/63/33 47/64/33 45/57/33 27/38/33
f 35/46/34 44/56/34 48/65/34 36/47/34
f 32/54/35 35/46/35 38/49/35 33/66/35
f 40/63/36 27/38/36 30/41/36 41/67/36
f 49/68/37 50/69/37 43/70/37
f 44/56/38 50/71/38 48/65/38
f 46/72/39 50/69/39 49/68/39
f 48/73/40 50/74/40 51/75/40
f 39/50/41 51/75/41 47/76/41 40/51/41
f 31/42/42 49/68/42 43/70/42 32/43/42
f 36/59/43 48/73/43 51/75/43 39/50/43
f 28/61/44 46/72/44 49/68/44 31/42/44
f 43/55/45 50/71/45 44/56/45
f 47/64/46 50/77/46 45/57/46
f 45/57/47 50/77/47 46/58/47
f 51/75/48 50/74/48 47/76/48
f 52/78/49 53/79/49 41/67/49 54/80/49
f 55/81/50 56/82/50 37/83/50 42/84/50
f 57/85/51 58/86/51 59/87/51 60/88/51
f 61/89/52 62/90/52 63/91/52 64/92/52
f 56/93/53 65/94/53 66/95/53 57/85/53
f 52/78/54 67/96/54 68/97/54 53/79/54
f 58/98/55 61/89/55 64/92/55 59/99/55
f 53/100/56 55/81/56 42/84/56 41/101/56
f 62/102/57 69/103/57 67/96/57 52/78/57
f 57/85/58 66/95/58 70/104/58 58/86/58
f 56/93/59 57/85/59 60/88/59 37/48/59
f 62/102/60 52/78/60 54/80/60 63/105/60
f 71/106/61 72/107/61 65/108/61
f 66/95/62 72/109/62 70/104/62
f 68/110/63 72/107/63 71/106/63
f 70/111/64 72/112/64 73/113/64
f 61/89/65 73/113/65 69/114/65 62/90/65
f 55/81/66 71/106/66 65/108/66 56/82/66
f 58/98/67 70/111/67 73/113/67 61/89/67
f 53/100/68 68/110/68 71/106/68 55/81/68
f 65/94/69 72/109/69 66/95/69
f 69/103/70 72/115/70 67/96/70
f 67/96/71 72/115/71 68/97/71
f 73/113/72 72/112/72 69/114/72
f 74/116/73 75/117/73 76/118/73 77/119/73
f 78/120/74 79/121/74 80/122/74 81/123/74
f 82/124/75 83/125/75 84/126/75 85/127/75
f 86/128/76 87/129/76 88/130/76 89/131/76
f 79/132/77 90/133/77 91/134/77 82/124/77
f 74/116/78 92/135/78 93/136/78 75/117/78
f 83/137/79 86/128/79 89/131/79 84/138/79
f 75/139/80 78/120/80 81/123/80 76/140/80
f 87/141/81 94/142/81 92/135/81 74/116/81
f 82/124/82 91/134/82 95/143/82 83/125/82
f 79/132/83 82/124/83 85/127/83 80/144/83
f 87/141/84 74/116/84 77/119/84 88/145/84
f 96/146/85 97/147/85 90/148/85
f 91/134/86 97/149/86 95/143/86
f 93/150/87 97/147/87 96/146/87
f 95/151/88 97/152/88 98/153/88
f 86/128/89 98/153/89 94/154/89 87/129/89
f 78/120/90 96/146/90 90/148/90 79/121/90
f 83/137/91 95/151/91 98/153/91 86/128/91
f 75/139/92 93/150/92 96/146/92 78/120/92
f 90/133/93 97/149/93 91/134/93
f 94/142/94 97/155/94 92/135/94
f 92/135/95 97/155/95 93/136/95
f 98/153/96 97/152/96 94/154/96
f 99/156/97 100/157/97 63/105/97 101/158/97
f 102/159/98 103/160/98 59/161/98 64/162/98
f 104/163/99 105/164/99 80/144/99 106/165/99
f 107/166/100 108/167/100 76/168/100 81/169/100
f 103/170/101 109/171/101 110/172/101 104/163/101
f 99/156/102 111/173/102 112/174/102 100/157/102
f 105/175/103 107/166/103 81/169/103 80/176/103
f 100/177/104 102/159/104 64/162/104 63/178/104
f 108/179/105 113/180/105 111/173/105 99/156/105
f 104/163/106 110/172/106 114/181/106 105/164/106
f 103/170/107 104/163/107 106/165/107 59/87/107
f 108/179/108 99/156/108 101/158/108 76/118/108
f 115/182/109 116/183/109 109/184/109
f 110/172/110 116/185/110 114/181/110
f 112/186/111 116/183/111 115/182/111
f 114/187/112 116/188/112 117/189/112
f 107/166/113 117/189/113 113/190/113 108/167/113
f 102/159/114 115/182/114 109/184/114 103/160/114
f 105/175/115 114/187/115 117/189/115 107/166/115
f 100/177/116 112/186/116 115/182/116 102/159/116
f 109/171/117 116/185/117 110/172/117
f 113/180/118 116/191/118 111/173/118
f 111/173/119 116/191/119 112/174/119
f 117/189/120 116/188/120 113/190/120
f 118/192/121 119/193/121 120/194/121 121/195/121
f 122/196/122 123/197/122 124/198/122 125/199/122
f 126/200/123 127/201/123 128/202/123 129/203/123
f 130/204/124 131/205/124 132/206/124 128/207/124
f 129/203/125 133/208/125 134/209/125 124/210/125
f 88/145/126 77/119/126 4/4/126
f 119/211/127 122/196/127 125/199/127 120/212/127
f 135/213/128 30/41/128 119/193/128 118/192/128
f 136/214/129 131/215/129 137/216/129 138/217/129
f 133/208/129 132/218/129 131/215/129 136/214/129
f 125/199/130 139/219/130 140/220/130 120/212/130
f 121/195/131 138/221/131 137/222/131 141/223/131
f 141/224/132 137/225/132 131/205/132 130/204/132
f 124/198/133 134/226/133 139/219/133 125/199/133
f 120/194/134 140/227/134 138/221/134 121/195/134
f 134/209/129 133/208/129 136/214/129 139/228/129
f 139/228/129 136/214/129 138/217/129 140/229/129
f 4/4/135 135/213/135 118/192/135 15/30/135
f 54/80/136 135/213/136 63/105/136
f 128/202/137 132/218/137 133/208/137 129/203/137
f 123/230/138 126/200/138 129/203/138 124/210/138
f 15/30/139 118/192/139 121/195/139 141/223/139
f 127/201/140 85/127/140 84/126/140
f 135/213/141 101/158/141 63/105/141
f 101/158/142 135/213/142 76/118/142
f 12/231/143 11/232/143 127/233/143
f 8/234/144 89/131/144 88/130/144 21/235/144
f 128/207/145 127/233/145 11/232/145 130/204/145
f 122/196/146 119/211/146 29/62/146 34/45/146
f 89/131/147 7/236/147 127/233/147
f 8/234/148 7/236/148 89/131/148
f 127/233/149 7/236/149 12/231/149
f 88/130/150 3/237/150 21/235/150
f 88/145/151 4/4/151 3/3/151
f 135/213/152 54/80/152 30/41/152
f 30/41/153 54/80/153 41/67/153
f 130/204/154 16/238/154 15/239/154 141/224/154
f 106/165/155 126/200/155 59/87/155
f 106/165/156 85/127/156 126/200/156
f 127/233/157 84/138/157 89/131/157
f 106/165/158 80/144/158 85/127/158
f 126/200/159 85/127/159 127/201/159
f 38/49/160 123/230/160 33/66/160
f 59/87/161 126/200/161 60/88/161
f 60/88/162 126/200/162 123/230/162
f 76/118/163 135/213/163 4/4/163 77/119/163
f 119/193/164 30/41/164 29/40/164
f 16/238/165 130/204/165 11/232/165
f 34/45/166 33/44/166 123/197/166 122/196/166
f 123/230/167 38/49/167 37/48/167 60/88/167
