# Blender v2.80 (sub 75) OBJ File: ''
# www.blender.org
mtllib eyewigeye.mtl
o eyewigeye
v -0.190683 -0.000679 0.404619
v -0.143012 -0.000679 0.547632
v -0.105935 0.105257 0.510555
v -0.143012 0.142334 0.404619
v -0.105935 0.105257 0.298684
v -0.143012 -0.000679 0.261607
v -0.105935 -0.106614 0.298684
v -0.143012 -0.143691 0.404619
v -0.105935 -0.106614 0.510555
v 0.000000 -0.000679 0.213936
v 0.000000 0.142334 0.261607
v 0.105935 0.105257 0.298684
v 0.143012 -0.000679 0.261607
v 0.105935 -0.106614 0.298684
v 0.000000 -0.143691 0.261607
v 0.190683 -0.000679 0.404619
v 0.143012 0.142334 0.404619
v 0.105935 0.105257 0.510555
v 0.143012 -0.000679 0.547632
v 0.105935 -0.106614 0.510555
v 0.143012 -0.143691 0.404619
v 0.000000 -0.000679 0.595303
v 0.000000 0.142334 0.547632
v 0.000000 -0.143691 0.547632
v 0.000000 -0.191362 0.404619
v 0.000000 0.190005 0.404619
vt 0.079284 0.511719
vt 0.184463 0.511719
vt 0.266269 0.745450
vt 0.735689 0.191887
vt 0.756724 0.254994
vt 0.773087 0.238632
vt 0.756724 0.191887
vt 0.773087 0.145140
vt 0.184463 0.196182
vt 0.266269 0.277987
vt 0.819832 0.191887
vt 0.819832 0.254994
vt 0.866578 0.238632
vt 0.882939 0.191887
vt 0.866578 0.145140
vt 0.819832 0.128780
vt 0.903975 0.191887
vt 0.920716 0.511719
vt 0.815537 0.827256
vt 0.733731 0.745450
vt 0.815537 0.511719
vt 0.733731 0.277987
vt 0.882939 0.128780
vt 0.500000 0.511719
vt 0.500000 0.827256
vt 0.500000 0.196182
vt 0.500000 0.091003
vt 0.819832 0.107744
vt 0.756724 0.128780
vt 0.815537 0.196182
vt 0.500000 0.932435
vt 0.819832 0.276030
vt 0.882939 0.254994
vt 0.184463 0.827256
vn -0.8675 0.4048 0.2892
vn -0.8675 0.2892 -0.4048
vn -0.8675 -0.4048 -0.2892
vn -0.8675 -0.2892 0.4048
vn -0.2892 0.4048 -0.8675
vn 0.4048 0.2892 -0.8675
vn 0.2892 -0.4048 -0.8675
vn -0.4048 -0.2892 -0.8675
vn 0.8675 0.4048 -0.2892
vn 0.8675 0.2892 0.4048
vn 0.8675 -0.4048 0.2892
vn 0.8675 -0.2892 -0.4048
vn 0.2892 0.4048 0.8675
vn -0.4048 0.2892 0.8675
vn -0.2892 -0.4048 0.8675
vn 0.4048 -0.2892 0.8675
vn -0.4048 -0.8675 0.2892
vn -0.2892 -0.8675 -0.4048
vn 0.4048 -0.8675 -0.2892
vn 0.2892 -0.8675 0.4048
vn 0.4048 0.8675 0.2892
vn 0.2892 0.8675 -0.4048
vn -0.4048 0.8675 -0.2892
vn -0.2892 0.8675 0.4048
vn -0.8675 0.2892 0.4048
vn -0.8675 0.4048 -0.2892
vn -0.8675 -0.2892 -0.4048
vn -0.8675 -0.4048 0.2892
vn -0.4048 0.2892 -0.8675
vn 0.2892 0.4048 -0.8675
vn 0.4048 -0.2892 -0.8675
vn -0.2892 -0.4048 -0.8675
vn 0.8675 0.2892 -0.4048
vn 0.8675 0.4048 0.2892
vn 0.8675 -0.2892 0.4048
vn 0.8675 -0.4048 -0.2892
vn 0.4048 0.2892 0.8675
vn -0.2892 0.4048 0.8675
vn -0.4048 -0.2892 0.8675
vn 0.2892 -0.4048 0.8675
vn -0.2892 -0.8675 0.4048
vn -0.4048 -0.8675 -0.2892
vn 0.2892 -0.8675 -0.4048
vn 0.4048 -0.8675 0.2892
vn 0.2892 0.8675 0.4048
vn 0.4048 0.8675 -0.2892
vn -0.2892 0.8675 -0.4048
vn -0.4048 0.8675 0.2892
usemtl eyewigeye
s 1
f 1/1/1 2/2/1 3/3/1
f 1/4/2 4/5/2 5/6/2
f 1/4/3 6/7/3 7/8/3
f 1/1/4 8/9/4 9/10/4
f 10/11/5 6/7/5 5/6/5
f 10/11/6 11/12/6 12/13/6
f 10/11/7 13/14/7 14/15/7
f 10/11/8 15/16/8 7/8/8
f 16/17/9 13/14/9 12/13/9
f 16/18/10 17/19/10 18/20/10
f 16/18/11 19/21/11 20/22/11
f 16/17/12 21/23/12 14/15/12
f 22/24/13 19/21/13 18/20/13
f 22/24/14 23/25/14 3/3/14
f 22/24/15 2/2/15 9/10/15
f 22/24/16 24/26/16 20/22/16
f 25/27/17 24/26/17 9/10/17
f 25/28/18 8/29/18 7/8/18
f 25/28/19 15/16/19 14/15/19
f 25/27/20 21/30/20 20/22/20
f 26/31/21 23/25/21 18/20/21
f 26/32/22 17/33/22 12/13/22
f 26/32/23 11/12/23 5/6/23
f 26/31/24 4/34/24 3/3/24
f 4/34/25 1/1/25 3/3/25
f 6/7/26 1/4/26 5/6/26
f 8/29/27 1/4/27 7/8/27
f 2/2/28 1/1/28 9/10/28
f 11/12/29 10/11/29 5/6/29
f 13/14/30 10/11/30 12/13/30
f 15/16/31 10/11/31 14/15/31
f 6/7/32 10/11/32 7/8/32
f 17/33/33 16/17/33 12/13/33
f 19/21/34 16/18/34 18/20/34
f 21/30/35 16/18/35 20/22/35
f 13/14/36 16/17/36 14/15/36
f 23/25/37 22/24/37 18/20/37
f 2/2/38 22/24/38 3/3/38
f 24/26/39 22/24/39 9/10/39
f 19/21/40 22/24/40 20/22/40
f 8/9/41 25/27/41 9/10/41
f 15/16/42 25/28/42 7/8/42
f 21/23/43 25/28/43 14/15/43
f 24/26/44 25/27/44 20/22/44
f 17/19/45 26/31/45 18/20/45
f 11/12/46 26/32/46 12/13/46
f 4/5/47 26/32/47 5/6/47
f 23/25/48 26/31/48 3/3/48
