# Blender v2.80 (sub 75) OBJ File: ''
# www.blender.org
mtllib ioraystinger.mtl
o ioraystinger
v -0.151679 -0.070026 -0.216233
v -0.013049 -0.146109 -0.178369
v 0.138367 -0.100501 -0.216233
v 0.153417 0.042739 -0.216233
v 0.008394 0.057977 -0.216233
v -0.136628 0.073214 -0.216233
v -0.054129 0.021099 -0.696327
v -0.060149 -0.036196 -0.696327
v -0.008941 -0.107010 -0.615189
v -0.017436 -0.020409 -1.176422
v -0.003357 -0.053863 -1.176422
v 0.061888 0.008909 -0.696327
v 0.003879 0.015004 -0.696327
v 0.055868 -0.048386 -0.696327
v 0.019174 -0.006878 -1.176422
v 0.017368 -0.024066 -1.176422
v 0.000869 -0.013644 -1.776540
v -0.015630 -0.003221 -1.176422
v 0.001772 -0.005050 -1.176422
vt 0.663278 0.551720
vt 0.306782 0.607916
vt 0.304980 0.546136
vt 0.301233 0.515021
vt 0.664830 0.490360
vt 0.696697 0.514561
vt 0.696607 0.622949
vt 0.772991 0.553179
vt 0.772947 0.603640
vt 0.766551 0.742666
vt 0.849241 0.586906
vt 0.849957 0.629386
vt 0.291518 0.147617
vt 0.305109 0.423440
vt 0.231237 0.447521
vt 0.225870 0.324629
vt 0.705060 0.887099
vt 0.231108 0.504780
vt 0.157278 0.455244
vt 0.157192 0.472481
vt 0.069298 0.456787
vt 0.849241 0.571715
vt 0.156542 0.417865
vt 0.294380 0.841955
vt 0.236519 0.663603
vt 0.939712 0.586133
vt 0.156284 0.520698
vt 0.779163 0.446335
vt 0.850136 0.539019
vt 0.712886 0.276672
vn 0.0113 0.1072 0.9942
vn 0.0738 0.7263 0.6834
vn 0.0808 0.7693 0.6338
vn 0.0771 0.7280 0.6812
vn -0.9784 0.1028 -0.1793
vn -0.8176 -0.5708 -0.0757
vn 0.1041 0.9905 -0.0896
vn -0.5577 -0.8208 -0.1235
vn 0.9784 -0.1028 -0.1793
vn 0.9941 -0.1045 -0.0291
vn 0.9909 -0.1041 -0.0847
vn -0.9909 0.1041 -0.0847
vn 0.1044 0.9936 -0.0420
vn 0.3750 -0.9188 -0.1235
vn -0.9941 0.1045 -0.0291
vn 0.8205 -0.5707 -0.0325
vn -0.9212 -0.3877 -0.0325
vn 0.6811 -0.7283 -0.0757
vn 0.1045 0.9944 -0.0144
usemtl ioraystinger
s 1
f 1/1/1 2/2/1 3/3/1 4/4/2 5/5/3 6/6/4
f 1/7/5 6/6/5 7/8/5 8/9/5
f 9/10/6 8/9/6 10/11/6 11/12/6
f 5/13/3 4/14/2 12/15/7 13/16/7
f 2/17/8 1/7/8 8/9/8 9/10/8
f 4/14/9 3/3/9 14/18/9 12/15/9
f 15/19/10 16/20/10 17/21/10
f 12/15/11 14/18/11 16/20/11 15/19/11
f 8/9/12 7/8/12 18/22/12 10/11/12
f 13/16/13 12/15/13 15/19/13 19/23/13
f 3/3/14 2/24/14 9/25/14 14/18/14
f 10/11/15 18/22/15 17/26/15
f 17/21/16 16/20/16 11/27/16
f 11/12/17 10/11/17 17/26/17
f 7/8/13 13/28/13 19/29/13 18/22/13
f 6/6/4 5/30/3 13/28/7 7/8/7
f 14/18/18 9/25/18 11/27/18 16/20/18
f 17/26/19 18/22/19 19/29/19
f 19/23/19 15/19/19 17/21/19
