# Blender v2.79 (sub 0) OBJ File: 'ironpikejoint.blend'
# www.blender.org
mtllib ironpikejoint.mtl
o Base
v -0.067200 -0.067200 0.060000
v -0.067200 0.067200 0.060000
v -0.067200 -0.067200 -0.180000
v -0.067200 0.067200 -0.180000
v 0.067200 -0.067200 0.060000
v 0.067200 0.067200 0.060000
v 0.067200 -0.067200 -0.180000
v 0.067200 0.067200 -0.180000
v -0.000000 -0.096000 -0.180000
v -0.000000 0.096000 -0.180000
v -0.000000 -0.096000 0.060000
v -0.000000 0.096000 0.060000
v -0.096000 0.000000 0.060000
v -0.096000 0.000000 -0.180000
v 0.096000 0.000000 -0.180000
v 0.096000 0.000000 0.060000
v -0.000000 0.000000 0.060000
v -0.000000 0.000000 -0.180000
v -0.067200 -0.067200 -0.060000
v -0.067200 0.067200 -0.060000
v 0.067200 -0.067200 -0.060000
v 0.067200 0.067200 -0.060000
v -0.000000 0.096000 -0.060000
v -0.000000 -0.096000 -0.060000
v 0.096000 0.000000 -0.060000
v -0.096000 0.000000 -0.060000
v -0.073920 -0.073920 0.040244
v 0.073920 0.073920 0.040244
v -0.000000 0.105600 0.040244
v -0.000000 -0.105600 0.040244
v 0.105600 0.000000 0.040244
v -0.073920 0.073920 0.040244
v 0.073920 -0.073920 0.040244
v -0.105600 0.000000 0.040244
v -0.073920 0.073920 -0.160000
v 0.073920 -0.073920 -0.160000
v -0.105600 0.000000 -0.160000
v -0.073920 -0.073920 -0.160000
v 0.073920 0.073920 -0.160000
v -0.000000 0.105600 -0.160000
v -0.000000 -0.105600 -0.160000
v 0.105600 0.000000 -0.160000
v 0.040000 -0.070000 -0.070000
v 0.040000 -0.070000 -0.150000
v 0.040000 -0.220000 -0.070000
v 0.040000 -0.220000 -0.150000
vt 0.009515 0.875161
vt 0.009515 0.711970
vt 0.053802 0.730299
vt 0.049905 0.858417
vt 0.206504 0.793496
vt 0.141583 0.636897
vt 0.269701 0.640794
vt 0.363103 0.728576
vt 0.815812 0.711572
vt 0.815812 0.874479
vt 0.772019 0.856367
vt 0.775847 0.728152
vt 0.619167 0.793152
vt 0.684167 0.949832
vt 0.555952 0.946004
vt 0.462488 0.858152
vt 0.537587 0.596507
vt 0.700494 0.596507
vt 0.682382 0.640301
vt 0.554167 0.636473
vt 0.700747 0.989797
vt 0.537841 0.989797
vt 0.422522 0.711826
vt 0.466316 0.729937
vt 0.143306 0.946198
vt 0.271424 0.950095
vt 0.359206 0.856694
vt 0.124978 0.990485
vt 0.377841 0.151975
vt 0.379922 0.293496
vt 0.194495 0.293496
vt 0.194495 0.155479
vt 0.767275 0.151976
vt 0.769359 0.293496
vt 0.584379 0.293496
vt 0.584379 0.155479
vt 0.011599 0.151976
vt 0.016936 0.009521
vt 0.194505 0.022881
vt 0.767275 0.435017
vt 0.761938 0.577471
vt 0.584369 0.564111
vt 0.584379 0.431513
vt 0.016936 0.577471
vt 0.011599 0.435017
vt 0.194495 0.431513
vt 0.194505 0.564111
vt 0.761938 0.009521
vt 0.584369 0.022881
vt 0.377841 0.435018
vt 0.422522 0.874732
vt 0.398952 0.293496
vt 0.401033 0.151975
vt 0.372512 0.009515
vt 0.406361 0.577478
vt 0.401033 0.435018
vt 0.372512 0.577478
vt 0.406361 0.009515
vt 0.288030 0.596507
vt 0.403493 0.711831
vt 0.403493 0.875022
vt 0.288169 0.990485
vt 0.124839 0.596507
vt 0.009515 0.293496
vt 0.788389 0.281085
vt 0.788389 0.009515
vt 0.933226 0.009515
vt 0.933226 0.281085
vn -0.8409 0.3604 -0.4037
vn 0.0000 0.0000 -1.0000
vn 0.8392 0.3597 0.4078
vn 0.0000 0.0000 1.0000
vn 0.3597 -0.8392 0.4078
vn -0.3597 0.8392 0.4078
vn 0.3597 0.8392 0.4078
vn -0.3597 -0.8392 0.4078
vn 0.8392 -0.3597 0.4078
vn -0.8409 -0.3604 -0.4037
vn -0.9156 -0.3924 -0.0877
vn 0.9156 -0.3924 0.0879
vn -0.3924 -0.9156 0.0879
vn 0.3924 0.9156 0.0879
vn -0.3924 0.9156 0.0879
vn 0.3924 -0.9156 0.0879
vn 0.9156 0.3924 0.0879
vn -0.9156 0.3924 -0.0877
vn -0.8392 0.3597 0.4078
vn -0.8392 -0.3597 0.4078
vn 0.9156 -0.3924 -0.0877
vn -0.3924 -0.9156 -0.0877
vn 0.3924 0.9156 -0.0877
vn -0.3924 0.9156 -0.0877
vn 0.3924 -0.9156 -0.0877
vn 0.9156 0.3924 -0.0877
vn 0.8409 0.3604 -0.4037
vn 0.3604 -0.8409 -0.4037
vn -0.3604 0.8409 -0.4037
vn 0.3604 0.8409 -0.4037
vn -0.3604 -0.8409 -0.4037
vn 0.8409 -0.3604 -0.4037
vn -0.9156 -0.3924 0.0879
vn -0.9156 0.3924 0.0879
vn 1.0000 0.0000 0.0000
usemtl ironpikejoint
s off
f 37/1/1 35/2/1 4/3/1 14/4/1
f 18/5/2 10/6/2 8/7/2 15/8/2
f 31/9/3 28/10/3 6/11/3 16/12/3
f 17/13/4 12/14/4 2/15/4 13/16/4
f 30/17/5 33/18/5 5/19/5 11/20/5
f 29/21/6 32/22/6 2/15/6 12/14/6
f 28/10/7 29/21/7 12/14/7 6/11/7
f 27/23/8 30/17/8 11/20/8 1/24/8
f 16/12/4 6/11/4 12/14/4 17/13/4
f 14/4/2 4/3/2 10/6/2 18/5/2
f 3/25/2 14/4/2 18/5/2 9/26/2
f 5/19/4 16/12/4 17/13/4 11/20/4
f 11/20/4 17/13/4 13/16/4 1/24/4
f 33/18/9 31/9/9 16/12/9 5/19/9
f 9/26/2 18/5/2 15/8/2 7/27/2
f 38/28/10 37/1/10 14/4/10 3/25/10
f 27/29/11 34/30/11 26/31/11 19/32/11
f 36/33/12 42/34/12 25/35/12 21/36/12
f 38/37/13 41/38/13 24/39/13 19/32/13
f 39/40/14 40/41/14 23/42/14 22/43/14
f 40/44/15 35/45/15 20/46/15 23/47/15
f 41/48/16 36/33/16 21/36/16 24/49/16
f 42/34/17 39/40/17 22/43/17 25/35/17
f 34/30/18 32/50/18 20/46/18 26/31/18
f 13/16/19 2/15/19 32/22/19 34/51/19
f 1/24/20 13/16/20 34/51/20 27/23/20
f 21/36/21 25/35/21 31/52/21 33/53/21
f 19/32/22 24/39/22 30/54/22 27/29/22
f 22/43/23 23/42/23 29/55/23 28/56/23
f 23/47/24 20/46/24 32/50/24 29/57/24
f 24/49/25 21/36/25 33/53/25 30/58/25
f 25/35/26 22/43/26 28/56/26 31/52/26
f 15/8/27 8/7/27 39/59/27 42/60/27
f 9/26/28 7/27/28 36/61/28 41/62/28
f 10/6/29 4/3/29 35/2/29 40/63/29
f 8/7/30 10/6/30 40/63/30 39/59/30
f 3/25/31 9/26/31 41/62/31 38/28/31
f 7/27/32 15/8/32 42/60/32 36/61/32
f 19/32/33 26/31/33 37/64/33 38/37/33
f 26/31/34 20/46/34 35/45/34 37/64/34
f 43/65/35 45/66/35 46/67/35 44/68/35
