# Blender v2.79 (sub 0) OBJ File: 'raidrablade.blend'
# www.blender.org
mtllib raidrablade.mtl
o Base
v -0.103765 -0.059485 0.026148
v 0.031679 -0.069490 -0.010576
v 0.091935 -0.061981 0.185786
v -0.065930 -0.044833 0.224908
v -0.100769 0.013080 0.020038
v 0.034539 0.051058 -0.020141
v 0.099528 0.066812 0.187152
v -0.055700 0.032810 0.228803
v 0.127649 -0.071990 0.350073
v -0.010062 -0.066541 0.386782
v 0.122917 0.043986 0.353449
v -0.015102 0.020791 0.390312
v 0.183933 -0.080359 0.519219
v 0.058427 -0.074538 0.545423
v 0.191899 0.026355 0.513774
v 0.062440 0.042250 0.539458
v 0.197043 -0.072432 0.653340
v 0.043019 -0.061679 0.629323
v 0.200516 0.032885 0.635140
v 0.048216 0.017954 0.601390
v -0.003068 0.077508 1.546871
v -0.205605 -0.009528 0.607566
v -0.061427 0.044093 1.260381
v 0.119091 0.077448 1.271053
v 0.113976 0.029490 1.286088
v 0.061585 0.074297 1.254121
v 0.058800 0.027048 1.269632
v -0.124065 0.016338 0.957444
v 0.199326 0.059738 0.967831
v 0.192054 -0.018045 0.987078
v 0.096001 0.060834 0.946685
v 0.091689 -0.019883 0.974837
v -0.122571 -0.015496 0.028146
v 0.041739 -0.012492 -0.017506
v 0.109855 0.001293 0.195892
v -0.078444 -0.000614 0.238663
v 0.169408 -0.000137 0.343519
v -0.023530 -0.016726 0.398676
v 0.247089 -0.022867 0.524490
v 0.045167 -0.009731 0.561081
v 0.253573 -0.012918 0.659829
v 0.045618 -0.021863 0.615356
v 0.156018 0.063495 1.297883
v 0.248264 0.030326 0.992700
vt 0.836622 0.480400
vt 0.876102 0.457721
vt 0.894982 0.481599
vt 0.871765 0.523386
vt 0.745707 0.498288
vt 0.759333 0.495647
vt 0.764143 0.513064
vt 0.741951 0.508147
vt 0.815608 0.330157
vt 0.880219 0.357204
vt 0.844923 0.392303
vt 0.819090 0.376562
vt 0.814740 0.310648
vt 0.771854 0.326551
vt 0.767016 0.308292
vt 0.772097 0.363991
vt 0.752749 0.375876
vt 0.738533 0.328327
vt 0.806547 0.542463
vt 0.811288 0.498976
vt 0.835459 0.403666
vt 0.881997 0.421291
vt 0.878695 0.434027
vt 0.803917 0.483361
vt 0.899317 0.395959
vt 0.874186 0.439524
vt 0.919022 0.479079
vt 0.765008 0.546636
vt 0.890445 0.338523
vt 0.824450 0.467993
vt 0.732715 0.544786
vt 0.882281 0.543973
vt 0.758052 0.389038
vt 0.761946 0.399635
vt 0.706151 0.434027
vt 0.519429 0.333230
vt 0.586794 0.333224
vt 0.579670 0.360603
vt 0.657462 0.512647
vt 0.664539 0.460244
vt 0.750656 0.447098
vt 0.652536 0.536504
vt 0.656773 0.341348
vt 0.656669 0.316616
vt 0.733338 0.309750
vt 0.653560 0.302482
vt 0.586440 0.499590
vt 0.581554 0.512604
vt 0.519429 0.480596
vt 0.585796 0.319730
vt 0.642382 0.388283
vt 0.581671 0.309819
vt 0.589962 0.470389
vt 0.647387 0.553659
vt 0.575773 0.524620
vt 0.759922 0.566717
vt 0.727431 0.563751
vt 0.923647 0.399206
vt 0.814082 0.388667
vt 0.806333 0.566716
vt 0.768484 0.379109
vn -0.0730 -0.9946 0.0739
vn -0.9894 -0.0991 -0.1066
vn -0.1550 0.9788 0.1343
vn 0.6635 0.7210 -0.1998
vn 0.0006 0.9953 0.0965
vn -0.0272 0.9996 0.0005
vn -0.0939 -0.9931 -0.0702
vn -0.7898 0.6018 0.1184
vn -0.8790 -0.2950 0.3747
vn -0.2452 0.9693 -0.0178
vn -0.2659 -0.0700 -0.9615
vn -0.0501 -0.9983 -0.0308
vn 0.8700 0.4529 -0.1949
vn -0.9054 -0.3248 0.2735
vn -0.0582 -0.9939 0.0941
vn 0.9360 -0.2103 -0.2823
vn 0.0130 -0.3317 -0.9433
vn -0.2410 0.9684 -0.0639
vn -0.1960 -0.9718 0.1313
vn -0.0551 -0.9881 0.1435
vn -0.0323 0.9945 -0.1001
vn 0.6156 0.7843 -0.0766
vn 0.6731 0.7344 -0.0867
vn -0.0093 -0.9842 0.1771
vn -0.0484 0.9986 -0.0216
vn -0.2151 0.9750 -0.0559
vn 0.2730 0.9544 0.1207
vn -0.1498 -0.9781 0.1446
vn -0.0007 0.9987 -0.0511
vn 0.4282 0.9025 0.0459
vn -0.1653 -0.9776 0.1304
vn -0.1522 0.9859 -0.0692
vn -0.0018 -0.9876 0.1568
vn 0.5906 -0.7611 0.2682
vn 0.6992 -0.7149 -0.0034
vn 0.6801 -0.7238 0.1165
vn 0.9464 0.1015 -0.3066
vn -0.8463 0.4465 0.2905
vn 0.8801 -0.3813 -0.2828
vn -0.8541 0.3683 0.3673
vn -0.9094 -0.3601 0.2081
vn 0.7308 -0.5961 -0.3326
vn -0.9801 0.1903 -0.0565
vn 0.5175 -0.7696 0.3740
usemtl raidra
s off
f 4/1/1 1/2/1 2/3/1 3/4/1
f 42/5/2 40/6/2 14/7/2 18/8/2
f 11/9/3 7/10/3 8/11/3 12/12/3
f 37/13/4 11/9/4 15/14/4 39/15/4
f 15/14/5 16/16/5 20/17/5 19/18/5
f 11/9/6 12/12/6 16/16/6 15/14/6
f 4/1/7 3/4/7 9/19/7 10/20/7
f 36/21/8 8/11/8 5/22/8 33/23/8
f 40/6/9 38/24/9 10/20/9 14/7/9
f 8/11/10 7/10/10 6/25/10 5/22/10
f 33/26/11 34/27/11 2/3/11 1/2/11
f 14/7/12 10/20/12 9/19/12 13/28/12
f 35/29/13 7/10/13 11/9/13 37/13/13
f 36/30/14 4/1/14 10/20/14 38/24/14
f 18/8/15 14/7/15 13/28/15 17/31/15
f 34/27/16 35/32/16 3/4/16 2/3/16
f 20/17/17 42/33/17 18/34/17 22/35/17
f 21/36/18 26/37/18 23/38/18
f 18/8/19 32/39/19 28/40/19 22/41/19
f 18/8/20 17/31/20 30/42/20 32/39/20
f 19/18/21 20/17/21 31/43/21 29/44/21
f 41/45/22 19/18/22 29/44/22 44/46/22
f 41/45/23 39/15/23 15/14/23 19/18/23
f 27/47/24 25/48/24 21/49/24
f 24/50/25 26/37/25 21/36/25
f 23/38/26 26/37/26 31/43/26 28/51/26
f 24/50/27 21/36/27 43/52/27
f 23/53/28 27/47/28 21/49/28
f 29/44/29 31/43/29 26/37/29 24/50/29
f 44/46/30 29/44/30 24/50/30 43/52/30
f 28/40/31 32/39/31 27/47/31 23/53/31
f 28/51/32 31/43/32 20/17/32 22/35/32
f 32/39/33 30/42/33 25/48/33 27/47/33
f 30/42/34 44/54/34 43/55/34 25/48/34
f 17/31/35 13/28/35 39/56/35 41/57/35
f 17/31/36 41/57/36 44/54/36 30/42/36
f 6/25/37 7/10/37 35/29/37 34/58/37
f 8/11/38 36/21/38 38/59/38 12/12/38
f 3/4/39 35/32/39 37/60/39 9/19/39
f 5/22/11 6/25/11 34/58/11 33/23/11
f 16/16/40 12/12/40 38/59/40 40/61/40
f 4/1/41 36/30/41 33/26/41 1/2/41
f 9/19/42 37/60/42 39/56/42 13/28/42
f 20/17/43 16/16/43 40/61/43 42/33/43
f 21/49/44 25/48/44 43/55/44
