# Blender v2.79 (sub 0) OBJ File: 'wendigoantler.blend'
# www.blender.org
mtllib wendigoantler.mtl
o Base
v 0.082288 -0.034215 0.878961
v 0.076100 0.044260 0.933560
v -0.012903 -0.034215 0.868173
v -0.019091 0.044260 0.922772
v 0.091011 -0.016450 0.801995
v 0.088218 0.076086 0.826632
v -0.004180 -0.016450 0.791206
v -0.006972 0.076086 0.815844
v -0.053411 0.082161 0.488318
v -0.059794 -0.039393 0.544639
v 0.079856 0.082161 0.503422
v 0.073473 -0.039393 0.559743
v -0.056057 0.052385 0.428696
v -0.061483 -0.050937 0.476569
v 0.057220 0.052385 0.441534
v 0.051794 -0.050937 0.489407
v -0.045246 0.005336 0.363081
v -0.053790 -0.070534 0.438468
v 0.061367 0.005336 0.375164
v 0.052823 -0.070534 0.450551
v -0.050101 -0.052806 0.307146
v -0.046213 -0.128118 0.383471
v 0.056691 -0.043226 0.311160
v 0.060579 -0.118538 0.387484
v -0.041502 -0.120503 0.239909
v -0.037614 -0.195815 0.316234
v 0.065291 -0.110923 0.243922
v 0.069179 -0.186235 0.320247
v -0.015875 -0.250094 0.154176
v -0.015587 -0.285964 0.232159
v 0.069559 -0.242430 0.157387
v 0.069847 -0.278300 0.235369
v -0.025473 -0.426465 0.130263
v -0.027530 -0.432196 0.198662
v 0.042874 -0.420333 0.132831
v 0.040817 -0.426065 0.201230
v -0.053877 0.023311 0.225910
v 0.052916 0.032891 0.229923
v -0.046983 -0.017306 0.139420
v 0.059809 -0.007726 0.143433
v -0.051876 0.094614 0.189317
v 0.053885 0.088604 0.206379
v -0.038521 0.069736 0.097772
v 0.067239 0.063726 0.114834
v 0.034027 0.196388 0.141975
v 0.074956 0.124883 0.166053
v 0.054257 0.181490 0.063344
v 0.095185 0.109984 0.087423
v 0.263958 0.229652 0.299186
v 0.272399 0.175898 0.306749
v 0.302938 0.231593 0.269476
v 0.311379 0.177839 0.277039
v -0.047918 -0.055912 -0.001144
v 0.058874 -0.046332 0.002869
v -0.049108 -0.016024 -0.064700
v 0.057684 -0.006444 -0.060687
v -0.014445 -0.221707 -0.094504
v 0.062446 -0.214809 -0.091615
v -0.013638 -0.205047 -0.155744
v 0.063253 -0.198149 -0.152855
v 0.129562 0.131370 0.128643
v 0.102933 0.134097 0.177750
v 0.090286 0.214630 0.166420
v 0.116915 0.211903 0.117313
v 0.261253 0.201489 -0.068302
v 0.271805 0.134296 -0.058849
v 0.285266 0.210159 -0.023211
v 0.295384 0.145733 -0.014146
v -0.040330 -0.072360 -0.079475
v -0.039795 -0.098558 -0.031176
v 0.060183 -0.063344 -0.075698
v 0.060718 -0.089541 -0.027399
v -0.046969 0.024788 -0.219049
v 0.059823 0.034368 -0.215036
v -0.038191 -0.031549 -0.233823
v 0.062322 -0.022532 -0.230046
vt 0.638954 0.615605
vt 0.635314 0.589877
vt 0.583062 0.589877
vt 0.594540 0.615605
vt 0.247013 0.464779
vt 0.214537 0.483172
vt 0.193978 0.444588
vt 0.230786 0.438411
vt 0.619472 0.665463
vt 0.610016 0.736530
vt 0.568265 0.738597
vt 0.577671 0.665462
vt 0.621755 0.115163
vt 0.611548 0.183850
vt 0.578106 0.183850
vt 0.595002 0.115162
vt 0.624054 0.084816
vt 0.589750 0.084816
vt 0.589750 0.050512
vt 0.624054 0.050512
vt 0.573925 0.245060
vt 0.615727 0.245061
vt 0.615726 0.301219
vt 0.573924 0.301218
vt 0.527602 0.208236
vt 0.471550 0.225431
vt 0.474619 0.258731
vt 0.538908 0.232482
vt 0.267979 0.088007
vt 0.232237 0.098755
vt 0.296132 0.210703
vt 0.326171 0.167948
vt 0.343380 0.188631
vt 0.317847 0.224972
vt 0.346656 0.238284
vt 0.357562 0.197930
vt 0.330052 0.386930
vt 0.377065 0.340512
vt 0.350553 0.314242
vt 0.316292 0.357863
vt 0.559052 0.681027
vt 0.500649 0.696907
vt 0.494563 0.676383
vt 0.546767 0.659567
vt 0.621874 0.805609
vt 0.639348 0.752967
vt 0.598275 0.745198
vt 0.590759 0.793355
vt 0.642124 0.721857
vt 0.600323 0.721721
vt 0.602968 0.465103
vt 0.565645 0.465103
vt 0.583528 0.433065
vt 0.578906 0.378414
vt 0.618249 0.378414
vt 0.613625 0.433065
vt 0.585412 0.808810
vt 0.615246 0.820560
vt 0.613624 0.457793
vt 0.583528 0.457792
vt 0.387857 0.205231
vt 0.377267 0.245669
vt 0.578544 0.132340
vt 0.615747 0.135318
vt 0.640537 0.231037
vt 0.588452 0.226869
vt 0.642266 0.678462
vt 0.637648 0.647314
vt 0.595847 0.647314
vt 0.600465 0.678325
vt 0.220729 0.056577
vt 0.257991 0.058702
vt 0.398059 0.309154
vt 0.413372 0.255125
vt 0.367365 0.287920
vt 0.619474 0.603259
vt 0.577673 0.603258
vt 0.239553 0.734845
vt 0.260955 0.734845
vt 0.260955 0.753955
vt 0.239553 0.753955
vt 0.389430 0.595204
vt 0.358455 0.590350
vt 0.359231 0.548556
vt 0.389875 0.553405
vt 0.487038 0.584213
vt 0.426751 0.595601
vt 0.427195 0.553802
vt 0.475967 0.552658
vt 0.594727 0.302198
vt 0.597720 0.271317
vt 0.639388 0.274652
vt 0.636384 0.305669
vt 0.618247 0.518141
vt 0.578903 0.518140
vt 0.263631 0.955051
vt 0.236878 0.955051
vt 0.237429 0.934871
vt 0.263081 0.934871
vt 0.327275 0.584436
vt 0.343214 0.542980
vt 0.208428 0.380712
vt 0.304082 0.383286
vt 0.300421 0.361807
vt 0.213378 0.362255
vt 0.527594 0.521779
vt 0.544294 0.542679
vt 0.568141 0.797747
vt 0.601308 0.802020
vt 0.633285 0.342863
vt 0.591628 0.339392
vt 0.423962 0.214687
vt 0.380968 0.660323
vt 0.413061 0.679376
vt 0.380038 0.728449
vt 0.359217 0.703940
vt 0.300700 0.575084
vt 0.319452 0.526313
vt 0.480821 0.708458
vt 0.474310 0.679955
vt 0.438302 0.377793
vt 0.438951 0.348563
vt 0.591758 0.388177
vt 0.625083 0.390954
vt 0.630460 0.449338
vt 0.603799 0.447116
vt 0.304691 0.474978
vt 0.286219 0.466834
vt 0.477585 0.431205
vt 0.460351 0.371435
vt 0.455537 0.437562
vt 0.619479 0.357886
vt 0.577677 0.357885
vt 0.344909 0.711861
vt 0.354011 0.731658
vt 0.390094 0.638595
vt 0.425029 0.651732
vt 0.642039 0.257902
vt 0.597767 0.254359
vt 0.618245 0.580345
vt 0.578902 0.580345
vt 0.459463 0.350046
vt 0.520865 0.370301
vt 0.514194 0.346490
vt 0.559755 0.888991
vt 0.586289 0.892409
vt 0.378355 0.820062
vt 0.358403 0.816981
vt 0.234222 0.849495
vt 0.266287 0.849495
vt 0.558535 0.891600
vt 0.578449 0.899443
vt 0.531960 0.750656
vt 0.512133 0.762207
vt 0.595002 0.088410
vt 0.621755 0.088410
vt 0.602968 0.421384
vt 0.565645 0.421384
vt 0.581013 0.101478
vt 0.618217 0.104456
vn 0.0508 0.8926 -0.4480
vn 0.9936 0.0000 0.1126
vn 0.0264 0.9071 -0.4201
vn 0.0253 0.1330 -0.9908
vn -0.0922 -0.5736 0.8139
vn 0.0890 -0.6924 -0.7160
vn -0.9978 0.0655 0.0065
vn -0.9839 0.0422 0.1737
vn -0.9872 -0.0306 -0.1564
vn -0.7861 0.5492 -0.2835
vn 0.9999 0.0141 0.0080
vn 0.0334 0.5172 0.8552
vn -0.0963 0.4278 0.8987
vn -0.0021 0.9998 0.0188
vn 0.0075 -0.4561 0.8899
vn -0.4117 0.0666 0.9089
vn 0.0960 -0.9608 -0.2601
vn -0.9996 0.0030 -0.0277
vn -0.0108 -0.9954 0.0951
vn 0.0167 0.7464 -0.6653
vn -0.9936 0.0000 -0.1126
vn -0.9953 -0.0893 -0.0374
vn -0.0959 0.9626 0.2532
vn 0.5872 0.2025 0.7837
vn 0.9996 -0.0037 0.0270
vn 0.9996 0.0276 -0.0072
vn -0.0167 -0.7464 0.6653
vn -0.0119 0.4965 -0.8679
vn 0.8748 0.0699 -0.4793
vn 0.9972 -0.0306 0.0685
vn -0.0532 0.9971 -0.0543
vn 0.9861 -0.1625 -0.0343
vn 0.0481 -0.3957 -0.9171
vn 0.0362 -0.7019 0.7113
vn -0.9852 -0.1505 -0.0818
vn -0.0907 0.7246 0.6832
vn 0.9088 -0.3293 0.2563
vn 0.9490 -0.1723 -0.2642
vn 0.9992 0.0397 0.0080
vn -0.9982 0.0401 0.0439
vn -0.0167 -0.2220 0.9749
vn -0.1963 0.9586 -0.2064
vn -0.2421 0.9451 -0.2192
vn -0.9932 0.0083 -0.1160
vn -0.9887 -0.1407 -0.0509
vn 0.0764 -0.9616 0.2636
vn 0.1441 -0.9810 0.1297
vn 0.0206 -0.5730 0.8193
vn 0.9927 -0.0167 0.1191
vn -0.0190 -0.9857 0.1676
vn -0.0179 0.5492 -0.8355
vn 0.9952 -0.0956 0.0196
vn 0.0959 -0.9626 -0.2532
vn -0.0508 -0.8923 0.4487
vn -0.9842 -0.1639 -0.0666
vn 0.0331 -0.6773 0.7349
vn -0.9981 0.0592 0.0147
vn 0.2669 -0.9366 0.2271
vn 0.0134 0.2556 -0.9667
vn 0.9987 -0.0234 -0.0450
vn -0.5144 -0.3771 -0.7702
vn 0.2627 -0.9471 0.1846
vn 0.0651 0.8160 -0.5744
vn 0.6285 0.2043 0.7505
vn -0.6081 0.0162 0.7937
vn -0.9881 -0.1386 -0.0666
vn 0.9953 0.0893 0.0374
vn 0.6337 -0.0093 -0.7735
vn 0.9990 0.0376 0.0238
vn 0.0921 -0.9925 -0.0804
vn -0.0319 0.9589 0.2818
vn -0.9959 0.0884 -0.0176
vn 0.9986 -0.0347 -0.0405
vn 0.0252 -0.9747 -0.2221
usemtl Material
s off
f 13/1/1 9/2/1 11/3/1 15/4/1
f 5/5/2 6/6/2 2/7/2 1/8/2
f 55/9/3 43/10/3 44/11/3 56/12/3
f 33/13/4 29/14/4 31/15/4 35/16/4
f 2/17/5 4/18/5 3/19/5 1/20/5
f 27/21/6 25/22/6 39/23/6 40/24/6
f 34/25/7 30/26/7 29/27/7 33/28/7
f 7/29/8 8/30/8 9/31/8 10/32/8
f 14/33/9 13/34/9 17/35/9 18/36/9
f 47/37/10 43/38/10 41/39/10 45/40/10
f 60/41/11 71/42/11 72/43/11 58/44/11
f 45/45/12 41/46/12 42/47/12 46/48/12
f 41/46/13 37/49/13 38/50/13 42/47/13
f 9/2/14 8/51/14 6/52/14 11/3/14
f 58/53/15 72/54/15 70/55/15 57/56/15
f 45/45/16 46/48/16 62/57/16 63/58/16
f 58/53/17 57/56/17 59/59/17 60/60/17
f 22/61/18 18/36/18 17/35/18 21/62/18
f 5/63/19 7/64/19 10/65/19 12/66/19
f 21/67/20 17/68/20 19/69/20 23/70/20
f 4/71/21 8/30/21 7/29/21 3/72/21
f 39/73/22 25/74/22 21/62/22 37/75/22
f 73/76/23 55/9/23 56/12/23 74/77/23
f 49/78/24 50/79/24 52/80/24 51/81/24
f 23/82/25 19/83/25 20/84/25 24/85/25
f 31/86/26 27/87/26 28/88/26 32/89/26
f 24/90/27 20/91/27 18/92/27 22/93/27
f 69/94/28 71/95/28 60/60/28 59/59/28
f 66/96/29 65/97/29 67/98/29 68/99/29
f 19/83/30 15/100/30 16/101/30 20/84/30
f 51/102/31 64/103/31 63/104/31 49/105/31
f 31/86/32 32/89/32 36/106/32 35/107/32
f 48/108/33 44/11/33 43/10/33 47/109/33
f 24/90/34 22/93/34 26/110/34 28/111/34
f 26/112/35 25/74/35 29/27/35 30/26/35
f 21/67/36 23/70/36 38/50/36 37/49/36
f 42/113/37 44/114/37 48/115/37 46/116/37
f 15/100/38 11/117/38 12/118/38 16/101/38
f 56/119/39 54/120/39 72/43/39 71/42/39
f 43/38/40 55/121/40 53/122/40
f 32/123/41 30/124/41 34/125/41 36/126/41
f 65/127/42 47/37/42 64/103/42 67/128/42
f 47/37/43 45/40/43 63/104/43 64/103/43
f 43/38/44 39/73/44 37/75/44 41/39/44
f 75/129/45 69/130/45 55/121/45 73/131/45
f 40/24/46 39/23/46 53/132/46 54/133/46
f 62/134/47 61/135/47 52/80/47 50/79/47
f 72/54/48 54/133/48 53/132/48 70/55/48
f 38/136/49 40/137/49 44/114/49 42/113/49
f 12/66/50 10/65/50 14/138/50 16/139/50
f 29/14/51 25/22/51 27/21/51 31/15/51
f 44/114/52 40/137/52 54/120/52
f 71/95/53 69/94/53 75/140/53 76/141/53
f 20/91/54 16/139/54 14/138/54 18/92/54
f 70/142/55 69/130/55 59/143/55 57/144/55
f 28/111/56 26/110/56 30/124/56 32/123/56
f 10/32/57 9/31/57 13/34/57 14/33/57
f 62/134/58 46/116/58 48/115/58 61/135/58
f 75/140/59 73/76/59 74/77/59 76/141/59
f 11/117/60 6/6/60 5/5/60 12/118/60
f 66/145/61 48/108/61 47/109/61 65/146/61
f 61/135/62 48/115/62 66/147/62 68/148/62
f 13/1/63 15/4/63 19/69/63 17/68/63
f 67/98/64 64/149/64 61/150/64 68/99/64
f 63/58/65 62/57/65 50/151/65 49/152/65
f 70/142/66 53/122/66 55/121/66 69/130/66
f 23/82/67 24/85/67 28/88/67 27/87/67
f 23/82/67 27/87/67 40/137/67 38/136/67
f 61/150/68 64/149/68 51/81/68 52/80/68
f 56/119/69 71/42/69 76/153/69 74/154/69
f 22/61/22 21/62/22 25/74/22 26/112/22
f 33/13/70 35/16/70 36/155/70 34/156/70
f 6/52/71 8/51/71 4/157/71 2/158/71
f 39/73/72 43/38/72 53/122/72
f 56/119/73 44/114/73 54/120/73
f 1/159/74 3/160/74 7/64/74 5/63/74
