# Blender v2.79 (sub 0) OBJ File: 'woodenguard.blend'
# www.blender.org
mtllib woodenguard.mtl
o Base
v -0.205751 -0.041150 0.048830
v -0.205751 0.041150 0.048830
v -0.226100 -0.045220 -0.067830
v -0.226100 0.045220 -0.067830
v 0.205751 -0.041150 0.048830
v 0.205751 0.041150 0.048830
v 0.226100 -0.045220 -0.067830
v 0.226100 0.045220 -0.067830
v 0.000000 -0.158270 -0.067830
v 0.000000 0.158270 -0.067830
v 0.000000 -0.144026 0.048830
v 0.000000 0.144026 0.048830
v 0.158270 0.081396 -0.067830
v 0.144026 -0.074070 0.048830
v 0.158270 -0.081396 -0.067830
v 0.144026 0.074070 0.048830
v -0.158270 -0.081396 -0.067830
v -0.144026 0.074070 0.048830
v -0.158270 0.081396 -0.067830
v -0.144026 -0.074070 0.048830
v 0.079135 -0.138373 -0.067830
v 0.072013 0.125920 0.048830
v 0.079135 0.138373 -0.067830
v 0.072013 -0.125920 0.048830
v -0.079135 0.138373 -0.067830
v -0.072013 -0.125920 0.048830
v -0.079135 -0.138373 -0.067830
v -0.072013 0.125920 0.048830
v -0.248710 -0.049742 0.000000
v -0.248710 0.049742 0.000000
v 0.248710 -0.049742 0.000000
v 0.248710 0.049742 0.000000
v 0.000000 0.174097 0.000000
v 0.000000 -0.174097 0.000000
v 0.174097 0.089536 0.000000
v 0.174097 -0.089536 0.000000
v -0.174097 -0.089536 0.000000
v -0.174097 0.089536 0.000000
v 0.087049 -0.152211 0.000000
v 0.087049 0.152211 0.000000
v -0.087049 0.152211 0.000000
v -0.087049 -0.152211 0.000000
v -0.079135 -0.015827 0.029830
v -0.079135 0.015827 0.029830
v 0.079135 0.015827 0.029830
v 0.079135 -0.015827 0.029830
v 0.055395 -0.028489 0.029830
v -0.055395 0.028489 0.029830
v -0.027697 -0.048431 0.029830
v 0.000000 -0.055395 0.029830
v 0.027697 0.048431 0.029830
v 0.000000 0.055395 0.029830
v 0.027697 -0.048431 0.029830
v 0.055395 0.028489 0.029830
v -0.027697 0.048431 0.029830
v -0.055395 -0.028489 0.029830
vt 0.063054 0.105713
vt 0.135787 0.190684
vt 0.091742 0.256685
vt 0.000135 0.180276
vt 0.932280 0.643806
vt 0.932280 0.481603
vt 0.999865 0.517648
vt 0.999865 0.607761
vt 0.739853 0.283942
vt 0.649176 0.311943
vt 0.612884 0.235597
vt 0.683610 0.190014
vt 0.267228 0.171070
vt 0.208863 0.134089
vt 0.367382 0.061486
vt 0.388611 0.074769
vt 0.460749 0.488446
vt 0.549032 0.501624
vt 0.498824 0.591593
vt 0.427498 0.578690
vt 0.203310 0.241621
vt 0.465934 0.330976
vt 0.381448 0.319402
vt 0.400806 0.237865
vt 0.466683 0.246335
vt 0.192980 0.474980
vt 0.274583 0.470912
vt 0.274583 0.553378
vt 0.206481 0.559215
vt 0.363772 0.729240
vt 0.336684 0.723405
vt 0.695735 0.700577
vt 0.695735 0.424832
vt 0.774583 0.405007
vt 0.774583 0.720401
vt 0.337833 0.214904
vt 0.411486 0.095452
vt 0.434233 0.105731
vt 0.571094 0.327390
vt 0.547240 0.240240
vt 0.356187 0.474980
vt 0.342686 0.559215
vt 0.853432 0.700577
vt 0.853432 0.424832
vt 0.549302 0.607761
vt 0.549302 0.517648
vt 0.616886 0.481603
vt 0.616886 0.643806
vt 0.000135 0.501624
vt 0.088418 0.488446
vt 0.121669 0.578690
vt 0.050343 0.591593
vt 0.299661 0.292587
vt 0.303296 0.712836
vt 0.274583 0.709050
vt 0.512809 0.100168
vt 0.529332 0.072242
vt 0.212483 0.723405
vt 0.185395 0.729240
vt 0.088626 0.414241
vt 0.190806 0.406029
vt 0.365867 0.388899
vt 0.274534 0.364214
vt 0.571270 0.404737
vt 0.458044 0.404737
vt 0.274583 0.405007
vt 0.358361 0.406029
vt 0.168172 0.315071
vt 0.007962 0.426129
vt 0.460541 0.414241
vt 0.659328 0.384617
vt 0.541204 0.426129
vt 0.754345 0.360276
vt 0.169751 0.052121
vt 0.395942 0.016827
vt 0.367907 0.028625
vt 0.490032 0.016286
vt 0.459100 0.107797
vt 0.462882 0.000135
vt 0.488693 0.101573
vt 0.510930 0.047219
vt 0.430925 0.000328
vt 0.245871 0.712836
vn -0.9487 0.0000 -0.3162
vn -0.0000 0.0000 -1.0000
vn 0.7508 0.0000 0.6605
vn 0.1063 -0.1993 0.9741
vn 0.4090 -0.7668 0.4947
vn -0.4090 0.7668 0.4947
vn 0.2093 0.8326 0.5128
vn -0.2093 -0.8326 0.5128
vn -0.1063 0.1993 0.9741
vn 0.0526 -0.2093 0.9764
vn 0.4090 0.7668 0.4947
vn 0.4973 -0.6907 0.5250
vn -0.4090 -0.7668 0.4947
vn -0.4973 0.6907 0.5250
vn -0.0526 0.2093 0.9764
vn 0.2093 -0.8326 0.5128
vn -0.1484 0.0000 0.9889
vn 0.4973 0.6907 0.5250
vn 0.1063 0.1993 0.9741
vn -0.2093 0.8326 0.5128
vn -0.4973 -0.6907 0.5250
vn -0.5690 -0.7902 -0.2276
vn -0.2378 0.9459 -0.2207
vn 0.5690 0.7902 -0.2276
vn 0.2378 -0.9459 -0.2207
vn -0.5690 0.7902 -0.2276
vn -0.4600 -0.8625 -0.2108
vn 0.5690 -0.7902 -0.2276
vn 0.4600 0.8625 -0.2108
vn -0.2378 -0.9459 -0.2207
vn 0.2378 0.9459 -0.2207
vn -0.4600 0.8625 -0.2108
vn 0.4600 -0.8625 -0.2108
vn 0.9487 0.0000 -0.3162
vn -0.7508 0.0000 0.6605
vn 0.0000 0.0000 1.0000
vn -0.1223 0.1698 0.9779
vn 0.0526 0.2093 0.9764
vn 0.1223 -0.1698 0.9779
vn -0.1223 -0.1698 0.9779
vn -0.0526 -0.2093 0.9764
vn 0.1223 0.1698 0.9779
vn -0.1063 -0.1993 0.9741
vn 0.1484 0.0000 0.9889
usemtl woodenguard
s off
f 29/1/1 30/2/1 4/3/1 3/4/1
f 15/5/2 13/6/2 8/7/2 7/8/2
f 31/9/3 32/10/3 6/11/3 5/12/3
f 18/13/4 2/14/4 44/15/4 48/16/4
f 36/17/5 31/18/5 5/19/5 14/20/5
f 38/21/6 30/2/6 2/14/6 18/13/6
f 40/22/7 33/23/7 12/24/7 22/25/7
f 42/26/8 34/27/8 11/28/8 26/29/8
f 14/20/9 5/19/9 46/30/9 47/31/9
f 27/32/2 25/33/2 10/34/2 9/35/2
f 12/24/10 28/36/10 55/37/10 52/38/10
f 32/10/11 35/39/11 16/40/11 6/11/11
f 39/41/12 36/17/12 14/20/12 24/42/12
f 21/43/2 23/44/2 13/6/2 15/5/2
f 3/45/2 4/46/2 19/47/2 17/48/2
f 29/49/13 37/50/13 20/51/13 1/52/13
f 41/53/14 38/21/14 18/13/14 28/36/14
f 11/28/15 24/42/15 53/54/15 50/55/15
f 9/35/2 10/34/2 23/44/2 21/43/2
f 34/27/16 39/41/16 24/42/16 11/28/16
f 5/12/17 6/11/17 45/56/17 46/57/17
f 35/39/18 40/22/18 22/25/18 16/40/18
f 1/52/19 20/51/19 56/58/19 43/59/19
f 33/23/20 41/53/20 28/36/20 12/24/20
f 17/48/2 19/47/2 25/33/2 27/32/2
f 37/50/21 42/26/21 26/29/21 20/51/21
f 17/60/22 27/61/22 42/26/22 37/50/22
f 10/62/23 25/63/23 41/53/23 33/23/23
f 13/64/24 23/65/24 40/22/24 35/39/24
f 9/66/25 21/67/25 39/41/25 34/27/25
f 25/63/26 19/68/26 38/21/26 41/53/26
f 3/69/27 17/60/27 37/50/27 29/49/27
f 21/67/28 15/70/28 36/17/28 39/41/28
f 8/71/29 13/64/29 35/39/29 32/10/29
f 27/61/30 9/66/30 34/27/30 42/26/30
f 23/65/31 10/62/31 33/23/31 40/22/31
f 19/68/32 4/3/32 30/2/32 38/21/32
f 15/70/33 7/72/33 31/18/33 36/17/33
f 7/73/34 8/71/34 32/10/34 31/9/34
f 1/74/35 2/14/35 30/2/35 29/1/35
f 56/75/36 48/16/36 44/15/36 43/76/36
f 53/77/36 51/78/36 52/38/36 50/79/36
f 46/57/36 45/56/36 54/80/36 47/81/36
f 49/82/36 55/37/36 48/16/36 56/75/36
f 47/81/36 54/80/36 51/78/36 53/77/36
f 50/79/36 52/38/36 55/37/36 49/82/36
f 24/42/37 14/20/37 47/31/37 53/54/37
f 26/29/38 11/28/38 50/55/38 49/83/38
f 28/36/39 18/13/39 48/16/39 55/37/39
f 16/40/40 22/25/40 51/78/40 54/80/40
f 22/25/41 12/24/41 52/38/41 51/78/41
f 20/51/42 26/29/42 49/83/42 56/58/42
f 6/11/43 16/40/43 54/80/43 45/56/43
f 2/14/44 1/74/44 43/76/44 44/15/44
