# Blender v2.79 (sub 0) OBJ File: 'zephyrcloud.blend'
# www.blender.org
mtllib zephyrcloud.mtl
o Base
v -0.053601 -0.207504 0.501560
v 0.025634 -0.156883 0.359099
v 0.083340 -0.086825 0.512276
v 0.142433 -0.063769 0.380952
v -0.018112 0.129469 0.345159
v 0.103644 0.113790 0.253998
v 0.026551 0.052614 0.421174
v 0.123712 0.017135 0.329899
v -0.134614 0.095125 0.204071
v -0.033924 0.091959 0.121218
v -0.170369 0.019266 0.112882
v -0.099164 0.047769 0.015618
v -0.019088 -0.073734 0.017821
v -0.049942 -0.051551 -0.082612
v 0.057178 0.008378 -0.097435
v 0.011788 -0.032890 -0.147615
v -0.022065 0.020875 -0.160415
v -0.015193 -0.008862 -0.201103
v -0.089244 -0.017506 -0.199511
v -0.095363 -0.032596 -0.242030
v -0.122362 -0.070157 -0.260946
v -0.132532 -0.087211 -0.299295
v -0.081559 -0.051700 0.049066
v -0.099105 -0.017445 -0.049480
v 0.052886 -0.047540 -0.036827
v -0.013520 -0.041742 -0.113104
v -0.147156 -0.017283 0.080239
v -0.131852 0.007061 -0.026934
vt 0.000000 1.000000
vt 0.000000 0.000000
vt 1.000000 0.000000
vt 1.000000 1.000000
vt 0.000000 1.000000
vt 0.000000 0.000000
vt 1.000000 0.000000
vt 1.000000 1.000000
vt 0.000000 1.000000
vt 0.000000 0.000000
vt 1.000000 0.000000
vt 1.000000 1.000000
vt 0.000000 1.000000
vt 0.000000 0.000000
vt 1.000000 0.000000
vt 1.000000 1.000000
vt 0.000000 1.000000
vt 0.000000 0.000000
vt 1.000000 0.000000
vt 1.000000 1.000000
vt 0.000000 1.000000
vt 0.000000 0.000000
vt 1.000000 0.000000
vt 1.000000 1.000000
vt 0.000000 1.000000
vt 0.000000 0.000000
vt 1.000000 0.000000
vt 1.000000 1.000000
vt 0.000000 1.000000
vt 0.000000 0.000000
vt 1.000000 0.000000
vt 1.000000 1.000000
vt 0.000000 1.000000
vt 0.000000 0.000000
vt 1.000000 0.000000
vt 1.000000 1.000000
vt 0.000000 1.000000
vt 0.000000 0.000000
vt 1.000000 0.000000
vt 1.000000 1.000000
vt 0.000000 1.000000
vt 0.000000 0.000000
vt 1.000000 0.000000
vt 1.000000 1.000000
vt 0.000000 1.000000
vt 0.000000 0.000000
vt 1.000000 0.000000
vt 1.000000 1.000000
vt 0.000000 1.000000
vt 0.000000 0.000000
vt 1.000000 0.000000
vt 1.000000 1.000000
vn 0.6317 -0.7669 0.1128
vn 0.5698 0.6513 0.5011
vn 0.7029 0.5398 0.4633
vn -0.0433 0.9858 -0.1621
vn -0.4351 0.8505 -0.2956
vn -0.5009 -0.8570 -0.1212
vn 0.5942 -0.7387 -0.3181
vn 0.7464 0.3327 -0.5764
vn -0.1122 0.8744 -0.4721
vn -0.7889 0.6089 -0.0831
vn -0.5860 -0.7810 -0.2161
vn 0.1397 -0.9632 -0.2294
vn -0.8838 0.3774 -0.2764
usemtl zephyr_ribbon
s off
f 1/1/1 2/2/1 4/3/1 3/4/1
f 7/5/2 8/6/2 6/7/2 5/8/2
f 3/9/3 4/10/3 8/11/3 7/12/3
f 5/13/4 6/14/4 10/15/4 9/16/4
f 9/17/5 10/18/5 12/19/5 11/20/5
f 23/21/6 24/22/6 14/23/6 13/24/6
f 25/25/7 26/26/7 16/27/7 15/28/7
f 15/29/8 16/30/8 18/31/8 17/32/8
f 17/33/9 18/34/9 20/35/9 19/36/9
f 19/37/10 20/38/10 22/39/10 21/40/10
f 27/41/11 28/42/11 24/43/11 23/44/11
f 13/45/12 14/46/12 26/47/12 25/48/12
f 11/49/13 12/50/13 28/51/13 27/52/13
