# Blender v2.79 (sub 0) OBJ File: 'entarm.blend'
# www.blender.org
mtllib entarm.mtl
o Base
v 0.091164 -0.046579 0.126547
v 0.013764 -0.046579 0.113958
v -0.060490 -0.050000 -0.020706
v 0.039082 -0.050000 -0.015159
v 0.091164 0.046579 0.126547
v 0.013764 0.046579 0.113958
v -0.060490 0.050000 -0.020706
v 0.039082 0.050000 -0.015159
v 0.077986 -0.050000 0.340906
v 0.077009 0.050000 0.346142
v -0.072640 -0.050000 0.282216
v -0.072388 0.050000 0.276153
v 0.005424 -0.020611 0.378718
v 0.002607 0.022043 0.379879
v -0.048123 -0.114577 0.360320
v 0.015310 -0.064879 0.434955
v 0.087531 -0.102304 0.393531
v -0.148520 -0.040775 0.515438
v -0.098644 -0.025607 0.520052
v -0.091352 0.030579 0.532994
v -0.148520 0.038525 0.515438
v 0.156582 0.039975 0.598335
v 0.083822 0.017347 0.593132
v 0.084815 -0.017177 0.592780
v 0.156582 -0.040964 0.598335
v 0.058113 0.126382 0.543104
v -0.018619 0.075563 0.563929
v -0.039304 0.145686 0.526846
v -0.045061 0.040127 0.709112
v -0.045728 -0.000972 0.803570
v -0.079232 -0.002056 0.726341
v -0.027414 -0.116971 0.556179
v 0.093918 0.117678 0.427904
v 0.002569 0.064821 0.447748
v -0.028468 0.132086 0.384309
v 0.092006 0.021536 0.488167
v 0.177577 0.049494 0.465191
v 0.093043 -0.021117 0.487340
v 0.177595 -0.050506 0.465166
v 0.049961 0.042650 0.227487
v 0.049961 -0.042650 0.227487
v -0.028571 -0.042650 0.203661
v -0.028571 0.042650 0.203661
v -0.062868 -0.033996 0.428864
v -0.116444 -0.055943 0.386464
v -0.056960 0.040090 0.448447
v -0.116430 0.052955 0.385565
v -0.018315 -0.040000 -0.219659
v 0.059724 -0.040000 -0.203076
v -0.018315 0.040000 -0.219659
v 0.059724 0.040000 -0.203076
v -0.030139 -0.020000 -0.293059
v 0.005081 -0.020000 -0.311789
v -0.030139 0.020000 -0.293059
v 0.005081 0.020000 -0.311789
vt 0.174554 0.586795
vt 0.192165 0.676694
vt 0.000385 0.673335
vt 0.565301 0.769352
vt 0.537998 0.838804
vt 0.404298 0.873606
vt 0.539899 0.900822
vt 0.565808 0.982721
vt 0.404298 0.874376
vt 0.262621 0.686503
vt 0.262832 0.760183
vt 0.000385 0.723659
vt 0.206886 0.471262
vt 0.210530 0.540178
vt 0.000385 0.378972
vt 0.664073 0.508098
vt 0.663659 0.539537
vt 0.438654 0.516460
vt 0.217077 0.000385
vt 0.210000 0.069551
vt 0.000385 0.152887
vt 0.643535 0.378972
vt 0.635793 0.450745
vt 0.438654 0.394027
vt 0.171013 0.822918
vt 0.174926 0.877696
vt 0.000385 0.769352
vt 0.546803 0.311256
vt 0.533906 0.362564
vt 0.357954 0.330563
vt 0.626478 0.546421
vt 0.631743 0.593771
vt 0.451603 0.653655
vt 0.853059 0.123326
vt 0.809463 0.243275
vt 0.673760 0.122304
vt 0.892486 0.275095
vt 0.826436 0.325516
vt 0.710692 0.275095
vt 0.656289 0.675593
vt 0.693037 0.768581
vt 0.531068 0.691673
vt 0.377193 0.575498
vt 0.382334 0.671133
vt 0.187749 0.651735
vt 0.195385 0.575498
vt 0.104171 0.994505
vt 0.000385 0.984567
vt 0.005045 0.893525
vt 0.104171 0.883576
vt 0.865806 0.378202
vt 0.930010 0.331924
vt 0.305579 0.077603
vt 0.340084 0.000385
vt 0.297413 0.877439
vt 0.253677 0.810867
vt 0.327045 0.769352
vt 0.403527 0.860866
vt 0.615967 0.378202
vt 0.636300 0.311256
vt 0.333442 0.545650
vt 0.303149 0.467357
vt 0.759812 0.545582
vt 0.759981 0.506735
vt 0.887810 0.506735
vt 0.886853 0.545650
vt 0.720462 0.605544
vt 0.748247 0.546421
vt 0.849343 0.566541
vt 0.778094 0.658228
vt 0.169792 0.325443
vt 0.098257 0.246242
vt 0.167586 0.172344
vt 0.225290 0.256427
vt 0.754598 0.477448
vt 0.766022 0.378972
vt 0.645823 0.844003
vt 0.696010 0.770763
vt 0.787953 0.768581
vt 0.722008 0.673008
vt 0.350929 0.893525
vt 0.350929 0.984557
vt 0.205370 0.999615
vt 0.205370 0.878467
vt 0.481196 0.089117
vt 0.435901 0.000385
vt 0.583060 0.000385
vt 0.587608 0.080966
vt 0.385557 0.768497
vt 0.385322 0.677465
vt 0.530297 0.677465
vt 0.527424 0.768581
vt 0.842269 0.000385
vt 0.973370 0.015443
vt 0.973370 0.106475
vt 0.842269 0.121533
vt 0.321906 0.660756
vt 0.278336 0.550027
vt 0.376108 0.546421
vt 0.450832 0.676695
vt 0.947969 0.122304
vt 0.877091 0.251269
vt 0.753855 0.116424
vt 0.673760 0.106488
vt 0.679066 0.015443
vt 0.753855 0.005495
vt 0.313923 0.172344
vt 0.357183 0.252156
vt 0.480561 0.190443
vt 0.580309 0.169226
vt 0.586654 0.291233
vt 0.672989 0.263165
vt 0.675112 0.995959
vt 0.647841 0.902082
vt 0.756368 0.941464
vt 0.715413 0.874376
vt 0.712585 0.873606
vt 0.817473 0.816834
vt 0.437883 0.445104
vt 0.394405 0.378972
vt 0.392240 0.171573
vt 0.435130 0.105705
vt 0.115857 0.378202
vt 0.000385 0.282175
vt 0.857519 0.483148
vt 0.872479 0.393184
vt 0.700205 0.374970
vt 0.709921 0.337275
vt 0.212723 0.984600
vt 0.212723 0.902154
vt 0.338116 0.922766
vt 0.338116 0.963989
vt 0.030297 0.996105
vt 0.030296 0.893047
vt 0.239890 0.903353
vt 0.239890 0.985799
vt 0.390371 0.671064
vt 0.384774 0.568441
vt 0.189674 0.568596
vt 0.181544 0.650413
vt 0.017895 0.994905
vt 0.017895 0.891848
vt 0.825596 0.015145
vt 0.895641 0.015145
vt 0.895641 0.084998
vt 0.825596 0.084998
vt 0.082383 0.636691
vt 0.104934 0.671064
vt 0.316510 0.923964
vt 0.316510 0.965187
vt 0.116343 0.670923
vt 0.095354 0.638875
vn 0.0869 0.8609 0.5013
vn -0.8815 -0.3960 -0.2572
vn 0.5281 -0.8421 -0.1094
vn 0.7122 0.0000 0.7020
vn -0.3044 -0.9455 -0.1158
vn -0.8507 -0.0191 -0.5254
vn -0.2894 0.9525 -0.0953
vn -0.9500 0.0000 0.3121
vn 0.0874 0.9832 0.1605
vn 0.9907 -0.1100 -0.0807
vn 0.2830 -0.9556 0.0825
vn 0.0955 -0.9952 -0.0223
vn 0.6052 0.6315 0.4847
vn -0.6714 0.7368 0.0800
vn 0.0063 -0.9987 -0.0506
vn 0.9729 0.0117 -0.2309
vn 0.5711 0.6620 0.4853
vn -0.3025 0.9530 0.0178
vn 0.2527 0.9670 0.0330
vn 0.9134 -0.1833 0.3635
vn -0.3207 -0.9471 0.0142
vn -0.7739 -0.0497 0.6313
vn 0.2824 -0.9555 0.0855
vn -0.0087 0.9993 0.0374
vn -0.9706 -0.0011 -0.2406
vn -0.9137 -0.3992 -0.0755
vn -0.7943 0.3563 0.4921
vn 0.9386 0.0000 -0.3450
vn 0.0267 -0.9969 -0.0741
vn 0.7721 0.0206 -0.6352
vn -0.8757 0.0000 0.4829
vn 0.3077 0.6967 -0.6480
vn 0.2481 -0.6892 -0.6808
vn -0.8642 -0.0153 -0.5029
vn -0.0042 0.9997 0.0257
vn -0.0015 0.9997 0.0262
vn -0.0042 -0.9997 0.0257
vn -0.0015 -0.9997 0.0262
vn 0.5492 -0.8106 0.2034
vn 0.5049 -0.7207 0.4751
vn 0.1660 0.9846 -0.0552
vn -0.8754 -0.2635 0.4052
vn 0.9878 0.0001 0.1558
vn -0.9967 -0.0250 -0.0778
vn -0.2700 -0.9390 0.2130
vn -0.2531 0.9431 0.2157
vn -0.9043 -0.0000 -0.4268
vn -0.0087 -0.9993 0.0374
vn 0.0305 0.9968 -0.0740
vn 0.9258 0.0000 0.3779
vn -0.9248 -0.0115 -0.3804
vn 0.2582 -0.9490 0.1811
vn 0.6701 -0.1470 0.7275
vn 0.0825 0.9873 0.1358
vn 0.8935 -0.0000 -0.4491
vn -0.9783 0.0000 -0.2074
vn 0.0063 0.9987 -0.0506
vn 0.9940 -0.0000 0.1092
vn -0.4695 -0.0000 -0.8829
vn -0.0040 0.9770 -0.2131
vn -0.9873 0.0000 0.1590
vn -0.0040 -0.9770 -0.2131
usemtl entarm
s off
f 26/1/1 28/2/1 29/3/1
f 28/4/2 27/5/2 29/6/2
f 27/7/3 26/8/3 29/9/3
f 25/10/4 22/11/4 30/12/4
f 24/13/5 25/14/5 30/15/5
f 23/16/6 24/17/6 30/18/6
f 22/19/7 23/20/7 30/21/7
f 21/22/8 18/23/8 31/24/8
f 20/25/9 21/26/9 31/27/9
f 19/28/10 20/29/10 31/30/10
f 18/31/11 19/32/11 31/33/11
f 15/34/12 17/35/12 32/36/12
f 17/37/13 16/38/13 32/39/13
f 16/40/14 15/41/14 32/42/14
f 4/43/15 3/44/15 48/45/15 49/46/15
f 40/47/16 10/48/16 9/49/16 41/50/16
f 13/51/17 16/38/17 17/37/17 9/52/17
f 36/53/18 23/20/18 22/19/18 37/54/18
f 47/55/19 46/56/19 14/57/19 12/58/19
f 46/59/20 20/29/20 19/28/20 44/60/20
f 39/61/21 25/14/21 24/13/21 38/62/21
f 38/63/22 36/64/22 14/65/22 13/66/22
f 44/67/23 45/68/23 11/69/23 13/70/23
f 43/71/24 40/72/24 5/73/24 6/74/24
f 45/75/25 18/23/25 21/22/25 47/76/25
f 34/77/26 27/5/26 28/4/26 35/78/26
f 11/79/27 15/41/27 16/40/27 13/80/27
f 4/81/28 8/82/28 5/83/28 1/84/28
f 41/85/29 9/86/29 11/87/29 42/88/29
f 37/89/30 39/90/30 9/91/30 10/92/30
f 6/93/31 7/94/31 3/95/31 2/96/31
f 35/97/32 33/98/32 10/99/32 12/100/32
f 17/35/33 15/34/33 11/101/33 9/102/33
f 42/103/34 11/104/34 12/105/34 43/106/34
f 5/73/35 8/107/35 6/74/35
f 8/107/36 7/108/36 6/74/36
f 1/109/37 2/110/37 4/111/37
f 2/110/38 3/112/38 4/111/38
f 33/113/39 26/8/39 27/7/39 34/114/39
f 10/115/40 33/113/40 34/114/40 14/116/40
f 28/2/41 26/1/41 33/98/41 35/97/41
f 14/117/42 34/77/42 35/78/42 12/118/42
f 22/11/43 25/10/43 39/90/43 37/89/43
f 24/17/44 23/16/44 36/64/44 38/63/44
f 9/119/45 39/61/45 38/62/45 13/120/45
f 14/121/46 36/53/46 37/54/46 10/122/46
f 2/96/47 42/103/47 43/106/47 6/93/47
f 1/109/48 41/85/48 42/88/48 2/110/48
f 12/123/49 10/124/49 40/72/49 43/71/49
f 5/83/50 40/47/50 41/50/50 1/84/50
f 11/125/51 45/75/51 47/76/51 12/126/51
f 19/32/52 18/31/52 45/68/52 44/67/52
f 14/127/53 46/59/53 44/60/53 13/128/53
f 21/26/54 20/25/54 46/56/54 47/55/54
f 51/129/55 49/130/55 53/131/55 55/132/55
f 3/133/56 7/134/56 50/135/56 48/136/56
f 7/137/57 8/138/57 51/139/57 50/140/57
f 8/141/58 4/142/58 49/130/58 51/129/58
f 55/143/59 53/144/59 52/145/59 54/146/59
f 50/140/60 51/139/60 55/147/60 54/148/60
f 48/136/61 50/135/61 54/149/61 52/150/61
f 49/46/62 48/45/62 52/151/62 53/152/62
